<svg width="43" height="38" viewBox="0 0 43 38" fill="none" xmlns="http://www.w3.org/2000/svg">
<path d="M26.2832 0.620056C26.3514 0.620114 26.4168 0.648001 26.4658 0.696228C26.5148 0.744488 26.5438 0.809672 26.5469 0.877869C26.5761 1.53142 26.6036 2.18525 26.6299 2.83881C26.706 4.72971 26.7686 6.6207 26.8203 8.51166C31.7198 6.396 36.6406 4.32921 41.585 2.31635C42.0897 2.09415 42.4998 2.73146 42.0918 3.10248C40.9225 4.10719 39.7497 5.10861 38.5742 6.10638C37.917 6.66423 37.2588 7.22161 36.5996 7.77728C36.5471 7.82137 36.479 7.84471 36.4102 7.84076C36.3414 7.83677 36.2764 7.80657 36.2305 7.7558C36.1846 7.70498 36.1611 7.63713 36.1641 7.5683C36.1671 7.49955 36.197 7.43434 36.2461 7.38666C36.8662 6.7875 37.4883 6.18872 38.1104 5.59174C38.534 5.18512 38.9602 4.78055 39.3848 4.37494C35.2257 6.29158 31.0501 8.16993 26.8584 10.0117C26.9419 13.5032 26.9854 16.9948 26.9854 20.4863C26.9853 22.8827 26.9651 25.2793 26.9258 27.6757C26.9274 27.7793 26.8493 27.9951 26.7861 28.0771C24.5672 30.7659 22.3153 33.4285 20.0312 36.0654C19.6031 36.5597 19.1736 37.0533 18.7432 37.5458C18.6982 37.5972 18.6348 37.6315 18.5664 37.6386C18.4982 37.6457 18.4302 37.6253 18.377 37.5829C18.3237 37.5404 18.2885 37.4784 18.2803 37.4101C18.272 37.3418 18.291 37.273 18.3311 37.2177C18.7159 36.6886 19.1021 36.16 19.4893 35.6328C21.5076 32.8836 23.5572 30.1594 25.6377 27.4599C25.6007 25.1354 25.5811 22.8108 25.5811 20.4863C25.5811 17.1651 25.6198 13.8437 25.6953 10.5224C25.4506 10.6294 25.2067 10.7389 24.9619 10.8456C23.1138 11.6513 21.2618 12.4482 19.4072 13.2392C19.4992 14.566 19.5586 15.8928 19.583 17.2197C20.339 16.0713 21.1262 14.9412 21.9443 13.83C22.1087 13.6068 22.2746 13.3837 22.4414 13.162C22.4814 13.1091 22.5389 13.0689 22.6045 13.0536C22.6702 13.0385 22.7391 13.049 22.7959 13.0829C22.8525 13.1169 22.8944 13.1723 22.9121 13.2372C22.9298 13.3023 22.9214 13.3722 22.8936 13.4326C22.7769 13.6843 22.6583 13.9353 22.5391 14.1855C21.6008 16.1551 20.5847 18.0793 19.4912 19.956C19.094 20.612 18.1948 20.3647 18.1982 19.5976C18.1945 19.2843 18.1924 18.9704 18.1924 18.6572C18.1924 17.0326 18.2454 15.4077 18.3467 13.7831C18.0214 13.9033 17.6954 14.0226 17.3682 14.1386C17.2256 14.1891 17.0824 14.2382 16.9395 14.288C12.4739 16.1741 7.98968 18.0181 3.4873 19.8193C2.68686 20.1395 1.88559 20.4588 1.08398 20.7763C1.0202 20.8015 0.947826 20.8019 0.883789 20.7763C0.820021 20.7507 0.768635 20.7011 0.741211 20.6386C0.713849 20.5758 0.712617 20.5037 0.737305 20.4394C0.762097 20.3752 0.811411 20.3235 0.873047 20.2939C1.65132 19.9227 2.43052 19.552 3.20996 19.1835C10.2259 15.8666 17.2897 12.6582 24.4004 9.55853C24.8439 9.36521 25.2886 9.17387 25.7324 8.98138C25.7862 6.93383 25.8541 4.88629 25.9365 2.83881C25.9628 2.18525 25.9903 1.53143 26.0195 0.877869C26.0226 0.809595 26.0515 0.744505 26.1006 0.696228C26.1496 0.647981 26.215 0.620056 26.2832 0.620056ZM17.9189 8.04095C18.3744 7.96948 18.8059 7.98856 19.2129 8.0976C19.5643 8.19182 19.9143 8.29408 20.2617 8.40326C20.8344 8.53422 20.9657 9.10724 20.5664 9.53802C19.7469 10.2911 18.8759 10.9936 17.9541 11.6445C17.8668 11.7061 17.7786 11.7674 17.6904 11.8281C17.6371 11.8646 17.5726 11.8869 17.5068 11.8847C17.4411 11.8825 17.379 11.8565 17.334 11.8115C17.2892 11.7664 17.2629 11.7051 17.2607 11.6396C17.2586 11.5738 17.2809 11.5094 17.3174 11.456C17.3781 11.3677 17.4394 11.2797 17.501 11.1923C17.9258 10.5898 18.3752 10.011 18.8438 9.45209C18.4387 9.34251 18.0572 9.143 17.7002 8.85443C17.6107 8.78204 17.5221 8.70371 17.4355 8.62006C17.3922 8.57754 17.3525 8.53015 17.3281 8.4765C17.3038 8.42273 17.2966 8.36659 17.3105 8.31439C17.3245 8.26231 17.3585 8.21692 17.4062 8.18256C17.4543 8.1482 17.5133 8.12738 17.5723 8.11224C17.6891 8.08307 17.8051 8.05885 17.9189 8.04095Z" fill="#CAD9E0"/>
</svg>
