<svg width="24" height="25" viewBox="0 0 24 25" fill="none" xmlns="http://www.w3.org/2000/svg">
<path d="M12 2.50073C17.4998 2.50073 21.9997 6.99048 22 12.5203C22.0054 14.9059 21.158 17.2156 19.6104 19.031C18.0626 20.8465 15.916 22.0485 13.5596 22.4207V15.4207H15.8896L16.3398 12.5203H13.5596V10.6404C13.5597 9.8505 13.9506 9.08081 15.1904 9.08081H16.4502V6.61108C16.4502 6.61108 15.3097 6.42065 14.2197 6.42065C11.93 6.42076 10.4406 7.80068 10.4404 10.3103V12.5203H7.90039V15.4207H10.4404V22.4207C5.66043 21.6707 2 17.5203 2 12.5203C2.00025 6.99048 6.50016 2.50073 12 2.50073Z" fill="#828282"/>
</svg>
