<svg width="24" height="25" viewBox="0 0 24 25" fill="none" xmlns="http://www.w3.org/2000/svg">
<path d="M19 3.46069C19.5304 3.46069 20.039 3.67156 20.4141 4.04663C20.7891 4.4217 21 4.93026 21 5.46069V19.4607C21 19.9911 20.7891 20.4997 20.4141 20.8748C20.039 21.2498 19.5304 21.4607 19 21.4607H5C4.46957 21.4607 3.96101 21.2498 3.58594 20.8748C3.21086 20.4997 3 19.9911 3 19.4607V5.46069C3 4.93026 3.21086 4.4217 3.58594 4.04663C3.96101 3.67156 4.46957 3.46069 5 3.46069H19ZM5.5 18.9607H8.26953V10.5906H5.5V18.9607ZM15.2402 10.4011C14.3902 10.4011 13.3999 10.9209 12.9199 11.7009V10.5906H10.1299V18.9607H12.9199V14.031C12.9199 13.2611 13.5398 12.6308 14.3096 12.6306C14.6808 12.6306 15.0373 12.7783 15.2998 13.0408C15.5624 13.3033 15.71 13.6597 15.71 14.031V18.9607H18.5V13.6609C18.5 12.7963 18.1563 11.9666 17.5449 11.3552C16.9336 10.7441 16.1046 10.4012 15.2402 10.4011ZM6.87988 5.65112C6.43171 5.65115 6.00148 5.82835 5.68457 6.14526C5.36766 6.46217 5.19046 6.8924 5.19043 7.34058C5.19043 8.27054 5.94994 9.0202 6.87988 9.02026C7.32545 9.02026 7.7533 8.84411 8.06836 8.52905C8.38342 8.21399 8.55957 7.78614 8.55957 7.34058C8.55951 6.41063 7.80984 5.65112 6.87988 5.65112Z" fill="#828282"/>
</svg>
