<svg width="24" height="25" viewBox="0 0 24 25" fill="none" xmlns="http://www.w3.org/2000/svg">
<path d="M12 5.46069C16.19 5.46069 18.8001 5.62112 19.8301 5.90112C20.7299 6.15113 21.3096 6.73078 21.5596 7.63062C21.6896 8.10062 21.7798 8.73101 21.8398 9.53101C21.9098 10.3309 21.9404 11.0209 21.9404 11.6208L22 12.4607C22 14.6507 21.8396 16.2608 21.5596 17.2908C21.3096 18.1906 20.7299 18.7703 19.8301 19.0203C19.3601 19.1503 18.4997 19.2405 17.1797 19.3005C15.8798 19.3705 14.6898 19.4011 13.5898 19.4011L12 19.4607C7.81 19.4607 5.19992 19.3003 4.16992 19.0203C3.27009 18.7703 2.69044 18.1906 2.44043 17.2908C2.31043 16.8208 2.22016 16.1904 2.16016 15.3904C2.09017 14.5905 2.05957 13.9005 2.05957 13.3005L2 12.4607C2 10.2707 2.16043 8.66062 2.44043 7.63062C2.69044 6.73078 3.27009 6.15113 4.16992 5.90112C4.63992 5.77112 5.50031 5.68085 6.82031 5.62085C8.12019 5.55086 9.31024 5.52026 10.4102 5.52026L12 5.46069ZM10 15.4607L15.1904 12.4607L10 9.46069V15.4607Z" fill="#828282"/>
</svg>
