<svg width="24" height="25" viewBox="0 0 24 25" fill="none" xmlns="http://www.w3.org/2000/svg">
<path d="M16.2002 2.46069C19.4 2.4608 21.9999 5.06065 22 8.2605V16.6609C21.9999 18.1991 21.3884 19.6738 20.3008 20.7615C19.2131 21.8491 17.7384 22.4606 16.2002 22.4607H7.7998C4.59996 22.4606 2.00011 19.8607 2 16.6609V8.2605C2.00005 6.72231 2.61155 5.24758 3.69922 4.15991C4.78688 3.07225 6.26162 2.46075 7.7998 2.46069H16.2002ZM7.59961 4.46069C6.64497 4.4608 5.72973 4.84034 5.05469 5.51538C4.37965 6.19042 4.0001 7.10566 4 8.0603V16.8611C4.00021 18.8508 5.60992 20.4605 7.59961 20.4607H16.4004C17.355 20.4606 18.2703 20.081 18.9453 19.406C19.6204 18.731 19.9999 17.8157 20 16.8611V8.0603C19.9998 6.07061 18.3901 4.4609 16.4004 4.46069H7.59961ZM12 7.46069C13.3261 7.46069 14.5975 7.98785 15.5352 8.92554C16.4728 9.86322 17 11.1346 17 12.4607C17 13.7868 16.4728 15.0582 15.5352 15.9958C14.5975 16.9335 13.3261 17.4607 12 17.4607C10.6739 17.4607 9.40253 16.9335 8.46484 15.9958C7.52716 15.0582 7 13.7868 7 12.4607C7 11.1346 7.52716 9.86322 8.46484 8.92554C9.40253 7.98785 10.6739 7.46069 12 7.46069ZM12 9.46069C11.2044 9.46069 10.4415 9.77699 9.87891 10.3396C9.3163 10.9022 9 11.665 9 12.4607C9 13.2563 9.3163 14.0192 9.87891 14.5818C10.4415 15.1444 11.2044 15.4607 12 15.4607C12.7956 15.4607 13.5585 15.1444 14.1211 14.5818C14.6837 14.0192 15 13.2563 15 12.4607C15 11.665 14.6837 10.9022 14.1211 10.3396C13.5585 9.77699 12.7956 9.46069 12 9.46069ZM17.25 5.96069C17.5815 5.96069 17.8994 6.09248 18.1338 6.3269C18.3682 6.56132 18.5 6.87917 18.5 7.21069C18.5 7.54221 18.3682 7.86006 18.1338 8.09448C17.8994 8.3289 17.5815 8.46069 17.25 8.46069C16.9185 8.46069 16.6006 8.3289 16.3662 8.09448C16.1318 7.86006 16 7.54221 16 7.21069C16 6.87917 16.1318 6.56132 16.3662 6.3269C16.6006 6.09248 16.9185 5.96069 17.25 5.96069Z" fill="#828282"/>
</svg>
