<svg width="746" height="648" viewBox="0 0 746 648" fill="none" xmlns="http://www.w3.org/2000/svg">
<path d="M300.853 -206.814C320.481 -199.814 335.263 -188.066 352.919 -176.846L724.3 95.4L745.9 867.152H431.2C387.936 872.552 344.228 873.527 300.853 878.525C243.516 885.131 186.327 896.094 130.19 909.395L129.359 909.592C56.618 926.83 -125.068 969.884 -161.238 878.525C-180.751 829.239 -147.819 763.459 -105.736 736.268C-4.35074 670.759 116.432 647.034 225.826 598.164C247.527 588.47 275.244 573.312 290.367 554.295C302.857 538.59 319.987 516.509 320.378 495.804C320.63 482.433 322.389 429.987 310.615 425.037C309.684 424.645 293.999 431.118 292.537 431.536C276.169 436.206 260.903 449.932 244.086 452.838C224.995 456.138 203.108 453.56 183.703 453.56C161.583 453.56 138.867 455.142 116.812 453.38C95.8438 451.705 74.5484 449.481 53.7174 446.881C34.2923 444.456 24.59 426.389 17.56 410.595C5.67667 383.895 9.8452 352.825 -24.5633 352.825C-45.2175 352.825 -107.011 365.416 -99.9377 333.634C-92.986 302.395 -63.276 289.453 -44.8114 265.088C-30.8952 246.725 -18.0549 229.163 -18.0549 205.875C-18.0549 180.126 -17.6813 154.353 -18.0549 128.609C-18.3981 104.963 -27.8174 82.9256 -27.8174 59.1051C-27.8174 38.2335 -31.2689 14.0108 -26.0096 -6.24629C-13.8526 -53.0705 4.67783 -106.98 37.2658 -144.17C60.8342 -171.067 104.34 -205.64 141.399 -209.341C152.345 -210.434 161.658 -215.657 173.217 -215.84C190.546 -216.115 207.93 -215.98 225.261 -215.846L226.007 -215.84C251.276 -215.645 276.868 -215.367 300.853 -206.814Z" fill="var(--Cladonia-1, #E5F5FF)"/>
</svg>
