<svg width="432" height="648" viewBox="0 0 432 648" fill="none" xmlns="http://www.w3.org/2000/svg">
<path d="M152.089 -213.043C150.49 -212.545 144.082 -210.982 141.252 -210.814C141.243 -210.813 141.234 -210.812 141.225 -210.811C141.234 -210.812 141.243 -210.813 141.252 -210.814C144.488 -210.808 157.852 -214.696 152.089 -213.043ZM-26.4971 4.06502C-26.2008 1.69221 -25.8177 -0.665573 -25.3253 -2.99567C-26.8294 3.61151 -27.459 12.7923 -27.5059 19.1405C-27.5198 20.1796 -27.5171 17.4827 -27.546 19.9426C-27.5576 22.4021 -27.5287 21.9275 -27.4789 25.5096C-27.5169 29.519 -26.5624 47.9785 -26.4723 54.4367C-26.44 55.9889 -26.4207 57.551 -26.4204 59.1051C-26.4802 81.3431 -17.7399 102.894 -16.7337 125.743C-18.7679 104.69 -16.898 119.229 -16.6992 128.589C-16.6742 130.302 -16.6545 131.833 -16.6401 132.922C-16.6461 134.461 -16.4525 134.219 -16.4762 159.104C-16.5327 174.915 -16.5804 160.315 -16.6503 186.691C-16.474 166.409 -16.6035 186.358 -16.6294 202.249C-16.63 202.788 -16.632 204.077 -16.6326 205.875C-16.0861 213.47 -20.1793 229.385 -24.1395 236.356C-25.6192 239.415 -28.1302 243.939 -30.5673 247.698C-32.2413 250.287 -33.557 252.212 -36.2097 255.921C-38.6523 259.324 -41.1584 262.65 -43.6641 265.958C-54.0716 279.71 -67.9136 289.712 -79.6544 301.746C-71.0998 292.966 -86.4508 308.568 -86.6737 309.629C-88.1967 311.586 -85.5886 308.081 -82.9746 305.189C-80.3742 302.289 -77.9545 299.868 -81.0638 303.078C-89.3871 311.795 -96.1161 322.176 -98.6225 333.926C-98.7068 334.306 -98.7807 334.678 -98.8442 335.042C-98.7695 334.618 -98.6919 334.245 -98.6203 333.927C-98.1577 331.961 -98.2359 332.321 -98.5985 333.932C-99.0411 335.901 -99.596 339.8 -98.2785 343.054C-97.0459 346.375 -94.0467 348.426 -92.8615 349.132C-94.0159 349.096 -81.087 354.693 -65.1969 353.883C-49.5677 353.7 -32.5318 351.594 -27.9119 351.558C-26.4889 351.51 -33.0578 351.688 -24.5632 351.44C-21.6151 351.541 -16.6777 351.261 -9.48615 354.101C-6.53258 355.444 -7.65096 354.985 -6.16747 355.802C-5.28474 356.232 0.190552 359.777 3.40398 365.562C4.01851 366.581 2.3125 363.858 2.65102 364.438C2.82793 365.02 6.3364 368.709 10.5771 384.381C8.85008 376.858 12.267 394.159 18.8339 410.028C23.4241 420.922 29.8705 430.781 32.7943 433.745C31.4417 432.199 30.1833 430.562 29.0035 428.864C35.0488 437.12 37.0291 437.749 38.7019 439.243C42.6113 442.286 48.1313 444.848 53.8881 445.513C58.9011 446.146 63.7814 446.734 67.7926 447.195C78.0613 448.357 78.1007 448.32 90.0834 449.563C87.2403 449.267 84.3982 448.962 81.557 448.649C89.8303 449.529 98.1111 450.339 106.398 451.071C87.205 449.393 110.536 451.469 112.076 451.561C114.528 451.762 111.003 451.5 115.105 451.833C115.387 451.855 115.211 451.83 116.926 451.958C117.782 452.022 119.114 452.123 121.222 452.251C134.402 452.898 132.329 452.696 137.876 452.796C138.386 452.784 136.6 452.817 146.198 452.745C176.736 452.173 146.04 452.825 144.876 452.779C143.345 452.697 153.78 453.145 127.905 452.658C136.585 452.934 137.466 452.893 138.443 452.918C139.307 452.977 154.389 452.794 155.225 452.744C162.647 452.571 156.115 452.68 157.561 452.644C158.739 452.617 176.953 452.226 181.239 452.163C182.525 452.169 183.324 452.18 183.703 452.188C184.067 452.197 184.046 452.204 183.703 452.21C181.969 452.218 171.99 452.315 161.598 452.588C159.464 452.649 175.513 452.315 176.363 452.332C179.483 452.292 181.877 452.28 183.703 452.277C194.031 452.364 186.312 452.221 190.17 452.248C192.56 452.268 200.997 452.615 193.204 452.291C211.999 452.958 200.598 452.59 201.813 452.634C203.645 452.717 210.202 452.935 211.021 452.953C212.225 452.991 208.04 452.894 212.785 453.035C213.574 453.059 221.215 453.187 211.362 452.942C224.527 453.247 223.426 453.033 227.878 453.011C236.878 452.454 234.413 452.693 237.944 452.38C241.114 452.03 242.883 451.712 243.861 451.535C245.734 451.165 244.682 451.312 244.998 451.25C248.668 451.871 271.787 439.564 277.594 436.294C275.239 437.488 259.307 446.508 255.519 447.83C249.303 450.322 253.744 448.76 258.467 446.543C263.184 444.313 268.194 441.506 263.871 443.901C267.516 441.944 271.117 439.863 274.787 437.855C281.752 434.566 271.455 438.529 290.833 430.712C292.478 430.192 288.88 431.21 285.509 432.655C282.125 434.071 278.927 435.741 280.539 434.909C281.951 434.138 288.64 431.142 292.169 430.247C293.038 429.951 293.855 429.615 293.872 429.609C293.96 429.567 293.083 429.923 292.165 430.233C289.219 431.008 284.387 433.062 285.524 432.574C286.318 432.237 288.871 431.145 292.156 430.203C302.246 426.213 319.624 419.926 297.827 428.073C300.358 427.084 302.495 426.269 304.478 425.546C305.47 425.185 306.422 424.847 307.377 424.528C307.843 424.373 308.337 424.213 308.819 424.072C309.082 423.996 309.319 423.93 309.598 423.863C309.712 423.836 309.9 423.796 310.045 423.773C310.127 423.76 310.248 423.743 310.362 423.737C310.446 423.742 310.677 423.684 311.114 423.851C313.573 424.948 314.979 427.122 316.148 429.501C317.222 431.78 314.857 426.507 313.759 425.677C312.412 424.74 318.294 427.23 320.499 447.168C320.833 447.992 317.784 431.415 316.926 431.029C316.713 430.443 317.697 433.401 317.817 433.944C320.105 435.626 322.639 476.178 321.847 484.667C321.89 483.188 321.836 488.802 321.674 495.829C321.698 505.46 316.718 516.575 315.831 518.426C315.428 519.337 316.984 515.954 316.552 516.927C314.218 523.223 304.555 538.299 299.431 544.75C293.855 552.083 294.53 551.137 294.228 551.551C291.717 554.731 293.711 552.174 292.172 554.118C291.988 554.349 291.72 554.686 291.386 555.106C287.83 560.693 270.729 574.779 269.564 575.191C269.255 575.413 272.705 572.977 268.128 576.268C267.267 576.729 268.041 576.815 253.777 585.419C236.378 595.374 265.819 578.426 258.623 582.619C247.551 589.216 247.819 588.837 244.765 590.528C243.699 591.098 235.713 595.247 226.799 599.22C233.182 596.348 239.489 593.274 245.668 589.962C240.879 592.55 232.345 596.746 226.37 599.38C224.787 600.086 223.391 600.702 222.304 601.179C219.773 602.281 221.845 601.341 216.342 603.724C215.166 604.209 210.599 606.373 224.964 600.014C226.128 599.542 219.283 602.546 216.098 603.916C215.616 604.124 213.743 605.004 209.648 606.688C208.643 607.037 219.334 602.618 191.728 613.954C190.837 614.314 193.949 613.097 193.078 613.45C192.485 613.697 185.396 616.487 184.61 616.789C183.81 617.106 187.245 615.789 186.293 616.167C181.409 618.105 174.94 620.496 185.043 616.586C181.666 617.892 178.283 619.183 174.894 620.46C178.542 619.149 169.59 622.507 164.892 624.248C134.763 635.319 154.958 627.957 149.784 629.879C141.447 632.922 147.788 630.527 135.39 634.979C134.238 635.376 149.283 630.163 119.94 640.44C124.271 638.925 128.6 637.404 132.926 635.873C130.41 636.694 117.294 641.367 116.283 641.716C104.758 645.737 112.543 643.004 95.4351 648.981C93.9068 649.515 90.5719 650.654 87.3067 651.799C73.7711 656.546 105.192 645.607 106.063 645.339C106.472 645.209 72.6738 656.947 71.5246 657.375C66.593 659.071 86.8246 652.001 82.9578 653.319C81.5152 653.723 33.4917 670.815 24.0123 674.64C12.9911 678.839 8.039 680.756 8.00662 680.877C4.87671 682.01 2.17883 683.183 0.781448 683.752C-16.0749 690.701 -16.0997 690.735 -30.3597 697.134C-33.5008 698.564 -36.1558 699.765 -37.2593 700.287C-37.9007 700.592 -36.6859 700.056 -39.8296 701.548C-44.2745 703.465 -70.1653 716.633 -71.9846 717.804C-73.9039 718.791 -61.1769 712.01 -63.4664 713.207C-72.7141 718.05 -81.4617 722.933 -90.4795 728.318C-94.2216 730.564 -92.3103 729.391 -93.9241 730.368C-94.4467 730.67 -101.637 735.127 -105.033 737.358C-106.186 738.107 -106.898 738.601 -106.763 738.511C-106.622 738.419 -106.003 737.999 -105.025 737.369C-97.456 732.07 -66.6991 714.72 -76.1344 720.1C-78.2031 721.237 -85.4735 725.355 -84.2885 724.751C-91.2903 728.804 -98.1944 733.017 -104.999 737.41C-132.658 755.785 -152.443 785.248 -161.476 817.132C-155.323 794.218 -141.554 770.32 -123.928 752.792C-121.618 750.261 -112.838 742.833 -113.893 743.755C-130.579 756.794 -146.326 778.638 -154.391 797.274C-154.656 797.868 -153.711 795.677 -154.704 797.899C-156.756 801.986 -161.457 816.041 -161.9 818.502C-162.068 818.901 -159.726 810.806 -160.473 813.256C-162.401 819.551 -162.641 821.215 -163.757 826.752C-165.558 830.919 -166.483 860.425 -163.427 867.376C-162.43 871.114 -163.965 865.939 -164.807 859.911C-165.719 853.891 -165.702 847.077 -165.677 848.166C-165.539 858.38 -163.731 868.643 -160.004 878.036C-156.501 886.942 -151.35 894.892 -145.08 901.406C-144.848 901.639 -146.82 899.577 -143.911 902.553C-138.692 907.598 -137.094 908.626 -134.25 910.755C-131.333 913.207 -119.397 919.618 -117.64 920.179C-117.425 920.285 -119.944 919.178 -120.322 918.987C-125.653 916.413 -127.326 915.22 -127.818 914.96C-129.56 913.931 -131.234 912.886 -132.737 911.858C-135.203 910.147 -136.574 909.144 -139.603 906.599C-141.666 904.804 -139.708 906.578 -141.676 904.81C-142.534 904.28 -149.556 896.557 -150.07 895.704C-150.444 895.575 -136.745 913.089 -115.279 921.275C-94.3689 930.15 -70.1862 932.093 -66.0094 932.511C-73.3618 931.824 -80.7223 930.812 -88.0343 929.344C-73.2799 932.45 -55.0985 933.242 -53.8273 933.372C2.27269 935.532 58.0097 924.815 112.674 912.307C121.756 910.2 117.762 911.192 129.932 908.305C130.886 908.078 131.94 907.829 133.107 907.553C132.047 907.797 130.987 908.042 129.928 908.288C127.03 908.96 123.623 909.753 120.698 910.426C122.425 910.023 126.035 909.174 129.92 908.256C143.855 904.923 166.799 899.894 171.395 898.939C172.165 898.779 173.217 898.477 182.397 896.576C190.546 894.903 191.867 894.695 196.232 893.84C199.897 893.125 204.013 892.326 205.102 892.122C205.938 891.964 206.273 891.926 208.285 891.551C214.637 890.378 209.477 891.263 215.798 890.181C214.263 890.465 212.728 890.752 211.194 891.041C218.859 889.621 229.355 887.807 218.054 889.848C216.112 890.204 217.776 889.877 216.328 890.141C159.713 901.06 204.882 892.136 224.785 888.637C229.887 887.686 258.599 883.038 259.568 882.975C260.899 882.787 255.98 883.549 262.437 882.614C263.775 882.274 302.338 877.246 288.456 879.085C285.585 879.42 267.108 881.918 262.667 882.614C273.129 881.072 297.712 877.863 300.489 877.603C300.576 877.593 300.661 877.583 300.743 877.574C304.202 877.184 302.992 877.329 300.746 877.597C296.582 878.097 288.857 879.041 300.752 877.647C301.758 877.531 302.904 877.402 304.206 877.259C323.586 875.238 305.385 877.071 312.838 876.287C317.024 875.794 338.996 874.019 338.395 874.025C345.938 873.439 341.526 873.817 342.457 873.748C343.368 873.671 358.198 872.575 363.012 872.255C363.596 872.216 361.761 872.384 362.365 872.344C363.54 872.269 377.838 871.24 378.411 871.188C378.776 871.159 375.366 871.375 376.766 871.265C378.4 871.147 392.149 870.102 392.904 870.017C393.976 869.934 377.003 871.245 379.828 870.986C387.657 870.429 400.394 869.359 405.544 868.839C404.282 868.971 396.706 869.635 394.073 869.841C395.311 869.713 411.572 868.246 406.017 868.792C409.547 868.44 407.135 868.653 409.122 868.443C409.643 868.391 414.659 867.895 415.624 867.782C415.75 867.771 410.573 868.267 411.608 868.152C413.487 867.986 428.673 866.318 429.908 866.129C433.403 865.727 421.04 867.223 420.005 867.33C419.861 867.367 430.39 866.195 430.547 866.16C431.17 866.148 419.456 867.475 420.798 867.347C423.697 867.038 426.594 866.711 429.489 866.365C418.339 867.839 397.599 869.666 392.247 870.108C408.887 868.806 426.229 866.83 426.201 866.911C426.196 866.963 419.047 867.789 419.324 867.762C420.385 867.704 430.304 866.51 430.667 866.449C430.968 866.414 431.106 866.399 431.106 866.401C431.113 866.458 416.966 868.09 416.254 868.141C415.064 868.287 421.376 867.692 421.367 867.704C421.15 867.746 411.061 868.806 414.469 868.484C417.919 868.179 426.743 867.182 427.051 867.137C428.741 866.987 413.304 868.706 412.839 868.725C412.598 868.763 420.898 867.931 421.139 867.902C421.348 867.893 415.046 868.589 412.561 868.858C410.71 869.065 416.109 868.54 415.16 868.637C414.485 868.738 399.867 870.102 399.146 870.143C398.076 870.241 401.504 869.97 401.006 870.02C400.299 870.093 395.574 870.484 396.19 870.441C396.656 870.445 414.968 868.849 414.848 868.843C414.646 868.932 395.256 870.673 413.304 869.107C413.43 869.098 417.816 868.636 417.938 868.621C420.646 868.358 406.595 869.915 423.78 868.047C391.801 871.424 419.81 868.56 415.084 869.115C413.261 869.351 400.847 870.512 400.788 870.505C401.999 870.435 405.952 870.052 407.299 869.941C408.041 869.893 396.932 870.914 399.434 870.714C400.73 870.631 412.522 869.531 413.007 869.467C417.672 869.018 411.956 869.619 412.982 869.53C413.664 869.481 420.773 868.736 420.957 868.709C421.258 868.693 411.61 869.743 409.597 869.935C408.069 870.095 413.812 869.554 412.745 869.661C406.319 870.345 392.617 871.448 405.821 870.383C406.627 870.319 411.615 869.84 411.762 869.824C414.847 869.554 405.664 870.449 404.021 870.609C401.203 870.912 414.407 869.673 403.427 870.711C411.668 869.986 416.259 869.548 425.88 868.437C399.226 871.346 389.796 872.155 419.426 869.288C410.007 870.277 411.055 870.199 408.244 870.476C406.496 870.663 392.813 871.777 399.096 871.376C399.885 871.333 408.19 870.56 405.591 870.83C385.65 872.566 405.171 870.908 405.191 870.894C404.95 871.192 356.181 874.695 347.815 875.283C338.1 876.001 329.482 876.781 327.374 876.965C320.438 877.567 326.191 877.034 324.639 877.157C323.06 877.233 303.369 879.25 302.395 879.417C301.672 879.497 301.225 879.545 300.973 879.57C300.547 879.612 300.677 879.589 300.971 879.548C301.418 879.485 302.244 879.381 302.05 879.402C301.765 879.433 301.401 879.474 300.968 879.523C294.204 880.219 270.508 883.36 263.594 884.431C263.823 884.405 278.624 882.318 269.389 883.661C258.639 885.253 258.013 885.276 257.73 885.305C214.959 891.792 172.523 900.4 130.422 910.375C124.248 911.839 117.599 913.413 111.379 914.846C111.717 914.806 121.579 912.515 130.429 910.404C137.559 908.709 144.043 907.219 144.365 907.149C145.951 906.806 139.486 908.279 130.435 910.429C115.339 914.078 92.5956 919.171 88.3911 920C93.4893 918.928 98.3778 917.867 103.481 916.731C94.9366 918.754 75.9431 922.721 63.4624 925.037C59.4205 925.8 67.1861 924.377 67.0102 924.406C62.5154 925.297 55.1777 926.595 60.6312 925.57C49.6189 927.587 51.1517 927.266 42.676 928.655C42.2327 928.723 45.9152 928.172 39.1444 929.251C36.0077 929.802 19.0948 932.143 16.8104 932.385C15.8802 932.519 24.4961 931.536 25.531 931.289C43.9338 928.716 31.4046 930.421 38.5276 929.362C39.6163 929.158 37.1517 929.752 55.0468 926.649C51.6197 927.42 31.025 930.625 27.4213 931.052C20.124 932.167 50.2464 927.781 55.7453 926.559C53.2104 927.074 57.8128 926.225 64.5579 924.961C71.8323 923.583 68.6384 924.21 72.6234 923.434C83.3674 921.286 78.9666 922.125 87.8015 920.323C79.1472 922.027 103.008 917.063 109.9 915.45C98.6471 918.042 87.3788 920.511 76.0435 922.79C76.6898 922.668 77.334 922.546 77.9759 922.423C75.0334 923.018 71.9976 923.618 69.0103 924.193C69.4822 924.095 69.9507 923.997 70.4392 923.895C55.055 926.9 51.2675 927.384 49.9876 927.624C33.7447 930.401 14.9006 932.999 -1.71683 934.435C-4.21046 934.591 -2.4809 934.763 -20.6889 935.738C-26.5038 935.977 -21.0222 935.73 -27.5989 935.966C-35.8573 936.282 -35.7011 936.138 -38.1461 936.162C-45.1978 936.176 -49.4963 936.019 -50.1364 936.004C-58.8801 935.756 -71.5572 934.733 -81.0343 933.174C-81.2106 933.147 -76.3301 933.946 -82.4222 932.971C-84.6002 932.622 -104.118 929.319 -119.743 921.989C-115.744 923.835 -111.458 925.503 -107.287 926.892C-109.726 926.127 -119.757 922.538 -127.34 918.17C-135.046 913.875 -140.381 909.297 -136.819 912.114C-132.516 915.679 -120.469 921.887 -119.053 922.409C-126.537 920.125 -155.424 901.714 -162.461 879.009C-166.826 867.989 -167.575 858.681 -167.796 856.918C-167.889 856.193 -167.319 860.659 -167.435 859.655C-167.852 858.91 -168.564 843.333 -168.118 841.283C-168.082 840.056 -168.302 846.92 -168.241 846.365C-168.656 845.847 -166.682 826.529 -166.101 825.507C-167.222 830.15 -168.363 843.505 -167.759 836.508C-167.698 835.601 -167.085 830.967 -166.891 829.883C-165.603 819.76 -169.565 850.018 -167.984 854.781C-170.26 835.557 -162.973 806.039 -152.145 786.755C-147.979 778.865 -158.113 798.562 -153.532 789.565C-143.444 771.219 -150.932 784.634 -150.647 784.052C-148.389 779.327 -138.126 764.869 -138.036 764.92C-133.275 759.012 -134.961 760.791 -127.68 752.917C-128.667 753.932 -129.635 754.957 -130.586 755.995C-124.885 749.257 -112.462 738.777 -106.399 735.244C-104.344 733.937 -103.219 733.243 -103.628 733.506C-104.368 733.984 -105.314 734.593 -106.375 735.28C-111.491 738.473 -118.527 744.286 -119.186 744.925C-120.296 746.142 -124.355 748.638 -136.029 762.531C-138.296 765.466 -133.909 759.779 -129.769 755.344C-125.632 750.906 -122.083 747.509 -127.852 753.361C-124.538 749.864 -116.36 741.786 -106.322 735.363C-93.4787 727.02 -79.4166 719.14 -76.1895 717.354C-75.5016 716.987 -78.7502 718.618 -68.8534 713.319C-64.1482 710.819 -75.4672 716.899 -73.3088 715.765C-67.5262 710.478 26.0214 669.655 44.7059 664.295C45.8864 663.865 45.4617 664.044 46.622 663.622C50.1818 662.315 63.186 657.622 69.5955 655.387C56.3177 660.024 82.0758 650.939 88.6459 648.684C98.6068 645.23 98.005 645.485 102.31 643.999C118.911 638.295 144.531 629.194 157.341 624.544C156.619 624.743 179.463 616.405 189.719 612.265C197.777 609.085 209.358 604.207 198.533 608.621C207.451 604.994 216.612 601.098 225.383 597.172C230.214 595.01 234.92 592.764 239.352 590.511C241.414 589.455 238.594 590.939 242.097 589.124C242.415 588.953 242.845 588.719 245.825 587.109C270.01 573.125 258.146 579.778 262.642 577.115C265.081 575.507 266.846 574.264 268.129 573.342C254.98 582.952 238.039 591.335 233.511 593.478C237.596 592.045 265.445 576.477 272.391 570.182C272.645 569.985 271.778 570.695 272.037 570.496C272.042 570.492 272.048 570.487 272.053 570.483C275.234 568.802 290.766 553.046 287.453 556.184C286.69 557.112 279.872 564.75 270.07 571.919C272.686 569.941 270.709 571.386 271.17 571.037C275.685 567.721 284.862 559.761 289.533 553.632C290.745 552.113 291.8 550.781 292.552 549.825C293.421 548.719 293.336 548.788 293.478 548.607C296.889 544.207 295.566 546.065 298.923 541.454C303.88 534.835 293.145 549.339 289.559 553.653C288.817 554.588 288.416 555.064 288.656 554.793C288.736 554.701 289.064 554.312 289.579 553.669C292.589 549.801 302.972 537.35 310.187 524.425C317.867 511.605 319.46 497.98 319.203 498.124C319.221 497.932 319.301 497.211 319.34 495.784C319.344 495.633 319.348 495.468 319.353 495.287C319.521 491.244 319.676 473.291 319.502 470.213C319.489 469.69 319.432 469.901 319.417 469.251C319.486 467.646 318.648 445.692 316.407 437.87C317.376 442.152 317.943 446.476 318.374 450.867C317.091 437.595 314.804 432.473 314.383 431.444C313.902 430.397 315.29 433.24 316.252 437.489C316.353 437.912 316.446 438.333 316.536 438.752C317.994 445.391 318.596 454.208 318.61 454.342C318.332 455.282 318.269 431.353 310.154 426.134C310.563 426.268 310.508 426.193 310.511 426.21C310.498 426.21 310.446 426.218 310.404 426.225C310.306 426.243 310.186 426.271 310.068 426.301C309.824 426.363 309.571 426.438 309.345 426.506C308.861 426.654 308.431 426.798 308.018 426.938C307.217 427.211 306.586 427.439 306.171 427.586C305.345 427.884 305.383 427.859 306.647 427.391C306.808 427.332 307.332 427.14 308.08 426.884C308.462 426.754 308.882 426.613 309.359 426.466C309.579 426.399 309.83 426.325 310.072 426.263C310.187 426.234 310.308 426.206 310.403 426.189C310.443 426.182 310.497 426.174 310.508 426.174C310.507 426.158 310.555 426.228 310.168 426.101C312.378 426.968 313.989 430.436 314.645 432.176C315.286 433.996 315.495 434.25 314.151 430.931C313.821 430.281 312.601 427.161 310.177 426.079C310.51 426.195 310.51 426.138 310.509 426.15C310.509 426.15 310.462 426.155 310.428 426.161C310.359 426.172 310.232 426.2 310.138 426.223C309.913 426.279 309.693 426.342 309.456 426.413C308.987 426.555 308.528 426.708 308.068 426.865C307.15 427.18 306.286 427.495 305.526 427.776C304.001 428.341 302.913 428.761 302.73 428.829C301.705 429.215 302.388 428.941 304.008 428.319C304.816 428.01 305.859 427.614 307.039 427.189C307.626 426.978 308.249 426.758 308.892 426.548C309.205 426.446 309.538 426.341 309.852 426.254C310.011 426.21 310.161 426.17 310.309 426.139C310.384 426.123 310.431 426.114 310.484 426.107C310.494 426.084 310.633 426.168 310.195 426.037C312.709 427.117 314.189 430.65 314.993 432.822C315.805 435.104 316.105 436.448 315.881 435.529C314.879 432.218 313.467 427.583 310.21 426.001C307.811 426.866 302.975 428.601 299.527 429.979C296.056 431.34 295.21 431.703 294.776 431.87C294.016 432.16 293.468 432.382 292.835 432.581C289.011 433.756 291.606 432.92 289.717 433.555C288.483 433.681 276.449 439.63 278.7 438.468C239.433 460.091 267.511 442.862 292.353 432.736C284.103 434.866 269.6 443.774 262.727 447.197C260.263 448.427 261.77 447.78 257.529 449.74C255.223 450.738 250.572 452.872 244.285 453.99C226.863 457.226 199.81 454.806 191.175 454.803C198.41 455.012 196.293 454.903 190.711 454.748C185.13 454.633 189.818 454.775 188.729 454.758C188.429 454.755 186.492 454.709 183.703 454.706C175.586 454.672 160.227 455.078 156.973 455.139C176.742 454.683 172.286 454.748 155.501 455.116C157.928 455.056 160.354 454.991 162.78 454.926C152.953 455.242 132.22 455.352 126.512 454.982C125.618 454.951 128.831 455.1 128.328 455.082C126.056 455.014 121.304 454.812 116.728 454.436C111.248 453.995 106.012 453.524 105.582 453.491C104.913 453.444 112.129 454.091 109.449 453.872C108.89 453.828 101.934 453.192 95.0863 452.539C92.5459 452.297 94.0727 452.472 93.433 452.412C88.0995 451.895 91.249 452.182 81.5081 451.173C74.3737 450.418 69.0564 449.878 59.2142 448.678C89.4903 452.23 67.5722 449.77 53.5735 448.033C52.5774 447.91 51.6527 447.753 50.7673 447.569C49.6733 447.33 49.5742 447.331 48.1514 446.936C46.7707 446.453 43.7686 445.904 38.1946 442.084C44.1497 446.12 47.3923 446.564 47.7743 446.779C48.2264 446.885 46.1117 446.371 43.1452 444.944C36.9257 442.374 29.3458 434.08 27.3784 430.974C27.1542 430.635 27.036 430.541 25.0667 427.494C24.9124 427.23 25.0845 427.639 23.3675 424.745C19.3907 417.797 17.6251 413.447 16.5191 411.058C13.4282 403.728 17.4353 413.228 15.6903 409.035C14.4359 406.725 9.95859 391.94 8.99742 387.956C8.74373 387.036 8.89464 387.453 7.90588 383.926C6.1687 377.696 4.21426 372.284 2.2281 368.615C1.86331 368.309 2.5249 367.736 -2.54457 361.815C-4.06079 360.237 -6.00903 358.756 -3.65756 360.762C4.8549 367.453 8.6627 388.294 12.3553 399.831C15.354 410.567 6.03136 376.687 5.08119 375.245C4.87267 374.623 7.12285 380.965 4.8354 374.525C2.99898 369.083 -2.42534 359.27 -10.6799 356.403C-11.1974 355.96 -17.805 354.296 -17.5202 354.483C-17.3786 354.502 -14.7154 354.908 -12.3824 355.7C-10.0515 356.452 -8.11688 357.548 -8.77718 357.182C-8.86 356.915 -15.068 354.711 -16.0196 354.708C-17.0239 354.464 -19.8685 353.942 -21.35 353.873C-24.7145 353.711 -22.9594 353.819 -24.5632 353.795C-24.6895 353.796 -24.8403 353.796 -25.0228 353.797C-30.1704 353.744 -48.303 355.489 -48.8941 355.491C-45.8941 355.271 -42.8915 355.021 -39.9146 354.772C-56.5567 356.142 -49.4704 355.54 -51.8308 355.741C-54.3811 355.907 -53.6647 355.861 -59.3073 356.111C-60.5115 356.631 -84.2718 355.606 -83.8061 354.877C-70.7204 356.8 -75.5619 355.846 -74.9615 356.042C-72.6531 356.211 -69.7177 356.29 -66.6373 356.29C-45.0044 355.711 -66.8138 356.428 -61.7079 356.28C-59.9494 356.242 -56.4522 356.052 -55.7102 356.008C-53.2849 355.876 -53.2607 355.902 -51.6392 355.793C-47.8848 355.526 -52.2691 355.786 -51.9757 355.761C-48.6103 355.541 -35.4932 354.45 -43.6582 355.188C-38.7433 354.798 -38.2172 354.68 -34.3156 354.394C-26.6143 353.868 -38.1343 354.713 -41.2766 355.014C-52.5425 355.864 -55.8629 356.589 -71.9654 356.3C-77.7696 356.142 -84.6441 355.044 -87.2786 354.197C-88.0969 353.941 -92.5739 352.773 -96.1498 349.921C-99.9093 347.155 -101.169 342.518 -101.243 342.342C-101.901 339.785 -101.823 336.562 -101.075 333.38C-100.006 328.609 -98.1297 323.749 -96.3775 320.236C-93.709 315.084 -94.5348 316.731 -94.298 316.243C-93.9559 315.48 -90.0592 309.64 -88.5203 307.841C-86.7811 305.687 -87.7109 306.707 -84.8221 303.404C-77.4087 295.41 -77.3533 295.893 -76.5922 295.074C-67.0903 286.31 -71.2749 290.132 -69.1701 288.187C-67.9233 286.868 -53.8821 275.257 -45.7686 264.363C-41.9681 259.368 -38.8148 255.06 -37.4124 253.052C-39.2389 255.651 -41.1207 258.218 -43.0245 260.774C-39.5539 256.246 -36.1419 251.28 -36.038 251.224C-35.3904 250.265 -28.9832 240.467 -27.5092 237.285C-26.877 236.061 -26.9364 236.15 -26.1813 234.601C-22.7909 228.684 -19.1761 213.909 -19.3946 210.216C-19.2345 202.362 -18.8395 208.534 -20.3091 216.88C-21.6749 225.284 -26.4796 235.16 -27.2579 236.529C-25.718 233.753 -21.4017 224.008 -20.2771 216.378C-19.0864 208.799 -19.2484 203.939 -19.7411 212.129C-19.9637 214.658 -20.7787 219.088 -21.1531 220.465C-23.7804 229.762 -21.7125 222.448 -21.9194 223.179C-22.2123 224.434 -24.3566 230.434 -25.1123 231.949C-25.3996 232.436 -23.7156 229.224 -27.8532 237.508C-26.8615 235.606 -23.6669 229.391 -21.7805 222.59C-19.7773 215.813 -19.3894 208.587 -19.4387 205.875C-19.4389 205.549 -19.4393 205.287 -19.4397 205.094C-19.4327 203.859 -19.5559 211.602 -19.4032 188.978C-19.4116 189.24 -19.42 189.503 -19.4283 189.765C-19.379 177.168 -19.2962 164.577 -19.3109 151.99C-19.2923 153.358 -19.2587 160.425 -19.2681 151.524C-19.2807 146.4 -19.3116 150.191 -19.3133 149.724C-19.3235 148.341 -19.3175 140.017 -19.4791 128.629C-19.4282 107.77 -30.0988 77.2627 -29.2387 59.1051C-29.2433 54.61 -29.3798 51.0135 -29.4594 48.7625C-29.6666 43.4239 -30.3611 28.4397 -30.3183 27.2826C-30.7063 21.1736 -29.9101 0.829559 -27.4045 -6.60846C-27.1857 -7.45103 -27.0069 -8.1351 -26.8804 -8.6188C-26.1137 -11.5383 -26.8772 -8.77223 -26.184 -11.3793C-25.538 -13.7913 -26.1771 -11.2841 -25.9843 -12.0002C-24.7967 -18.0546 -10.8776 -62.8081 -6.04961 -72.9093C-8.95844 -66.7254 -19.7207 -34.5405 -19.2837 -35.1225C-19.2513 -35.2642 -16.7495 -43.1261 -16.2143 -44.7343C-15.3321 -47.4045 -12.2873 -56.5573 -10.4234 -61.4671C-10.2005 -62.0178 -11.0382 -59.8336 -7.66158 -68.574C-6.48956 -71.5804 -3.38412 -79.4478 0.194595 -87.173C3.55177 -95.7019 21.7633 -129.821 36.2728 -145.04C40.9357 -150.353 44.5225 -153.927 45.2995 -154.742C45.368 -154.861 39.0278 -148.26 43.2967 -152.749C49.0475 -158.614 43.8564 -153.354 50.7241 -160.02C51.5581 -161.272 71.8082 -178.497 72.7107 -178.778C79.0453 -183.762 60.7113 -169.468 61.0981 -169.5C61.5972 -170.175 76.7613 -182.144 77.5143 -182.458C78.1155 -182.901 65.4281 -173.552 80.7425 -184.695C78.9569 -183.46 77.1921 -182.202 75.4403 -180.917C82.6302 -186.18 83.436 -186.512 85.22 -187.727C90.835 -191.393 96.9536 -195.367 106.677 -200.038C109.253 -201.253 105.003 -199.176 105.327 -199.319C108.408 -200.812 112.338 -202.744 117.172 -204.547C117.575 -204.545 106.201 -200.72 126.056 -207.525C124.674 -207.127 123.275 -206.691 121.915 -206.238C123.781 -206.948 133.829 -210.011 141.273 -210.606C144.622 -210.946 147.292 -211.612 148.164 -211.809C156.071 -213.859 149.167 -211.962 157.149 -214.227C153.128 -213.062 166.882 -217.449 173.197 -217.106C174.936 -217.128 175.972 -217.133 175.643 -217.118C179.173 -217.27 200.642 -217.301 210.726 -217.204C214.676 -217.181 221.173 -217.142 226.017 -217.111C228.978 -217.093 231.325 -217.074 232.092 -217.064C234.557 -217.032 233.807 -217.006 238.26 -216.926C239.525 -216.886 252.806 -216.796 264.438 -215.624C266.693 -215.413 271.409 -214.789 267.225 -215.244C260.064 -216.08 246.476 -216.668 246.65 -216.592C246.85 -216.637 265.15 -215.685 270.044 -214.881C292.598 -211.418 279.549 -213.274 280.143 -213.27C281.662 -213.102 293.804 -210.215 294.27 -209.93C296.349 -209.352 287.81 -211.661 287.66 -211.602C287.529 -211.734 299.078 -208.393 296.442 -209.118C292.735 -210.401 281.964 -212.854 281.26 -212.897C272.287 -214.452 284.585 -212.299 287.901 -211.355C288.915 -211.111 284.863 -212.029 285.704 -211.83C298.502 -208.619 288.46 -211.378 296.896 -208.93C304.34 -206.469 294.752 -209.6 295.019 -209.451C295.232 -209.388 298.302 -208.467 301.084 -207.461C303.139 -206.728 305.031 -205.962 305.607 -205.719C305.807 -205.63 303.884 -206.435 301.071 -207.426C294.633 -209.852 283.269 -212.306 283.951 -212.086C289.74 -210.884 295.464 -209.33 301.043 -207.346C302.786 -206.726 304.505 -206.065 306.212 -205.359C306.495 -205.212 303.853 -206.327 301.036 -207.328C298.439 -208.264 295.701 -209.104 295.168 -209.259C292.943 -209.929 299.13 -208 298.85 -208.039C298.714 -208.109 291.443 -210.326 297.993 -208.261C298.726 -208.019 299.718 -207.691 301.003 -207.236C303.648 -206.294 307.53 -204.829 312.725 -202.276C307.122 -204.986 303.321 -206.371 300.992 -207.203C295.554 -209.043 298.058 -208.194 300.977 -207.162C302.849 -206.491 304.855 -205.682 305.109 -205.572C305.531 -205.403 302 -206.772 300.958 -207.11C300.632 -207.222 300.561 -207.243 300.955 -207.101C301.661 -206.827 303.9 -206.103 308.694 -203.999C309.334 -203.589 308.368 -204.195 303.79 -205.99C299.671 -207.53 305.497 -205.335 300.926 -207.019C299.222 -207.612 296.095 -208.756 290.339 -210.267C290.984 -210.083 296.205 -208.701 300.916 -206.99C305.005 -205.539 308.684 -203.877 309.081 -203.696C309.822 -203.372 306.211 -204.926 307.493 -204.36C322.452 -197.229 312.176 -202.12 316.45 -199.945C316.892 -199.857 330.391 -191.933 320.088 -197.92C312.134 -202.406 305.752 -205.084 300.859 -206.831C294.1 -209.209 290.24 -210.06 288.177 -210.503C292.328 -209.486 296.663 -208.214 300.823 -206.729C312.322 -202.674 322.146 -196.687 325.204 -194.856C331.561 -190.934 324.967 -194.983 325.744 -194.489C326.026 -194.338 331.469 -190.901 331.531 -190.84C334.918 -188.542 313.565 -202.826 300.822 -206.726C299.196 -207.307 297.758 -207.778 296.604 -208.139C298.015 -207.686 299.418 -207.208 300.813 -206.702C302.058 -206.25 303.29 -205.777 304.512 -205.282C303.287 -205.77 302.053 -206.236 300.805 -206.681C298.466 -207.514 296.102 -208.273 293.718 -208.961C297.724 -207.788 299.865 -206.995 300.8 -206.665C301.624 -206.366 301.494 -206.41 300.797 -206.657C298.876 -207.384 292.453 -209.347 289.953 -209.889C288.971 -210.139 300.472 -207.123 287.335 -210.493C296.287 -208.211 294.328 -208.678 300.757 -206.545C301.287 -206.358 301.87 -206.147 302.515 -205.906C302.473 -205.915 301.835 -206.152 300.753 -206.533C295.861 -208.493 281.336 -212.035 274.765 -212.793C297.52 -208.604 291.09 -209.433 300.742 -206.504C302.896 -205.729 305.843 -204.62 309.955 -202.718C314.117 -200.882 303.426 -205.653 304.267 -205.199C307.47 -203.982 314.839 -200.736 323.213 -195.821C324.571 -195.012 318.879 -198.526 327.333 -193.38C328.273 -192.816 333.553 -189.365 333.473 -189.402C332.766 -189.848 327.512 -193.22 327.279 -193.331C327.077 -193.466 332.949 -189.722 332.958 -189.693C333.124 -189.555 328.067 -192.828 328.795 -192.341C330.377 -191.308 351.386 -177.687 323.859 -195.289C346.76 -180.721 327.047 -193.863 317.717 -198.826C315.341 -200.093 314.738 -200.41 311.28 -202.07C307.694 -203.782 303.502 -205.484 300.727 -206.46C300.06 -206.698 299.479 -206.898 299.011 -207.056C297.994 -207.396 299.632 -206.842 300.72 -206.441C301.58 -206.124 302.1 -205.927 300.713 -206.423C299.362 -206.878 296.244 -208.071 289.698 -209.768C292.858 -208.949 296.678 -207.841 300.705 -206.4C310.892 -202.878 321.962 -196.558 328.742 -192.181C347.828 -179.725 315.434 -200.905 311.375 -201.836C310.411 -202.301 313.626 -200.711 312.983 -201.018C312.43 -201.296 306.583 -204.198 300.66 -206.273C295.497 -208.132 290.353 -209.44 289.376 -209.672C287.298 -210.23 297.111 -207.574 297.713 -207.239C298.287 -207.603 272.534 -213.376 286.481 -210.285C290.431 -209.384 295.704 -207.956 300.632 -206.194C307.69 -203.716 313.946 -200.478 315.515 -199.608C310.7 -202.122 305.733 -204.343 300.621 -206.163C292.108 -209.197 283.25 -211.215 274.297 -212.523C282.138 -211.345 289.899 -209.627 297.415 -207.154C281.942 -212.093 267.823 -213.688 252.398 -214.458C289.427 -211.591 240.38 -215.412 239.785 -214.791C239.608 -214.834 254.235 -214.297 256.573 -214.05C249.475 -214.561 234.362 -214.806 225.999 -214.815C219.434 -214.849 217.05 -214.844 225.999 -214.738C226.395 -214.733 226.814 -214.728 227.256 -214.723C226.88 -214.728 226.457 -214.732 225.999 -214.736C221.327 -214.782 212.919 -214.8 213.041 -214.794C213.736 -214.77 220.484 -214.719 225.998 -214.673C230.718 -214.636 234.528 -214.586 232.863 -214.589C230.905 -214.591 228.579 -214.613 225.998 -214.64C223.063 -214.67 219.8 -214.711 216.374 -214.733C189.108 -214.865 190.518 -214.699 173.239 -214.466C169.698 -214.417 165.364 -213.792 159.838 -212.273C160.47 -212.436 161.101 -212.595 161.732 -212.746C155.192 -211.106 148.621 -208.652 141.537 -207.956C112.85 -204.436 87.4745 -187.555 65.2233 -169.372C59.2717 -164.388 48.1023 -154.414 38.3502 -143.22C30.4657 -134.245 23.715 -124.363 19.4147 -117.423C17.3079 -114.388 8.5634 -98.5162 8.06627 -97.2321C6.87006 -95.0002 13.3226 -107.34 10.3733 -101.781C9.40581 -100.781 -3.35536 -72.8444 -2.22871 -74.747C-0.951248 -77.9453 3.4133 -87.7912 4.20975 -89.3657C7.51768 -101.401 -25.0798 -12.4241 -24.2842 -7.20111C-23.7419 -9.23032 -23.1907 -11.2597 -22.6312 -13.2848C-23.2996 -10.8225 -23.9592 -8.34068 -24.6004 -5.88042C-25.4488 -2.62518 -26.0604 0.707321 -26.4971 4.06502ZM128.294 -208.295C130.841 -209.021 136.324 -210.269 141.261 -210.727C142.999 -210.9 144.644 -211.18 146.026 -211.463C152.992 -213.016 165.183 -216.805 159.95 -215.185C153.608 -213.5 147.524 -211.339 141.261 -210.724C136.868 -210.28 132.536 -209.43 128.294 -208.295ZM10.0827 -107.171C13.664 -113.519 10.9045 -108.586 8.07971 -103.321C7.78 -102.729 5.38509 -98.496 10.0827 -107.171ZM57.7013 -166.539C57.4587 -166.348 52.7917 -162.109 52.6418 -161.946C48.4415 -158.168 62.5249 -170.916 57.7013 -166.539ZM-19.3096 176.749C-19.2761 168.758 -19.371 174.545 -19.3668 179.513C-19.3665 179.826 -19.3119 177.275 -19.3096 176.749ZM-19.282 171.065C-19.1889 164.86 -19.2966 152.363 -19.3025 162.298C-19.3017 163.261 -19.2851 171.353 -19.282 171.065ZM23.8087 -129.25C23.3328 -128.583 19.0974 -122.347 17.4203 -119.609C17.4247 -119.712 21.9543 -126.691 23.8087 -129.25ZM-29.3799 50.1652C-29.2961 50.5052 -30.4951 24.4968 -30.3261 22.6808C-30.452 26.8395 -29.344 49.8867 -29.3799 50.1652ZM-20.361 116.216C-20.378 115.564 -21.8273 106.764 -21.8385 107.027C-21.013 111.315 -19.9971 119.132 -20.361 116.216ZM-32.2871 245.143C-32.6198 245.508 -28.6393 240.119 -37.6288 253.152C-38.9681 255.053 -34.2372 248.224 -34.7323 248.891C-35.7016 250.319 -36.4863 251.44 -37.1199 252.34C-32.8235 246.328 -29.0359 239.713 -28.7065 239.056C-26.9761 236.059 -32.0827 245.01 -32.2871 245.143ZM-78.2925 296.537C-79.4394 297.558 -86.2638 304.695 -87.6118 306.524C-87.8471 306.832 -86.8612 305.454 -89.6107 308.978C-91.7309 311.878 -88.6113 307.509 -92.5999 313.264C-96.3796 319.259 -91.376 311.22 -91.6503 311.78C-92.3196 312.333 -97.6583 321.936 -97.3499 321.717C-97.4857 321.361 -91.6315 311.122 -89.6401 308.982C-87.3492 306.067 -90.2261 309.517 -86.2567 304.768C-83.6897 301.853 -85.0645 303.513 -84.5188 302.902C-84.1632 302.276 -74.5527 292.792 -78.3076 296.551C-78.3026 296.547 -78.2975 296.542 -78.2925 296.537ZM-38.2738 253.97C-37.9512 253.516 -37.5732 252.984 -37.1199 252.34C-37.5038 252.887 -37.8894 253.432 -38.2738 253.97ZM108.45 -200.897C104.991 -199.31 115.218 -204.13 119.313 -205.447C119.352 -205.564 108.959 -201.258 108.45 -200.897ZM-42.289 259.53C-48.9461 268.305 -43.9806 261.88 -38.2738 253.97C-40.0747 256.489 -40.0822 256.57 -42.289 259.53ZM-16.2143 -44.7343C-16.3637 -44.2928 -16.4618 -44.014 -16.4839 -43.9819C-16.0917 -45.1425 -16.05 -45.2449 -16.2143 -44.7343ZM-23.7088 -20.0612C-26.0591 -11.5314 -21.2094 -28.8263 -21.212 -28.7143C-21.2505 -28.6649 -23.6301 -20.3989 -23.7088 -20.0612ZM-19.3616 187C-19.3542 186.194 -19.31 198.73 -19.3023 180.528C-19.3608 190.242 -19.323 179.994 -19.3325 180.145C-19.3615 180.541 -19.412 196.86 -19.4224 200.474C-19.3853 203.304 -19.3895 189.664 -19.3617 187.021C-19.3616 187.014 -19.3616 187.007 -19.3616 187ZM-31.4518 354.433C-33.6586 354.595 -40.5947 355.191 -45.3458 355.575C-43.1622 355.383 -36.1057 354.753 -31.4518 354.433ZM-88.4043 931.89C-104.453 928.683 -112.959 924.869 -114.309 924.386C-115.579 923.726 -109.764 926.73 -95.2397 930.349C-94.6462 930.546 -86.4741 932.289 -88.4043 931.89ZM-88.5696 724.173C-85.9034 722.662 -94.6545 727.788 -100.292 731.323C-101.573 732.114 -106.307 735.057 -100.932 731.65C-101.083 731.794 -92.7041 726.632 -88.5696 724.173ZM-46.0087 264.516C-47.8081 267.128 -54.3573 274.397 -58.1581 277.925C-55.8431 275.766 -48.6591 268.21 -46.0087 264.516ZM-166.175 866.645C-166.916 863.252 -167.261 860.938 -167.182 861.531C-166.845 864.194 -165.308 870.506 -166.175 866.645ZM-28.2008 238.319C-27.826 238.009 -34.5546 249.094 -35.2309 249.743C-33.5684 247.502 -28.2657 238.644 -28.2008 238.319ZM-40.3257 355.127C-42.3796 355.297 -31.8251 354.35 -28.7269 354.234C-28.9323 354.211 -38.9853 355.003 -40.3257 355.127ZM-162.587 811.69C-161.716 808.717 -158.995 801.499 -158.647 800.717C-158.345 799.695 -162.306 810.296 -162.587 811.69ZM314.444 878.326C314.762 878.299 306.724 879.129 301 879.805C299.822 879.942 298.741 880.068 297.849 880.171C293.291 880.703 296.334 880.318 300.996 879.77C306.478 879.117 314.218 878.342 314.444 878.326ZM-152.687 896.392C-146.594 904.101 -153.407 895.588 -153.113 895.891C-149.505 901.539 -137.103 912.418 -145.399 904.73C-147.002 903.213 -150.878 898.909 -152.687 896.392ZM-157.647 888.826C-158.266 887.89 -161.436 881.717 -158.676 887.08C-157.335 889.602 -154.874 893.456 -157.647 888.826ZM241.808 888.075C233.259 889.354 272.412 883.253 273.562 883.251C274.158 883.171 274.549 883.121 274.772 883.093C276.211 882.876 283.629 881.885 284.493 881.809C282.267 882.09 276.196 882.91 275.491 883.007C275.187 883.047 274.96 883.077 274.804 883.097C272.179 883.398 243.432 887.736 241.808 888.075ZM177.265 900.126C186.938 898.056 188.679 897.824 187.843 897.991C177.298 900.181 184.166 898.71 183.841 898.772C183.102 898.913 175.619 900.503 177.295 900.12C177.285 900.122 177.275 900.124 177.265 900.126ZM228.535 890.303C228.934 890.226 237.12 888.832 237.458 888.783C244.172 887.669 221.01 891.621 228.535 890.303ZM-101.045 343.09C-98.2865 349.049 -101.855 343.389 -101.744 338.977C-101.75 338.809 -101.745 338.443 -101.73 338.801C-101.673 339.135 -101.831 340.319 -101.045 343.09ZM-159.911 884.579C-160.055 884.27 -161.115 882.172 -162.38 878.977C-166.952 869.316 -168.472 849.064 -168.182 850.715C-168.372 852.618 -166.604 869.728 -162.407 878.988C-160.196 884.483 -158.469 887.378 -159.911 884.579ZM-23.0683 691.047C-28.7674 693.571 -22.578 690.765 -19.518 689.46C-18.3846 688.975 -21.6314 690.412 -23.0683 691.047ZM-21.5592 222.31C-20.0683 216.154 -20.2345 217.457 -21.6551 222.769C-21.7156 222.976 -21.6244 222.55 -21.5592 222.31ZM-67.9262 712.677C-48.8099 702.82 -53.4514 704.935 -78.0331 718.266C-77.2733 717.834 -76.5104 717.402 -75.7474 716.973C-103.79 732.963 -77.7661 717.886 -70.7549 714.228C-68.1112 712.805 -70.3425 713.971 -67.9446 712.687C-67.9385 712.684 -67.9324 712.681 -67.9262 712.677ZM7.16512 678.403C26.4491 670.894 -10.3402 685.295 -20.6436 690.044C-10.5903 685.61 2.63249 680.143 -15.3186 687.65C10.9075 676.632 0.0359039 681.332 1.0699 680.86C2.31639 680.356 6.34331 678.723 7.16512 678.403ZM-42.9166 700.136C-44.0016 700.641 -52.1259 704.556 -55.0212 706.033C-51.0012 703.909 -35.7477 696.706 -42.9166 700.136ZM110.161 915.369C110.945 915.157 112.546 914.776 119.623 913.129C117.442 913.657 113.078 914.687 110.161 915.369ZM135.09 -209.675C136.796 -209.991 139.121 -210.344 141.278 -210.555C145.139 -210.945 148.429 -211.836 146.564 -211.417C146.415 -211.39 143.901 -210.831 141.276 -210.575C138.232 -210.281 135.097 -209.685 135.09 -209.675ZM-151.117 785.08C-151.096 783.859 -135.78 761.459 -141.124 769.157C-143.214 771.175 -155.439 792.636 -151.117 785.08ZM-135.821 912.734C-137.791 911.51 -144.802 905.445 -144.874 905.217C-145.454 904.932 -136.789 912.323 -135.821 912.734ZM159.096 -214.734C159.575 -215.139 172.265 -217.472 173.198 -217.046C173.254 -217.048 173.257 -217.049 173.198 -217.049C173.177 -217.049 173.149 -217.048 173.112 -217.048C169.779 -217.491 156.879 -214.255 159.096 -214.734ZM-82.941 355.198C-81.6539 355.438 -80.0396 355.692 -79.5832 355.748C-78.5441 356.476 -55.4769 356.4 -64.2906 356.485C-65.0112 356.444 -73.6945 356.868 -82.7283 355.295C-87.2346 354.496 -91.7857 353.061 -95.0895 350.801C-98.4413 348.595 -100.014 345.66 -100.453 344.606C-100.765 343.702 -99.6732 347.173 -96.4723 349.738C-93.3815 352.363 -88.9764 353.773 -87.28 354.241C-86.7038 354.382 -86.2684 354.558 -82.9515 355.196C-82.948 355.197 -82.9445 355.198 -82.941 355.198ZM146.142 906.931C147.108 906.632 173.347 900.85 173.059 900.993C164.071 902.902 155.099 904.884 146.142 906.931ZM132.845 910.01C127.26 911.307 140.327 908.218 144.19 907.355C144.233 907.357 133.657 909.814 132.845 910.01ZM-164.907 871.102C-165.691 868.477 -163.307 876.56 -163.848 874.754C-164.29 873.625 -165.914 867.717 -166.264 865.794C-166.421 865.261 -165.035 871.353 -164.432 873.065C-163.653 875.513 -164.399 873.137 -163.507 875.792C-163.134 876.868 -162.742 877.923 -162.332 878.958C-159.349 886.45 -155.677 892.725 -150.821 898.708C-150.328 899.324 -154.151 894.549 -149.911 899.769C-149.247 900.537 -145.239 905.427 -138.918 910.388C-124.69 920.991 -112.434 926.369 -90.6388 931.276C-91.4907 931.302 -107.677 926.902 -108.522 926.355C-126.717 921.675 -155.352 900.349 -161.519 880.771C-161.852 879.989 -162.093 879.391 -162.274 878.935C-163.151 876.679 -162.664 878.001 -163.287 876.293C-163.825 874.659 -163.249 876.624 -164.907 871.102ZM132.511 -209.136C133.902 -209.418 137.486 -210.145 141.282 -210.517C143.632 -210.749 146.041 -211.221 148.005 -211.683C147.087 -211.491 144.384 -210.848 141.279 -210.539C138.277 -210.246 134.932 -209.664 132.511 -209.136ZM14.2259 932.703C11.6273 933.026 3.52104 933.859 2.85391 933.921C1.99318 934.045 13.6869 932.822 14.2259 932.703ZM13.5795 403.631C13.6172 403.883 15.899 409.845 16.0451 410.047C18.0765 415.374 11.2714 397.497 13.5795 403.631ZM142.438 455.384C147.227 455.363 152.051 455.259 153.658 455.26C150.613 455.329 141.877 455.42 142.438 455.384ZM318.783 456.557C318.839 455.57 319.469 469.873 319.412 472.6C319.456 471.592 318.9 457.268 318.783 456.557ZM109.108 915.48C117.679 913.509 115.895 913.852 121.316 912.61C122.132 912.42 125.204 911.838 115.622 914.03C113.925 914.413 120.573 912.85 109.108 915.48ZM-82.0006 720.5C-83.9402 721.625 -90.0018 725.129 -94.0476 727.589C-93.1583 727.004 -84.9412 722.147 -82.0006 720.5ZM186.173 -217.138C190.301 -217.151 209.363 -217.121 204.646 -217.158C203.976 -217.175 188.849 -217.17 186.173 -217.138ZM-60.9967 280.783C-66.7125 286.11 -54.7602 275.185 -51.5075 271.288C-52.9705 273.06 -60.5704 280.461 -60.9967 280.783ZM295.857 431.521C296.212 431.379 303.952 428.366 304.302 428.256C310.66 425.839 288.744 434.301 295.857 431.521ZM92.8739 452.379C95.3785 452.619 109.608 453.946 116.722 454.51C118.087 454.623 119.192 454.702 119.902 454.753C119.273 454.716 118.154 454.645 116.72 454.533C108.472 453.931 89.715 452.11 92.8739 452.379ZM73.7054 923.101C79.8233 921.888 85.7118 920.67 91.3347 919.47C90.1295 919.781 74.3724 923.015 73.7054 923.101ZM316.252 437.489C316.353 437.912 316.446 438.333 316.536 438.752C316.442 438.314 316.348 437.893 316.252 437.489ZM-66.1306 934.853C-71.3841 934.34 -70.2827 934.458 -69.9663 934.502C-66.045 934.945 -60.1428 935.369 -66.1306 934.853ZM138.516 -210.15C139.008 -210.209 140.003 -210.339 141.287 -210.465C144.707 -210.73 150.206 -212.109 153.778 -213.161C152.61 -212.856 145.906 -210.864 141.285 -210.483C140.223 -210.377 139.269 -210.256 138.516 -210.15ZM27.8513 670.459C34.0385 668.132 8.92456 677.753 3.6908 679.93C3.26855 680.004 26.9235 670.737 27.8513 670.459ZM-44.6729 263.04C-44.3073 262.649 -37.6501 253.584 -39.085 255.494C-39.9592 256.725 -44.8678 263.284 -44.6729 263.04ZM-8.82877 685.055C-11.1592 686.034 -16.5864 688.326 -14.6852 687.496C-12.246 686.428 -8.22748 684.8 -8.82877 685.055ZM-167.083 832.436C-167.152 831.284 -164.051 816.638 -165.387 822.676C-166.311 826.871 -166.336 827.565 -166.518 828.554C-167.095 829.621 -169.151 853.612 -167.083 832.436ZM169.585 619.888C164.352 621.872 158.002 624.207 152.495 626.21C154.738 625.391 167.355 620.722 169.585 619.888ZM-75.112 293.747C-74.0189 292.827 -46.9651 267.73 -62.2835 282.036C-63.1525 282.863 -78.2122 296.487 -75.112 293.747ZM109.108 915.48C107.99 915.736 106.751 916.017 105.331 916.336C106.741 916.018 107.982 915.737 109.108 915.48ZM10.695 933.039C12.712 932.807 2.54372 933.896 -0.460571 934.149C-1.38229 934.283 10.4224 933.103 10.695 933.039ZM152.086 626.387C148.92 627.552 143.15 629.618 139.214 631.02C139.876 630.773 150.713 626.876 152.086 626.387ZM319.516 483.205C319.473 487.646 319.35 492.839 319.298 495.784C319.273 497.23 319.186 498.154 319.193 498.194C319.179 498.329 319.15 498.644 319.092 499.168C319.151 499.705 317.909 506.637 316.807 509.525C314.012 516.495 318.933 507.091 319.279 495.783C319.686 478.84 319.604 459.311 319.446 490.629C319.482 488.147 319.507 485.667 319.516 483.205ZM66.37 449.487C62.5882 449.032 51.9966 447.759 54.7429 448.107C56.6537 448.368 70.1539 449.96 66.37 449.487ZM212.65 455.461C211.506 455.449 201.094 455.082 200.828 455.081C206.801 455.359 217.845 455.616 212.65 455.461ZM38.0211 441.776C36.0067 440.36 33.7056 438.236 33.9173 438.433C35.6138 440.284 41.4145 444.142 38.0211 441.776ZM91.2824 919.327C87.8044 920.079 76.6893 922.407 74.2902 922.896C73.8367 922.981 72.6206 923.216 70.359 923.647C70.3659 923.646 70.3728 923.645 70.3797 923.644C67.5996 925.252 -23.3548 937.783 37.6207 929.403C39.5186 929.106 36.9363 929.506 44.682 928.265C45.192 928.182 45.4506 928.162 47.0202 927.902C50.6976 927.355 69.9174 923.848 73.8233 923C73.8571 922.998 74.1086 922.952 74.6406 922.849C79.3096 921.983 93.9806 918.768 91.2824 919.327ZM233.379 455.166C231.273 455.35 224.605 455.567 223.916 455.569C227.22 455.642 238.27 454.832 233.379 455.166ZM-74.216 293.017C-71.0625 290.107 -63.0433 282.872 -65.4814 285.044C-66.9796 286.355 -77.8656 296.339 -74.216 293.017ZM166.94 454.845C191.381 454.455 172.774 454.734 176.517 454.644C173.326 454.695 170.134 454.766 166.94 454.845ZM201.833 895.032C198.004 895.768 202.491 894.837 206.716 894.067C208.041 893.825 203.976 894.62 201.833 895.032ZM376.417 873.304C373.091 873.506 389.32 872.323 382.998 872.829C382.704 872.854 376.655 873.29 376.417 873.304ZM254.074 885.896C251.464 886.335 249.76 886.591 242.399 887.781C253.294 886.016 243.181 887.596 254.074 885.896ZM319.203 498.124C319.198 498.165 319.194 498.201 319.193 498.194C319.198 498.147 319.201 498.127 319.203 498.124ZM23.0218 423.977C21.4304 421.307 17.7178 413.502 18.8058 415.835C18.868 416.079 22.3085 422.914 23.0218 423.977ZM74.2902 922.896C74.6913 922.822 74.4887 922.865 73.8233 923C73.7915 923.003 73.9632 922.965 74.2902 922.896ZM60.2427 448.716C59.934 448.712 72.9219 450.231 73.445 450.273C80.9077 451.065 65.6008 449.382 60.2427 448.716ZM-22.3526 225.708C-22.1329 225.081 -23.5621 229.119 -24.6225 231.528C-25.4135 233.406 -23.0718 228.093 -22.3526 225.708ZM279.128 882.264C283.225 881.711 288.999 880.979 290.067 880.873C287.318 881.204 279.044 882.288 279.128 882.264ZM370.062 873.727C365.185 874.107 354.042 874.885 346.932 875.407C346.796 875.367 365.482 874.061 370.062 873.727ZM102.28 916.923C101.903 917.016 91.8183 919.221 93.1897 918.943C95.2075 918.555 105.151 916.297 102.28 916.923ZM-30.9618 243.622C-33.3692 247.55 -27.6695 238.593 -25.762 234.132C-24.5994 231.934 -30.3929 243.043 -30.9618 243.622ZM12.2995 399.215C10.4516 393.336 14.9712 407.94 16.104 409.828C14.9343 407.216 12.9153 401.315 12.2995 399.215ZM195.445 454.784C176.205 454.245 186.684 454.645 190.093 454.68C190.575 454.68 195.916 454.797 195.445 454.784ZM234.069 -216.771C236.504 -216.754 228.681 -216.873 226.015 -216.877C225.688 -216.878 225.439 -216.878 225.295 -216.876C225.098 -216.874 225.408 -216.867 226.015 -216.859C227.917 -216.835 232.743 -216.784 234.069 -216.771ZM268.129 573.342C268.784 572.869 269.434 572.392 270.07 571.919C269.594 572.275 268.962 572.742 268.129 573.342ZM-14.3564 354.887C-7.97452 356.671 -5.80736 358.871 -4.65376 359.677C-3.55385 360.579 -3.59628 360.551 -3.18088 360.935C-1.31364 362.538 2.08253 367.252 3.87364 371.641C1.71805 366.709 -1.2928 362.085 -5.60033 358.994C-3.65182 359.868 3.29176 367.671 6.01469 377.445C9.04094 386.958 11.326 396.41 11.5449 396.756C11.8422 397.852 8.67635 386.366 8.59367 386.039C8.46605 385.561 8.03763 383.755 7.73386 382.7C7.39203 381.903 5.57861 373.595 1.12355 366.282C-3.15395 358.603 -12.0329 355.281 -14.3564 354.887ZM155.157 455.041C158.261 454.986 159.144 454.992 160.584 454.953C161.075 454.94 161.154 454.911 162.83 454.866C160.273 454.927 157.716 454.987 155.157 455.041ZM-38.2492 354.66C-41.9504 354.932 -26.1338 353.608 -24.5632 353.817C-24.4956 353.817 -24.4503 353.817 -24.4291 353.818C-23.7927 353.826 -23.9252 353.829 -24.5632 353.831C-26.77 353.757 -35.7902 354.457 -38.2492 354.66ZM53.7667 447.899C53.7368 447.895 53.6779 447.887 53.5931 447.877C52.7179 447.783 49.2218 447.248 46.1273 446.066C43.0171 444.94 40.4063 443.299 40.4489 443.34C42.2571 444.715 49.7476 447.696 53.591 447.893C55.7926 448.165 56.5429 448.253 53.7667 447.899ZM164.9 454.818C169.55 454.705 178.331 454.601 177.323 454.581C177.316 454.581 177.309 454.581 177.302 454.581C173.17 454.632 169.036 454.722 164.9 454.818ZM-39.76 256.738C-34.6984 249.799 -37.0785 253.093 -41.6255 259.201C-42.9811 261.066 -40.5974 257.873 -39.76 256.738ZM-25.3477 233.49C-24.8276 232.43 -22.0775 226.282 -20.7343 220.501C-19.3007 214.741 -19.1115 209.558 -19.2486 211.414C-18.9694 212.788 -22.1266 226.45 -22.6941 226.962C-23.0589 227.871 -21.451 223.697 -24.1629 230.668C-23.9605 230.277 -25.6755 234.233 -25.3477 233.49ZM-35.6032 250.974C-30.7839 243.942 -29.9676 242.202 -33.3885 247.61C-34.759 249.705 -36.3021 251.968 -35.6032 250.974ZM-57.5818 277.883C-55.3536 275.776 -49.6332 269.935 -46.2681 265.454C-50.8767 271.37 -56.2261 276.696 -61.7647 281.821C-62.3924 282.425 -59.5051 279.753 -57.567 277.869C-57.5719 277.874 -57.5768 277.879 -57.5818 277.883ZM421.355 869.1C414.581 869.824 430.178 868.079 430.833 867.962C432.793 867.746 424.385 868.794 421.355 869.1ZM286.925 -211.062C288.764 -210.613 289.969 -210.326 293.981 -209.199C289.962 -210.392 285.885 -211.384 281.773 -212.205C278.562 -212.761 284.919 -211.578 286.925 -211.062ZM302.19 -206.304C301.753 -206.462 303.511 -205.765 300.829 -206.746C300.089 -207.011 299.018 -207.394 297.454 -207.913C295.857 -208.426 297.624 -207.928 300.847 -206.798C307.633 -204.647 319.973 -198.173 322.837 -196.303C318.07 -199.249 307.035 -204.699 302.19 -206.304ZM344.627 -181.775C344.887 -181.586 336.018 -187.506 334.986 -188.18C329.599 -191.778 343.19 -182.786 344.627 -181.775ZM315.829 -199.785C320.234 -197.444 310.464 -202.612 307.389 -203.806C307.132 -204.013 315.182 -200.217 315.829 -199.785ZM352.552 873.474C347.149 873.804 342.329 874.29 350.634 873.655C351.03 873.625 352.782 873.46 352.552 873.474ZM335.902 -187.484C331.746 -190.259 340.975 -184.145 343.716 -182.297C343.961 -182.11 336.537 -187.068 335.902 -187.484ZM348.741 873.608C341.567 874.094 344.103 874.053 344.999 873.991C348.692 873.733 361.344 872.777 363.928 872.581C344.987 873.947 352.118 873.387 348.741 873.608ZM315.694 876.427C309.054 877.076 326.031 875.487 329.273 875.213C325.968 875.482 317.582 876.231 315.694 876.427ZM275.476 881.146C271.92 881.614 261.359 883.131 259.594 883.43C263.464 882.832 273.978 881.364 275.476 881.146ZM267.424 882.207C261.87 882.98 260.552 883.265 266.947 882.308C267.195 882.271 267.628 882.179 267.424 882.207ZM236.273 887.033C232.639 887.608 228.515 888.405 234.392 887.404C236.138 887.109 236.657 886.973 236.273 887.033ZM339.754 874.127C334.501 874.517 327.741 875.123 338.953 874.242C335.015 874.556 331.078 874.883 327.143 875.229C341.827 874.043 340.745 874.091 344.962 873.767C350.856 873.336 350.396 873.444 349.214 873.552C354.043 873.142 374.575 871.734 386.426 870.804C376.008 871.6 359.084 872.725 348.793 873.469C345.854 873.68 343.005 873.912 340.5 874.102C336.484 874.408 340.049 874.105 339.775 874.125C339.768 874.126 339.761 874.126 339.754 874.127ZM195.513 894.482C184.902 896.553 191.622 895.292 197.613 894.102C197.869 894.05 195.777 894.431 195.513 894.482ZM347.693 -179.329C335.572 -187.169 344.764 -182.168 318.971 -197.68C329.931 -191.39 319.609 -197.389 321.75 -196.164C323.485 -195.212 329.781 -191.275 326.131 -193.579C331 -190.686 351.445 -176.814 352.463 -176.333C352.454 -176.338 352.445 -176.344 352.437 -176.349C352.998 -175.994 351.545 -176.793 347.693 -179.329ZM275.394 880.928C271.807 881.317 270.427 881.667 263.399 882.605C254.069 884.047 289.219 878.941 293.52 878.665C255.25 883.48 318.825 875.659 292.083 878.786C296.079 878.307 298.866 877.989 300.766 877.772C309.348 876.818 299.914 877.822 302.698 877.492C306.335 877.032 318.828 875.829 318.191 875.865C318.184 875.865 318.177 875.866 318.17 875.866C312.36 876.413 306.554 877.012 300.756 877.682C298.928 877.893 297.101 878.109 295.274 878.329C302.743 877.522 287.167 879.349 281.888 880.004C279.722 880.306 277.558 880.614 275.394 880.928ZM318.543 875.962C317.787 875.991 301.182 877.729 302.259 877.662C304.468 877.339 328.052 875.089 318.543 875.962ZM391.746 870.333C385.78 870.818 376.545 871.479 373.293 871.743C379.267 871.318 388.501 870.632 391.746 870.333ZM87.5471 918.336C80.1181 919.96 103.049 915.019 96.4172 916.421C96.1564 916.484 87.8319 918.281 87.5471 918.336ZM258.199 883.421C250.517 884.562 254.16 884.1 259.845 883.218C260.174 883.167 258.554 883.369 258.199 883.421ZM337.938 -185.799C337.538 -186.15 319.972 -197.481 316.568 -198.954C318.605 -198.311 338.511 -185.605 337.938 -185.799ZM402.235 869.354C390.368 870.33 374.25 871.577 372.481 871.704C370.722 871.828 373.477 871.59 373.077 871.618C372.164 871.686 353.431 873.013 352.524 873.086C351.875 873.135 355.269 872.946 351.404 873.242C358.948 872.679 393.184 870.236 394.949 870.007C396.323 869.882 385.959 870.711 402.215 869.356C402.221 869.355 402.228 869.354 402.235 869.354ZM368.06 872.008C372.741 871.699 359.619 872.632 356.442 872.85C349.383 873.333 367.46 872.047 368.06 872.008ZM336.494 874.293C334.994 874.389 321.473 875.527 320.328 875.678C326.726 875.106 339.894 874.035 336.494 874.293ZM187.169 895.969C183.715 896.663 174.225 898.621 173.688 898.764C177.136 898.024 186.63 896.095 187.169 895.969ZM272.873 -212.465C278.635 -211.647 265.279 -213.501 261.336 -213.703C261.133 -213.8 272.394 -212.616 272.873 -212.465ZM256.866 883.404C254.776 883.552 212.804 890.672 206.97 891.958C212.682 890.726 254.277 883.679 256.194 883.538C256.747 883.451 257.129 883.365 256.866 883.404ZM348.35 873.238C352.239 872.92 354.781 872.78 355.272 872.745C360.084 872.406 370.06 871.693 367.875 871.88C359.385 872.46 340.609 873.869 348.35 873.238ZM184.174 896.424C170.018 899.339 197.224 893.816 193.653 894.528C193.422 894.567 185.637 896.118 184.174 896.424ZM261.568 882.688C263.801 882.309 285.737 879.176 300.736 877.509C306.847 876.807 311.8 876.32 313.77 876.125C309.369 876.596 305.583 876.983 300.738 877.532C298.879 877.744 296.863 877.978 294.597 878.252C292.393 878.519 292.984 878.469 292.748 878.498C288.933 878.969 291.785 878.593 289.433 878.885C287.934 878.971 257.125 883.317 261.568 882.688ZM350.57 873.053C352.943 872.854 379.443 870.977 380.506 870.882C388.483 870.354 352.633 872.909 350.57 873.053ZM257.698 883.224C262.21 882.44 283.165 879.56 268.833 881.597C267.465 881.792 261.668 882.606 257.698 883.224ZM185.676 896.062C184.975 896.185 170.224 899.253 169.966 899.343C172.09 898.859 193.608 894.458 185.676 896.062ZM193.323 894.462C192.967 894.534 196.438 893.875 189.509 895.255C188.933 895.375 187.844 895.533 179.149 897.346C177.385 897.715 174.658 898.315 174.855 898.276C183.906 896.372 211.224 890.932 193.323 894.462ZM351.053 872.986C349.623 873.073 353.065 872.773 356.173 872.577C357.506 872.493 355.023 872.698 351.053 872.986ZM138.988 906.226C143.96 905.061 136.925 906.663 129.935 908.318C125.114 909.459 119.967 910.673 119.458 910.795C119.855 910.713 125.196 909.463 129.941 908.342C134.363 907.298 138.585 906.321 138.988 906.226ZM259.295 -213.645C259.302 -213.645 259.309 -213.644 259.315 -213.644C252.001 -214.142 256.533 -213.86 256.191 -213.888C240.583 -214.717 244.711 -214.329 242.269 -214.434C237.02 -214.53 237.87 -214.596 229.004 -214.654C243.656 -214.538 230.321 -214.673 229.905 -214.695C228.267 -214.829 249.411 -214.466 256.666 -213.881C257.681 -213.837 250.198 -214.276 252.796 -214.146C261.279 -213.976 287.237 -210.696 259.295 -213.645ZM358.57 872.402C361.978 872.142 387.816 870.295 380.968 870.816C379.87 870.92 353.565 872.8 358.57 872.402ZM321.158 500.699C320.501 504.683 321.488 500.353 321.578 495.827C321.631 493.333 321.689 490.688 321.699 489.721C321.71 488.867 321.619 492.477 321.541 495.826C321.503 497.795 321.291 499.702 321.158 500.699ZM288.252 431.606C281.179 434.287 274.36 438.214 282.668 434.044C283.536 433.571 289.047 431.28 288.252 431.606ZM-2.11459 684.784C5.04335 681.898 4.59505 682.013 -0.653259 684.15C-2.5042 684.909 -2.33983 684.875 -2.11459 684.784ZM270.866 574.122C271.537 573.72 278.581 568.098 278.28 568.244C275.802 570.494 266.791 577.093 270.866 574.122ZM-4.3759 685.728C-0.150482 683.972 -7.45753 686.913 -12.5808 689.157C-9.97171 688.037 -4.81062 685.906 -4.3759 685.728ZM241.888 885.556C238.102 886.196 227.389 888.004 221.25 889.12C220.578 889.182 237.484 886.253 241.888 885.556ZM316.654 430.786C315.09 427.43 316.106 429.345 317.081 431.979C318.052 434.622 318.768 437.995 318.637 437.312C318.686 437.122 316.916 431.064 316.654 430.786ZM-165.749 849.014C-166.011 843.995 -165.188 859.935 -165.393 855.545C-165.46 855.329 -165.79 849.295 -165.749 849.014ZM-136.339 909.329C-139.691 907.378 -150.72 895.471 -146.452 900.11C-145.982 901.03 -136.734 909.349 -136.339 909.329ZM241.834 -214.417C243.912 -214.35 231.853 -214.568 230.121 -214.568C229.443 -214.582 239.129 -214.548 241.834 -214.417ZM44.6638 666.747C48.4122 665.364 58.1696 661.868 59.883 661.241C55.2752 662.876 43.4138 667.153 44.6638 666.747ZM321.526 462.671C321.391 456.546 320.272 446.087 320.479 448.683C321.521 460.22 320.636 447.242 321.526 462.671ZM-27.9656 695.956C-25.0452 694.644 -22.822 693.609 -23.1535 693.752C-26.3368 695.129 -30.8725 697.247 -27.9656 695.956ZM197.251 611.628C197.436 611.592 206.95 607.67 205.672 608.174C205.258 608.352 197.109 611.676 197.251 611.628ZM110.097 912.847C105.477 913.893 119.571 910.618 123.616 909.673C125.586 909.25 110.693 912.726 110.097 912.847ZM-106.001 737.943C-106.069 737.996 -105.688 737.746 -105.047 737.335C-102.129 735.433 -93.8379 730.281 -98.2326 732.981C-99.2649 733.611 -103.217 736.112 -105.058 737.318C-105.611 737.677 -105.97 737.92 -106.001 737.943ZM-162.705 870.031C-163.826 865.513 -162.699 871.393 -160.07 878.062C-156.831 886.782 -150.155 895.753 -153.82 890.325C-154.118 889.914 -157.841 883.843 -160.036 878.049C-161.634 874.032 -162.6 870.399 -162.705 870.031ZM-114.995 921.342C-116.663 920.588 -115.871 921.022 -108.708 923.669C-107.77 924.018 -112.169 922.45 -111.407 922.729C-111.037 923.14 -95.2071 927.955 -94.3782 927.92C-93.5717 928.109 -94.5125 927.849 -93.6934 928.038C-92.7685 928.314 -82.7337 930.426 -77.4688 931.094C-67.3883 932.454 -66.3606 932.331 -65.5163 932.447C-63.0845 932.666 -59.0705 933.011 -54.1633 933.243C-29.4635 934.778 8.38844 931.345 27.7899 928.489C10.4794 930.865 -6.09286 932.578 -23.4523 933.313C-18.3666 933.209 -48.9899 933.894 -31.0747 933.529C-35.1943 933.621 -55.1228 934.094 -74.5712 931.522C-94.116 929.304 -112.233 922.697 -114.976 921.35C-114.982 921.347 -114.988 921.345 -114.995 921.342ZM262.053 444.815C265.773 443.008 248.59 451.544 243.865 451.561C243.456 451.635 243.159 451.687 243.001 451.716C243.221 451.681 243.514 451.633 243.867 451.572C248.406 451.335 261.665 445.222 262.053 444.815ZM322.01 477.781C322.005 479.941 322.145 482.026 321.866 493.409C321.865 493.42 321.865 493.431 321.865 493.441C321.784 496.746 321.845 492.987 321.826 493.588C321.824 493.647 321.796 494.737 321.769 495.83C321.673 498.435 321.419 501.532 321.734 495.83C321.735 495.742 321.737 495.651 321.739 495.555C321.997 482.427 321.829 494.334 321.957 487.31C322.012 486.431 321.997 473.191 321.955 473.945C321.959 474.018 321.992 478.022 321.983 478.688C321.966 481.158 321.943 479.968 321.942 480.315C321.951 480.99 321.883 489.039 321.722 495.83C321.648 500.442 320.699 504.448 320.406 505.635C320.269 505.987 321.565 501.727 321.693 495.829C321.974 485.905 321.908 471.539 321.844 470.695C321.831 469.846 321.903 470.203 321.89 469.32C321.954 468.87 321.321 454.983 321.066 453.181C321.024 452.657 320.99 452.258 320.965 451.966C321.221 454.067 319.768 441.516 319.702 441.89C319.832 442.128 320.919 450.737 320.887 451.062C320.899 451.199 320.91 451.318 320.92 451.429C321.162 449.63 322.242 478.918 322.004 472.606C322.1 481.096 321.956 471.405 322.01 477.781ZM316.107 518.16C316.47 517.348 316.819 516.531 317.155 515.709C311.59 529.106 301.67 542.408 291.462 555.166C291.02 555.72 290.569 556.272 290.108 556.819C287.218 560.134 290.63 556.406 286.721 560.642C283.548 563.995 279.669 567.303 281.529 565.634C282.011 565.276 288.565 559.014 291.457 555.162C291.512 555.094 291.565 555.026 291.618 554.959C300.105 544.202 297.874 546.844 298.382 546.226C298.932 545.534 304.124 538.611 306.705 534.631C312.93 524.544 316.648 520.077 320.804 504.047C318.425 513.274 320.122 508.393 316.107 518.16ZM-149.8 788.048C-150.099 788.521 -154.382 797.121 -155.64 800.378C-155.511 799.837 -151.52 791.093 -149.8 788.048ZM-26.5813 50.6939C-26.658 49.1398 -26.4555 54.4624 -26.4634 59.1051C-26.4648 63.2881 -26.1407 66.887 -26.3098 64.1115C-26.3364 63.551 -26.441 61.4876 -26.4363 59.1051C-26.4286 55.9579 -26.5288 52.2801 -26.5813 50.6939ZM-16.5275 150.122C-16.5078 153.108 -16.517 141.086 -16.5543 141.108C-16.5587 141.126 -16.5251 149.738 -16.5275 150.122ZM162.863 625.093C162.336 625.295 154.622 628.119 154.378 628.202C149.262 630.056 174.631 620.707 162.863 625.093ZM-43.5565 265.768C-41.5279 263.074 -42.1402 263.874 -43.7018 265.929C-46.885 270.407 -55.535 279.217 -50.9905 274.519C-50.6226 274.252 -44.5718 267.305 -43.687 265.94C-43.6206 265.853 -43.576 265.794 -43.5565 265.768ZM-74.469 296.623C-72.7032 294.897 -64.4742 287.509 -64.3716 287.396C-64.2263 287.239 -73.6266 295.711 -74.469 296.623ZM-29.8764 696.974C-28.7775 696.495 -42.0235 702.56 -46.5571 704.82C-47.6689 705.284 -34.5052 699.029 -29.8764 696.974ZM55.6264 663.014C-2.03001 684.372 10.5742 679.399 59.0686 661.76C59.1474 661.761 59.2805 661.702 55.6264 663.014ZM-17.6971 691.6C-15.6606 690.682 -9.24353 687.947 -4.884 686.149C-5.66486 686.481 -14.5857 690.228 -17.6971 691.6ZM-27.4705 24.1811C-27.4812 28.0061 -26.7396 45.0655 -26.8897 42.037C-26.9722 41.3158 -27.612 22.7627 -27.4705 24.1811ZM158.034 626.912C159.4 626.474 142.007 632.761 140.665 633.208C135.282 635.104 156.64 627.468 158.034 626.912ZM-106.388 738.428C-109.099 740.184 -116.385 745.726 -120.642 749.821C-118.761 747.887 -110.618 741.092 -106.388 738.428ZM-69.489 716.599C-69.8227 716.764 -77.0967 720.756 -77.4106 720.948C-83.3793 724.193 -62.809 712.919 -69.489 716.599ZM269.366 -212.375C269.096 -212.431 262.877 -213.072 262.658 -213.071C257.109 -213.672 275.768 -211.703 269.366 -212.375Z" fill="var(--Cladonia-1, #E5F5FF)"/>
</svg>
