<svg width="913" height="648" viewBox="0 0 913 648" fill="none" xmlns="http://www.w3.org/2000/svg">
<path d="M467.853 -289.814C487.481 -282.814 502.263 -271.066 519.919 -259.846L891.3 12.4L912.9 784.152H598.2C554.936 789.552 511.228 790.527 467.853 795.525C410.516 802.131 353.327 813.094 297.19 826.395L296.359 826.592C223.618 843.83 41.9322 886.884 5.762 795.525C-13.751 746.239 19.1808 680.459 61.2635 653.268C162.649 587.759 283.432 564.034 392.826 515.164C414.527 505.47 442.244 490.312 457.367 471.295C469.857 455.59 486.987 433.509 487.378 412.804C487.63 399.433 489.389 346.987 477.615 342.037C476.684 341.645 460.999 348.118 459.537 348.536C443.169 353.206 427.903 366.932 411.086 369.838C391.995 373.138 370.108 370.56 350.703 370.56C328.583 370.56 305.867 372.142 283.812 370.38C262.844 368.705 241.548 366.481 220.717 363.881C201.292 361.456 191.59 343.389 184.56 327.595C172.677 300.895 176.845 269.825 142.437 269.825C121.782 269.825 59.9894 282.416 67.0623 250.634C74.014 219.395 103.724 206.453 122.189 182.088C136.105 163.725 148.945 146.163 148.945 122.875C148.945 97.1262 149.319 71.3533 148.945 45.6086C148.602 21.9633 139.183 -0.0744324 139.183 -23.8949C139.183 -44.7665 135.731 -68.9892 140.99 -89.2463C153.147 -136.071 171.678 -189.98 204.266 -227.17C227.834 -254.067 271.34 -288.64 308.399 -292.341C319.345 -293.434 328.658 -298.657 340.217 -298.84C357.546 -299.115 374.93 -298.98 392.261 -298.846L393.007 -298.84C418.276 -298.645 443.868 -298.367 467.853 -289.814Z" fill="var(--Cladonia-3, #97CFFF)"/>
</svg>
