<svg width="601" height="648" viewBox="0 0 601 648" fill="none" xmlns="http://www.w3.org/2000/svg">
<path d="M321.089 -296.843C319.49 -296.345 313.082 -294.782 310.252 -294.614C310.243 -294.613 310.234 -294.612 310.225 -294.611C310.234 -294.612 310.243 -294.613 310.252 -294.614C313.488 -294.608 326.852 -298.497 321.089 -296.843ZM142.503 -79.735C142.799 -82.1078 143.182 -84.4656 143.675 -86.7957C142.171 -80.1885 141.541 -71.0077 141.494 -64.6596C141.48 -63.6204 141.483 -66.3174 141.454 -63.8575C141.442 -61.398 141.471 -61.8725 141.521 -58.2905C141.483 -54.2811 142.438 -35.8215 142.528 -29.3634C142.56 -27.8111 142.579 -26.2491 142.58 -24.6949C142.52 -2.45697 151.26 19.0943 152.266 41.9425C150.232 20.8903 152.102 35.4287 152.301 44.7889C152.326 46.5022 152.346 48.0334 152.36 49.1217C152.354 50.6606 152.547 50.4185 152.524 75.3041C152.467 91.1154 152.42 76.515 152.35 102.891C152.526 82.6093 152.396 102.558 152.371 118.449C152.37 118.988 152.368 120.277 152.367 122.075C152.914 129.669 148.821 145.585 144.861 152.556C143.381 155.615 140.87 160.139 138.433 163.898C136.759 166.487 135.443 168.412 132.79 172.121C130.348 175.524 127.842 178.85 125.336 182.158C114.928 195.909 101.086 205.912 89.3456 217.946C97.9002 209.166 82.5492 224.768 82.3263 225.829C80.8033 227.786 83.4114 224.281 86.0254 221.389C88.6258 218.489 91.0455 216.068 87.9362 219.278C79.6129 227.995 72.8839 238.376 70.3775 250.126C70.2932 250.506 70.2193 250.878 70.1558 251.242C70.2305 250.818 70.3081 250.445 70.3797 250.127C70.8423 248.161 70.7641 248.521 70.4015 250.132C69.9589 252.101 69.404 256 70.7215 259.254C71.9541 262.575 74.9533 264.626 76.1385 265.332C74.9841 265.296 87.913 270.893 103.803 270.083C119.432 269.9 136.468 267.794 141.088 267.758C142.511 267.71 135.942 267.888 144.437 267.64C147.385 267.741 152.322 267.461 159.514 270.301C162.467 271.644 161.349 271.185 162.833 272.002C163.715 272.432 169.191 275.977 172.404 281.762C173.019 282.781 171.312 280.058 171.651 280.638C171.828 281.22 175.336 284.909 179.577 300.581C177.85 293.058 181.267 310.359 187.834 326.228C192.424 337.121 198.87 346.981 201.794 349.945C200.442 348.399 199.183 346.762 198.003 345.064C204.049 353.32 206.029 353.949 207.702 355.443C211.611 358.486 217.131 361.048 222.888 361.713C227.901 362.346 232.781 362.933 236.793 363.395C247.061 364.557 247.101 364.52 259.083 365.763C256.24 365.467 253.398 365.162 250.557 364.849C258.83 365.729 267.111 366.539 275.398 367.271C256.205 365.593 279.536 367.669 281.076 367.76C283.528 367.962 280.003 367.7 284.105 368.033C284.387 368.055 284.211 368.03 285.926 368.158C286.782 368.221 288.114 368.323 290.222 368.451C303.402 369.098 301.329 368.896 306.876 368.996C307.386 368.984 305.6 369.017 315.198 368.945C345.736 368.373 315.04 369.025 313.876 368.979C312.345 368.897 322.78 369.345 296.905 368.858C305.585 369.134 306.466 369.092 307.443 369.118C308.307 369.177 323.389 368.994 324.225 368.944C331.647 368.771 325.115 368.88 326.561 368.844C327.739 368.817 345.953 368.426 350.239 368.363C351.525 368.369 352.324 368.38 352.703 368.388C353.067 368.397 353.046 368.404 352.703 368.41C350.969 368.418 340.99 368.515 330.598 368.787C328.464 368.849 344.513 368.515 345.363 368.532C348.483 368.492 350.877 368.48 352.703 368.477C363.031 368.564 355.312 368.421 359.17 368.448C361.56 368.468 369.997 368.815 362.204 368.491C380.999 369.158 369.598 368.79 370.813 368.834C372.645 368.917 379.202 369.135 380.021 369.153C381.225 369.191 377.04 369.094 381.785 369.234C382.574 369.259 390.215 369.387 380.362 369.142C393.527 369.447 392.426 369.233 396.878 369.211C405.878 368.654 403.413 368.893 406.944 368.58C410.114 368.23 411.883 367.912 412.861 367.735C414.734 367.365 413.682 367.512 413.998 367.45C417.668 368.071 440.787 355.764 446.594 352.494C444.239 353.688 428.307 362.708 424.519 364.03C418.303 366.522 422.744 364.96 427.467 362.743C432.184 360.513 437.194 357.706 432.871 360.101C436.516 358.143 440.117 356.063 443.787 354.055C450.752 350.766 440.455 354.729 459.833 346.912C461.478 346.392 457.88 347.41 454.509 348.855C451.125 350.271 447.927 351.941 449.539 351.109C450.951 350.338 457.64 347.342 461.169 346.446C462.038 346.151 462.855 345.815 462.872 345.809C462.96 345.767 462.083 346.123 461.165 346.433C458.219 347.208 453.387 349.262 454.524 348.774C455.318 348.437 457.871 347.345 461.156 346.402C471.246 342.413 488.624 336.126 466.827 344.273C469.358 343.284 471.495 342.469 473.478 341.746C474.47 341.385 475.422 341.047 476.377 340.728C476.843 340.573 477.337 340.413 477.819 340.272C478.082 340.196 478.319 340.13 478.598 340.063C478.712 340.036 478.9 339.996 479.045 339.973C479.127 339.96 479.248 339.943 479.362 339.937C479.446 339.942 479.677 339.884 480.114 340.051C482.573 341.148 483.979 343.322 485.148 345.701C486.222 347.98 483.857 342.707 482.759 341.877C481.412 340.94 487.294 343.43 489.499 363.367C489.833 364.192 486.784 347.615 485.926 347.228C485.713 346.643 486.697 349.601 486.817 350.144C489.105 351.826 491.639 392.378 490.847 400.867C490.89 399.388 490.836 405.002 490.674 412.029C490.698 421.66 485.718 432.775 484.831 434.626C484.428 435.537 485.984 432.154 485.552 433.127C483.218 439.423 473.555 454.499 468.431 460.95C462.855 468.283 463.53 467.337 463.228 467.751C460.717 470.931 462.711 468.374 461.172 470.318C460.988 470.549 460.72 470.886 460.386 471.306C456.83 476.893 439.729 490.979 438.564 491.391C438.255 491.613 441.705 489.177 437.128 492.468C436.267 492.929 437.041 493.015 422.777 501.619C405.378 511.574 434.819 494.626 427.623 498.819C416.551 505.416 416.819 505.037 413.765 506.727C412.699 507.298 404.713 511.447 395.799 515.42C402.182 512.548 408.489 509.474 414.668 506.162C409.879 508.75 401.345 512.946 395.37 515.58C393.787 516.286 392.391 516.902 391.304 517.379C388.773 518.481 390.845 517.541 385.342 519.923C384.166 520.409 379.599 522.573 393.964 516.214C395.128 515.742 388.283 518.746 385.098 520.116C384.616 520.324 382.743 521.204 378.648 522.888C377.643 523.237 388.334 518.818 360.728 530.154C359.837 530.514 362.949 529.297 362.078 529.65C361.485 529.897 354.396 532.687 353.61 532.989C352.81 533.306 356.245 531.989 355.293 532.367C350.409 534.305 343.94 536.696 354.043 532.786C350.666 534.092 347.283 535.383 343.894 536.66C347.542 535.349 338.59 538.707 333.892 540.448C303.763 551.518 323.958 544.157 318.784 546.079C310.447 549.122 316.788 546.727 304.39 551.179C303.238 551.576 318.283 546.363 288.94 556.64C293.271 555.125 297.6 553.604 301.926 552.073C299.41 552.894 286.294 557.567 285.283 557.916C273.758 561.937 281.543 559.204 264.435 565.181C262.907 565.715 259.572 566.854 256.307 567.999C242.771 572.746 274.192 561.807 275.063 561.539C275.472 561.409 241.674 573.147 240.525 573.575C235.593 575.271 255.825 568.201 251.958 569.519C250.515 569.923 202.492 587.015 193.012 590.84C181.991 595.039 177.039 596.956 177.007 597.077C173.877 598.21 171.179 599.383 169.781 599.952C152.925 606.901 152.9 606.935 138.64 613.334C135.499 614.764 132.844 615.965 131.741 616.487C131.099 616.792 132.314 616.256 129.17 617.748C124.725 619.665 98.8347 632.833 97.0154 634.004C95.0961 634.991 107.823 628.21 105.534 629.407C96.2859 634.25 87.5383 639.133 78.5205 644.518C74.7784 646.764 76.6897 645.591 75.0759 646.568C74.5533 646.87 67.363 651.327 63.9674 653.558C62.8138 654.307 62.1019 654.801 62.2372 654.711C62.3781 654.619 62.9968 654.199 63.9746 653.569C71.544 648.27 102.301 630.92 92.8656 636.3C90.7969 637.437 83.5265 641.555 84.7115 640.951C77.7097 645.004 70.8056 649.217 64.0014 653.61C36.3425 671.985 16.557 701.448 7.52372 733.332C13.6774 710.418 27.446 686.52 45.0717 668.992C47.3816 666.461 56.1623 659.033 55.107 659.955C38.4208 672.994 22.6736 694.838 14.6093 713.474C14.344 714.068 15.2894 711.877 14.2964 714.099C12.2443 718.186 7.54311 732.241 7.09981 734.702C6.93188 735.101 9.27401 727.006 8.52653 729.456C6.59915 735.751 6.35878 737.415 5.24279 742.952C3.44235 747.119 2.51725 776.625 5.57271 783.576C6.57016 787.314 5.03465 782.139 4.19276 776.111C3.2815 770.091 3.29819 763.276 3.32307 764.366C3.46084 774.58 5.2689 784.843 8.99618 794.236C12.4991 803.142 17.6503 811.092 23.9201 817.606C24.1517 817.839 22.1799 815.777 25.0887 818.753C30.3079 823.798 31.9057 824.826 34.7504 826.955C37.6674 829.407 49.6027 835.818 51.3601 836.379C51.575 836.484 49.056 835.378 48.6783 835.187C43.3469 832.613 41.6736 831.42 41.1819 831.16C39.4396 830.13 37.7659 829.086 36.2626 828.058C33.7973 826.347 32.4261 825.344 29.3969 822.799C27.334 821.004 29.2915 822.778 27.3241 821.01C26.4657 820.48 19.4436 812.757 18.9301 811.904C18.5557 811.775 32.255 829.289 53.7211 837.475C74.6311 846.35 98.8138 848.293 102.991 848.711C95.6382 848.024 88.2777 847.011 80.9657 845.544C95.7201 848.65 113.901 849.442 115.173 849.572C171.273 851.732 227.01 841.015 281.674 828.507C290.756 826.4 286.762 827.391 298.932 824.505C299.886 824.278 300.94 824.029 302.107 823.753C301.047 823.997 299.987 824.242 298.928 824.488C296.03 825.16 292.623 825.953 289.698 826.626C291.425 826.223 295.035 825.374 298.92 824.456C312.855 821.123 335.799 816.094 340.395 815.139C341.165 814.979 342.217 814.677 351.397 812.776C359.546 811.103 360.867 810.895 365.232 810.04C368.897 809.325 373.013 808.526 374.102 808.322C374.938 808.164 375.273 808.126 377.285 807.751C383.637 806.578 378.477 807.463 384.798 806.381C383.263 806.665 381.728 806.952 380.194 807.241C387.859 805.821 398.355 804.007 387.054 806.048C385.112 806.404 386.776 806.077 385.328 806.341C328.713 817.26 373.882 808.336 393.785 804.837C398.887 803.886 427.599 799.238 428.568 799.175C429.899 798.987 424.98 799.749 431.437 798.813C432.775 798.474 471.338 793.446 457.456 795.285C454.585 795.62 436.108 798.118 431.667 798.814C442.129 797.272 466.712 794.063 469.489 793.803C469.576 793.793 469.661 793.783 469.743 793.774C473.202 793.384 471.992 793.529 469.746 793.797C465.582 794.297 457.857 795.241 469.752 793.847C470.758 793.731 471.904 793.602 473.206 793.459C492.586 791.438 474.385 793.271 481.838 792.487C486.024 791.994 507.996 790.219 507.395 790.225C514.938 789.639 510.526 790.017 511.457 789.948C512.368 789.871 527.198 788.775 532.012 788.455C532.596 788.416 530.761 788.584 531.365 788.544C532.54 788.469 546.838 787.44 547.411 787.388C547.776 787.359 544.366 787.575 545.766 787.465C547.4 787.347 561.149 786.302 561.904 786.217C562.976 786.134 546.003 787.445 548.828 787.186C556.657 786.629 569.394 785.559 574.544 785.039C573.282 785.171 565.706 785.835 563.073 786.041C564.311 785.913 580.572 784.446 575.017 784.992C578.547 784.64 576.135 784.853 578.122 784.643C578.643 784.591 583.659 784.095 584.624 783.982C584.75 783.97 579.573 784.467 580.608 784.352C582.487 784.186 597.673 782.518 598.908 782.329C602.403 781.927 590.04 783.423 589.005 783.53C588.861 783.567 599.39 782.395 599.547 782.359C600.17 782.348 588.456 783.675 589.798 783.547C592.697 783.238 595.594 782.911 598.489 782.565C587.339 784.039 566.599 785.866 561.247 786.308C577.887 785.006 595.229 783.03 595.201 783.111C595.196 783.163 588.047 783.989 588.324 783.962C589.385 783.904 599.304 782.71 599.667 782.649C599.968 782.614 600.106 782.599 600.106 782.601C600.113 782.658 585.966 784.29 585.254 784.341C584.064 784.487 590.376 783.892 590.367 783.904C590.15 783.946 580.061 785.006 583.469 784.684C586.919 784.379 595.743 783.382 596.051 783.337C597.741 783.187 582.304 784.906 581.839 784.925C581.598 784.963 589.898 784.13 590.139 784.102C590.348 784.093 584.046 784.789 581.561 785.058C579.71 785.265 585.109 784.74 584.16 784.837C583.485 784.938 568.867 786.302 568.146 786.343C567.076 786.441 570.504 786.17 570.006 786.22C569.299 786.293 564.574 786.684 565.19 786.641C565.656 786.645 583.968 785.049 583.848 785.043C583.646 785.131 564.256 786.873 582.304 785.307C582.43 785.298 586.816 784.836 586.938 784.821C589.646 784.558 575.595 786.115 592.78 784.247C560.801 787.624 588.81 784.76 584.084 785.315C582.261 785.551 569.847 786.712 569.788 786.705C570.999 786.635 574.952 786.252 576.299 786.141C577.041 786.093 565.932 787.114 568.434 786.914C569.73 786.831 581.522 785.731 582.007 785.667C586.672 785.218 580.956 785.819 581.982 785.73C582.664 785.681 589.773 784.936 589.957 784.909C590.258 784.893 580.61 785.943 578.597 786.135C577.069 786.295 582.812 785.754 581.745 785.861C575.319 786.545 561.617 787.648 574.821 786.583C575.627 786.519 580.615 786.04 580.762 786.024C583.847 785.754 574.664 786.649 573.021 786.809C570.203 787.112 583.407 785.873 572.427 786.911C580.668 786.186 585.259 785.748 594.88 784.637C568.226 787.546 558.796 788.355 588.426 785.488C579.007 786.477 580.055 786.399 577.244 786.676C575.496 786.863 561.813 787.977 568.096 787.576C568.885 787.533 577.19 786.76 574.591 787.03C554.65 788.766 574.171 787.108 574.191 787.094C573.95 787.391 525.181 790.895 516.815 791.483C507.1 792.201 498.482 792.981 496.374 793.165C489.438 793.767 495.191 793.234 493.639 793.357C492.06 793.433 472.369 795.45 471.395 795.617C470.672 795.697 470.225 795.745 469.973 795.77C469.547 795.812 469.677 795.789 469.971 795.748C470.418 795.685 471.244 795.581 471.05 795.602C470.765 795.633 470.401 795.674 469.968 795.723C463.204 796.419 439.508 799.56 432.594 800.631C432.823 800.605 447.624 798.518 438.389 799.861C427.639 801.453 427.013 801.475 426.73 801.505C383.959 807.992 341.523 816.6 299.422 826.575C293.248 828.039 286.599 829.613 280.379 831.046C280.717 831.006 290.579 828.715 299.429 826.604C306.559 824.909 313.043 823.419 313.365 823.349C314.951 823.006 308.486 824.479 299.435 826.629C284.339 830.278 261.596 835.371 257.391 836.2C262.489 835.128 267.378 834.067 272.481 832.931C263.937 834.954 244.943 838.921 232.462 841.237C228.421 842 236.186 840.577 236.01 840.606C231.515 841.497 224.178 842.795 229.631 841.77C218.619 843.787 220.152 843.466 211.676 844.855C211.233 844.923 214.915 844.372 208.144 845.451C205.008 846.002 188.095 848.343 185.81 848.585C184.88 848.719 193.496 847.736 194.531 847.489C212.934 844.916 200.405 846.621 207.528 845.562C208.616 845.358 206.152 845.952 224.047 842.849C220.62 843.62 200.025 846.825 196.421 847.252C189.124 848.367 219.246 843.981 224.745 842.759C222.21 843.274 226.813 842.425 233.558 841.161C240.832 839.783 237.638 840.41 241.623 839.634C252.367 837.486 247.967 838.325 256.801 836.523C248.147 838.227 272.008 833.263 278.9 831.65C267.647 834.242 256.379 836.711 245.043 838.99C245.69 838.868 246.334 838.745 246.976 838.623C244.033 839.218 240.998 839.818 238.01 840.393C238.482 840.295 238.951 840.197 239.439 840.094C224.055 843.1 220.268 843.584 218.988 843.824C202.745 846.601 183.901 849.199 167.283 850.635C164.79 850.791 166.519 850.963 148.311 851.938C142.496 852.177 147.978 851.93 141.401 852.166C133.143 852.482 133.299 852.338 130.854 852.362C123.802 852.376 119.504 852.219 118.864 852.204C110.12 851.956 97.4428 850.933 87.9657 849.374C87.7894 849.347 92.6699 850.146 86.5778 849.171C84.3998 848.822 64.8824 845.519 49.2573 838.189C53.2564 840.035 57.5422 841.703 61.713 843.092C59.274 842.327 49.2429 838.738 41.6599 834.37C33.9537 830.074 28.6189 825.497 32.1809 828.314C36.484 831.879 48.5312 838.087 49.947 838.609C42.4629 836.325 13.5763 817.914 6.53887 795.209C2.17424 784.189 1.42537 774.881 1.20369 773.118C1.11069 772.393 1.68107 776.859 1.56457 775.855C1.14751 775.109 0.435501 759.533 0.882198 757.483C0.917519 756.256 0.698422 763.12 0.758612 762.565C0.344285 762.047 2.31834 742.729 2.89946 741.707C1.7778 746.35 0.63684 759.705 1.24116 752.708C1.30196 751.801 1.91538 747.167 2.10943 746.083C3.3966 735.96 -0.56459 766.218 1.01602 770.981C-1.25966 751.757 6.02666 722.239 16.8552 702.955C21.0207 695.065 10.8872 714.762 15.4684 705.765C25.5558 687.419 18.0683 700.834 18.3529 700.252C20.6108 695.527 30.8742 681.069 30.9637 681.12C35.725 675.212 34.0389 676.991 41.3197 669.117C40.3328 670.132 39.3652 671.157 38.4143 672.195C44.1146 665.457 56.5383 654.977 62.6015 651.444C64.656 650.137 65.7812 649.443 65.3719 649.706C64.6316 650.184 63.6855 650.793 62.6248 651.48C57.5085 654.673 50.4727 660.485 49.8135 661.125C48.7042 662.341 44.645 664.838 32.9713 678.731C30.7043 681.666 35.0914 675.979 39.2315 671.544C43.368 667.106 46.9174 663.709 41.1478 669.561C44.4619 666.064 52.6402 657.986 62.6783 651.563C75.5213 643.219 89.5834 635.34 92.8105 633.554C93.4984 633.186 90.2498 634.818 100.147 629.519C104.852 627.019 93.5328 633.099 95.6912 631.965C101.474 626.678 195.021 585.855 213.706 580.495C214.886 580.065 214.462 580.244 215.622 579.822C219.182 578.515 232.186 573.822 238.595 571.587C225.318 576.224 251.076 567.139 257.646 564.884C267.607 561.43 267.005 561.685 271.31 560.199C287.911 554.495 313.531 545.394 326.341 540.744C325.619 540.943 348.463 532.605 358.719 528.465C366.777 525.285 378.358 520.407 367.533 524.821C376.451 521.194 385.612 517.298 394.383 513.372C399.214 511.21 403.92 508.964 408.352 506.711C410.414 505.655 407.594 507.139 411.097 505.324C411.415 505.153 411.845 504.919 414.825 503.309C439.01 489.325 427.146 495.978 431.642 493.315C434.081 491.707 435.846 490.464 437.129 489.542C423.98 499.152 407.039 507.535 402.511 509.678C406.596 508.245 434.445 492.677 441.391 486.382C441.645 486.185 440.778 486.895 441.037 486.696C441.042 486.692 441.048 486.687 441.053 486.683C444.234 485.002 459.766 469.246 456.453 472.384C455.69 473.312 448.872 480.95 439.07 488.119C441.686 486.141 439.709 487.586 440.17 487.237C444.685 483.921 453.862 475.961 458.533 469.832C459.745 468.312 460.8 466.981 461.552 466.025C462.421 464.919 462.336 464.988 462.478 464.807C465.889 460.407 464.566 462.265 467.923 457.654C472.88 451.035 462.145 465.539 458.559 469.853C457.817 470.788 457.416 471.264 457.656 470.993C457.736 470.901 458.064 470.512 458.579 469.869C461.589 466.001 471.972 453.55 479.187 440.625C486.867 427.805 488.46 414.18 488.203 414.324C488.221 414.132 488.301 413.411 488.34 411.984C488.344 411.833 488.348 411.668 488.353 411.487C488.521 407.444 488.676 389.491 488.502 386.413C488.489 385.89 488.432 386.101 488.417 385.451C488.486 383.846 487.648 361.891 485.407 354.07C486.376 358.352 486.943 362.676 487.374 367.067C486.091 353.795 483.804 348.673 483.383 347.644C482.902 346.597 484.29 349.439 485.252 353.689C485.353 354.112 485.446 354.533 485.536 354.952C486.994 361.591 487.596 370.408 487.61 370.542C487.332 371.482 487.269 347.553 479.154 342.334C479.563 342.468 479.508 342.393 479.511 342.41C479.498 342.41 479.446 342.418 479.404 342.425C479.306 342.443 479.186 342.471 479.068 342.501C478.824 342.563 478.571 342.637 478.345 342.706C477.861 342.854 477.431 342.998 477.018 343.138C476.217 343.411 475.586 343.639 475.171 343.786C474.345 344.084 474.383 344.059 475.647 343.591C475.808 343.532 476.332 343.34 477.08 343.084C477.462 342.954 477.882 342.813 478.359 342.666C478.579 342.599 478.83 342.525 479.072 342.463C479.187 342.434 479.308 342.406 479.403 342.389C479.443 342.382 479.497 342.374 479.508 342.373C479.507 342.358 479.555 342.428 479.168 342.301C481.378 343.168 482.989 346.636 483.645 348.376C484.286 350.196 484.495 350.45 483.151 347.131C482.821 346.481 481.601 343.361 479.177 342.279C479.51 342.395 479.51 342.338 479.509 342.35C479.509 342.349 479.462 342.355 479.428 342.361C479.359 342.372 479.232 342.4 479.138 342.423C478.913 342.479 478.693 342.542 478.456 342.613C477.987 342.755 477.528 342.908 477.068 343.065C476.15 343.38 475.286 343.695 474.526 343.976C473.001 344.541 471.913 344.961 471.73 345.029C470.705 345.415 471.388 345.141 473.008 344.519C473.816 344.21 474.859 343.814 476.039 343.389C476.626 343.178 477.249 342.958 477.892 342.748C478.205 342.646 478.538 342.541 478.852 342.454C479.011 342.41 479.161 342.37 479.309 342.339C479.384 342.323 479.431 342.314 479.484 342.307C479.494 342.284 479.633 342.368 479.195 342.237C481.709 343.317 483.189 346.85 483.993 349.022C484.805 351.304 485.105 352.648 484.881 351.729C483.879 348.417 482.467 343.783 479.21 342.201C476.811 343.066 471.975 344.801 468.527 346.179C465.056 347.539 464.21 347.903 463.776 348.07C463.016 348.36 462.468 348.582 461.835 348.781C458.011 349.956 460.606 349.12 458.717 349.755C457.483 349.881 445.449 355.83 447.7 354.668C408.433 376.291 436.511 359.062 461.353 348.936C453.103 351.066 438.6 359.974 431.727 363.397C429.263 364.626 430.77 363.98 426.529 365.94C424.223 366.938 419.572 369.072 413.285 370.19C395.863 373.426 368.81 371.006 360.175 371.003C367.41 371.212 365.293 371.103 359.711 370.948C354.13 370.832 358.818 370.975 357.729 370.958C357.429 370.955 355.492 370.909 352.703 370.906C344.586 370.872 329.227 371.278 325.973 371.339C345.742 370.883 341.286 370.948 324.501 371.315C326.928 371.256 329.354 371.191 331.78 371.126C321.953 371.442 301.22 371.552 295.512 371.182C294.618 371.151 297.831 371.3 297.328 371.282C295.056 371.214 290.304 371.012 285.728 370.636C280.248 370.195 275.012 369.724 274.582 369.691C273.913 369.644 281.129 370.291 278.449 370.072C277.89 370.028 270.934 369.392 264.086 368.739C261.546 368.497 263.073 368.672 262.433 368.612C257.1 368.095 260.249 368.382 250.508 367.373C243.374 366.618 238.056 366.078 228.214 364.878C258.49 368.43 236.572 365.97 222.574 364.233C221.577 364.109 220.653 363.953 219.767 363.769C218.673 363.53 218.574 363.531 217.151 363.136C215.771 362.653 212.769 362.104 207.195 358.284C213.15 362.32 216.392 362.764 216.774 362.979C217.226 363.085 215.112 362.571 212.145 361.144C205.926 358.574 198.346 350.28 196.378 347.174C196.154 346.835 196.036 346.741 194.067 343.694C193.912 343.43 194.085 343.839 192.367 340.945C188.391 333.997 186.625 329.647 185.519 327.258C182.428 319.928 186.435 329.428 184.69 325.235C183.436 322.925 178.959 308.14 177.997 304.156C177.744 303.236 177.895 303.653 176.906 300.126C175.169 293.896 173.214 288.484 171.228 284.815C170.863 284.509 171.525 283.936 166.455 278.015C164.939 276.437 162.991 274.956 165.342 276.962C173.855 283.653 177.663 304.494 181.355 316.031C184.354 326.767 175.031 292.887 174.081 291.445C173.873 290.823 176.123 297.164 173.835 290.725C171.999 285.283 166.575 275.47 158.32 272.603C157.803 272.16 151.195 270.496 151.48 270.683C151.621 270.701 154.285 271.108 156.618 271.9C158.948 272.652 160.883 273.748 160.223 273.382C160.14 273.115 153.932 270.911 152.98 270.908C151.976 270.664 149.132 270.142 147.65 270.073C144.286 269.911 146.041 270.019 144.437 269.995C144.31 269.996 144.16 269.996 143.977 269.997C138.83 269.944 120.697 271.689 120.106 271.691C123.106 271.471 126.108 271.221 129.085 270.972C112.443 272.342 119.53 271.74 117.169 271.941C114.619 272.107 115.335 272.061 109.693 272.311C108.489 272.831 84.7282 271.806 85.1939 271.077C98.2796 273 93.4381 272.046 94.0385 272.242C96.3469 272.411 99.2823 272.49 102.363 272.49C123.996 271.911 102.186 272.628 107.292 272.48C109.051 272.442 112.548 272.252 113.29 272.208C115.715 272.076 115.739 272.102 117.361 271.993C121.115 271.726 116.731 271.986 117.024 271.961C120.39 271.741 133.507 270.65 125.342 271.388C130.257 270.997 130.783 270.88 134.684 270.594C142.386 270.068 130.866 270.913 127.723 271.214C116.458 272.064 113.137 272.789 97.0346 272.5C91.2304 272.342 84.3559 271.244 81.7214 270.397C80.9031 270.141 76.4261 268.973 72.8502 266.121C69.0907 263.355 67.8312 258.717 67.7572 258.542C67.0989 255.984 67.1765 252.762 67.9246 249.58C68.994 244.809 70.8703 239.949 72.6225 236.436C75.291 231.284 74.4652 232.931 74.702 232.443C75.0441 231.68 78.9408 225.84 80.4797 224.041C82.2189 221.887 81.2891 222.907 84.1779 219.604C91.5913 211.61 91.6467 212.093 92.4078 211.274C101.91 202.51 97.7251 206.332 99.8299 204.386C101.077 203.068 115.118 191.457 123.231 180.563C127.032 175.568 130.185 171.26 131.588 169.252C129.761 171.851 127.879 174.418 125.976 176.974C129.446 172.446 132.858 167.48 132.962 167.424C133.61 166.465 140.017 156.667 141.491 153.485C142.123 152.261 142.064 152.35 142.819 150.801C146.209 144.884 149.824 130.108 149.605 126.416C149.765 118.562 150.161 124.734 148.691 133.08C147.325 141.483 142.52 151.36 141.742 152.729C143.282 149.953 147.598 140.208 148.723 132.578C149.914 124.999 149.752 120.139 149.259 128.329C149.036 130.858 148.221 135.288 147.847 136.665C145.22 145.962 147.288 138.648 147.081 139.378C146.788 140.634 144.643 146.634 143.888 148.149C143.6 148.636 145.284 145.424 141.147 153.708C142.138 151.806 145.333 145.591 147.22 138.79C149.223 132.013 149.611 124.787 149.561 122.075C149.561 121.749 149.561 121.487 149.56 121.294C149.567 120.059 149.444 127.802 149.597 105.178C149.588 105.44 149.58 105.702 149.572 105.965C149.621 93.3683 149.704 80.7766 149.689 68.1898C149.708 69.5576 149.741 76.6253 149.732 67.7241C149.719 62.5997 149.688 66.3911 149.687 65.9236C149.677 64.5414 149.682 56.2173 149.521 44.8293C149.572 23.9695 138.901 -6.53735 139.761 -24.6949C139.757 -29.1901 139.62 -32.7865 139.541 -35.0376C139.333 -40.3761 138.639 -55.3603 138.682 -56.5174C138.294 -62.6265 139.09 -82.9705 141.596 -90.4085C141.814 -91.2511 141.993 -91.9352 142.12 -92.4189C142.886 -95.3383 142.123 -92.5723 142.816 -95.1793C143.462 -97.5913 142.823 -95.0842 143.016 -95.8002C144.203 -101.855 158.122 -146.608 162.95 -156.709C160.042 -150.525 149.279 -118.341 149.716 -118.923C149.749 -119.064 152.251 -126.926 152.786 -128.534C153.668 -131.205 156.713 -140.357 158.577 -145.267C158.799 -145.818 157.962 -143.634 161.338 -152.374C162.51 -155.38 165.616 -163.248 169.195 -170.973C172.552 -179.502 190.763 -213.621 205.273 -228.84C209.936 -234.153 213.523 -237.727 214.299 -238.543C214.368 -238.661 208.028 -232.06 212.297 -236.549C218.047 -242.414 212.856 -237.154 219.724 -243.821C220.558 -245.072 240.808 -262.297 241.711 -262.578C248.045 -267.562 229.711 -253.268 230.098 -253.3C230.597 -253.975 245.761 -265.944 246.514 -266.258C247.115 -266.701 234.428 -257.352 249.743 -268.495C247.957 -267.26 246.192 -266.002 244.44 -264.717C251.63 -269.98 252.436 -270.312 254.22 -271.527C259.835 -275.193 265.954 -279.167 275.677 -283.838C278.253 -285.053 274.003 -282.976 274.327 -283.119C277.408 -284.612 281.338 -286.544 286.172 -288.347C286.575 -288.345 275.201 -284.52 295.056 -291.325C293.674 -290.927 292.275 -290.491 290.915 -290.038C292.781 -290.748 302.829 -293.811 310.273 -294.406C313.622 -294.746 316.292 -295.412 317.164 -295.609C325.071 -297.659 318.167 -295.762 326.149 -298.027C322.128 -296.862 335.882 -301.249 342.197 -300.906C343.936 -300.928 344.972 -300.933 344.643 -300.918C348.173 -301.07 369.642 -301.101 379.726 -301.004C383.676 -300.981 390.173 -300.942 395.017 -300.911C397.978 -300.893 400.325 -300.874 401.092 -300.864C403.557 -300.832 402.807 -300.806 407.26 -300.727C408.525 -300.686 421.806 -300.596 433.438 -299.424C435.693 -299.213 440.409 -298.589 436.225 -299.044C429.064 -299.88 415.476 -300.468 415.65 -300.392C415.85 -300.437 434.15 -299.485 439.044 -298.681C461.598 -295.218 448.549 -297.074 449.143 -297.07C450.662 -296.902 462.804 -294.015 463.27 -293.73C465.349 -293.152 456.81 -295.461 456.66 -295.402C456.529 -295.534 468.078 -292.193 465.442 -292.918C461.735 -294.201 450.964 -296.654 450.26 -296.697C441.287 -298.252 453.585 -296.099 456.901 -295.155C457.915 -294.911 453.863 -295.829 454.704 -295.63C467.502 -292.419 457.46 -295.178 465.896 -292.73C473.34 -290.269 463.752 -293.4 464.019 -293.251C464.232 -293.188 467.302 -292.267 470.084 -291.261C472.139 -290.528 474.031 -289.762 474.607 -289.519C474.807 -289.43 472.884 -290.235 470.071 -291.226C463.633 -293.652 452.269 -296.107 452.951 -295.886C458.74 -294.685 464.464 -293.13 470.043 -291.146C471.786 -290.526 473.505 -289.865 475.212 -289.159C475.495 -289.012 472.853 -290.127 470.036 -291.128C467.439 -292.064 464.701 -292.904 464.168 -293.059C461.943 -293.729 468.13 -291.8 467.85 -291.839C467.714 -291.909 460.443 -294.126 466.993 -292.061C467.726 -291.819 468.718 -291.491 470.003 -291.036C472.648 -290.094 476.53 -288.629 481.725 -286.076C476.122 -288.786 472.321 -290.171 469.992 -291.003C464.554 -292.844 467.058 -291.994 469.977 -290.962C471.849 -290.291 473.855 -289.482 474.109 -289.372C474.531 -289.203 471 -290.572 469.958 -290.91C469.632 -291.022 469.561 -291.043 469.955 -290.901C470.661 -290.627 472.9 -289.903 477.694 -287.799C478.334 -287.389 477.368 -287.995 472.79 -289.79C468.671 -291.33 474.497 -289.135 469.926 -290.819C468.222 -291.412 465.095 -292.556 459.339 -294.067C459.984 -293.883 465.205 -292.501 469.916 -290.79C474.005 -289.339 477.684 -287.677 478.081 -287.497C478.822 -287.172 475.211 -288.726 476.493 -288.16C491.452 -281.029 481.176 -285.92 485.45 -283.745C485.892 -283.657 499.391 -275.734 489.088 -281.72C481.134 -286.206 474.752 -288.884 469.859 -290.631C463.1 -293.009 459.24 -293.86 457.177 -294.303C461.328 -293.286 465.663 -292.014 469.823 -290.529C481.322 -286.474 491.146 -280.487 494.204 -278.656C500.561 -274.734 493.967 -278.784 494.744 -278.289C495.026 -278.138 500.469 -274.701 500.531 -274.64C503.918 -272.342 482.565 -286.626 469.822 -290.526C468.196 -291.107 466.758 -291.578 465.604 -291.94C467.015 -291.486 468.418 -291.008 469.813 -290.502C471.058 -290.05 472.29 -289.577 473.512 -289.082C472.287 -289.57 471.053 -290.036 469.805 -290.481C467.466 -291.314 465.102 -292.073 462.718 -292.761C466.724 -291.589 468.865 -290.795 469.8 -290.465C470.624 -290.166 470.494 -290.21 469.797 -290.457C467.876 -291.185 461.453 -293.147 458.953 -293.689C457.971 -293.939 469.472 -290.923 456.335 -294.293C465.287 -292.011 463.328 -292.478 469.757 -290.345C470.287 -290.158 470.87 -289.947 471.515 -289.706C471.473 -289.715 470.835 -289.952 469.753 -290.333C464.861 -292.293 450.336 -295.835 443.765 -296.593C466.52 -292.404 460.09 -293.233 469.742 -290.304C471.896 -289.529 474.843 -288.42 478.955 -286.518C483.117 -284.682 472.426 -289.453 473.267 -288.999C476.47 -287.782 483.839 -284.536 492.213 -279.621C493.571 -278.812 487.879 -282.326 496.333 -277.18C497.273 -276.617 502.553 -273.165 502.473 -273.202C501.766 -273.648 496.512 -277.02 496.279 -277.131C496.077 -277.266 501.949 -273.522 501.958 -273.493C502.124 -273.355 497.067 -276.628 497.795 -276.141C499.377 -275.108 520.386 -261.487 492.859 -279.089C515.76 -264.521 496.047 -277.664 486.717 -282.626C484.341 -283.893 483.738 -284.21 480.28 -285.87C476.694 -287.582 472.502 -289.284 469.727 -290.26C469.06 -290.498 468.479 -290.698 468.011 -290.856C466.994 -291.196 468.632 -290.642 469.72 -290.241C470.58 -289.924 471.1 -289.727 469.713 -290.223C468.362 -290.678 465.244 -291.871 458.698 -293.568C461.858 -292.75 465.678 -291.641 469.705 -290.201C479.892 -286.678 490.962 -280.358 497.742 -275.981C516.828 -263.525 484.434 -284.705 480.375 -285.637C479.411 -286.101 482.626 -284.511 481.983 -284.818C481.43 -285.096 475.583 -287.998 469.66 -290.073C464.497 -291.932 459.353 -293.24 458.376 -293.472C456.298 -294.031 466.111 -291.374 466.713 -291.039C467.287 -291.403 441.534 -297.176 455.481 -294.085C459.431 -293.184 464.704 -291.756 469.632 -289.994C476.69 -287.516 482.946 -284.278 484.515 -283.408C479.7 -285.922 474.733 -288.143 469.621 -289.963C461.108 -292.998 452.25 -295.015 443.297 -296.323C451.138 -295.145 458.899 -293.427 466.415 -290.955C450.942 -295.894 436.823 -297.488 421.398 -298.258C458.427 -295.391 409.38 -299.212 408.785 -298.591C408.608 -298.635 423.235 -298.097 425.573 -297.85C418.475 -298.361 403.362 -298.606 394.999 -298.615C388.434 -298.649 386.05 -298.644 394.999 -298.538C395.395 -298.533 395.814 -298.528 396.256 -298.523C395.88 -298.528 395.457 -298.532 394.999 -298.537C390.327 -298.582 381.919 -298.6 382.041 -298.594C382.736 -298.57 389.484 -298.52 394.998 -298.473C399.718 -298.436 403.528 -298.386 401.863 -298.389C399.905 -298.391 397.579 -298.413 394.998 -298.44C392.063 -298.471 388.8 -298.511 385.374 -298.533C358.108 -298.665 359.518 -298.499 342.239 -298.266C338.698 -298.217 334.364 -297.592 328.838 -296.073C329.47 -296.236 330.101 -296.395 330.732 -296.546C324.192 -294.906 317.621 -292.452 310.537 -291.756C281.85 -288.236 256.475 -271.355 234.223 -253.172C228.272 -248.188 217.102 -238.214 207.35 -227.02C199.466 -218.045 192.715 -208.163 188.415 -201.223C186.308 -198.188 177.563 -182.316 177.066 -181.032C175.87 -178.8 182.323 -191.14 179.373 -185.581C178.406 -184.581 165.645 -156.644 166.771 -158.547C168.049 -161.745 172.413 -171.591 173.21 -173.166C176.518 -185.201 143.92 -96.2242 144.716 -91.0012C145.258 -93.0304 145.809 -95.0597 146.369 -97.0848C145.7 -94.6226 145.041 -92.1407 144.4 -89.6805C143.551 -86.4252 142.94 -83.0927 142.503 -79.735ZM297.294 -292.095C299.841 -292.821 305.324 -294.069 310.261 -294.527C311.999 -294.7 313.644 -294.98 315.026 -295.263C321.992 -296.816 334.183 -300.605 328.95 -298.985C322.608 -297.3 316.524 -295.139 310.261 -294.524C305.868 -294.08 301.536 -293.23 297.294 -292.095ZM179.083 -190.971C182.664 -197.319 179.905 -192.386 177.08 -187.121C176.78 -186.529 174.385 -182.296 179.083 -190.971ZM226.701 -250.339C226.459 -250.148 221.792 -245.909 221.642 -245.746C217.442 -241.968 231.525 -254.716 226.701 -250.339ZM149.69 92.9492C149.724 84.9581 149.629 90.7445 149.633 95.7134C149.633 96.0258 149.688 93.4748 149.69 92.9492ZM149.718 87.2654C149.811 81.0595 149.703 68.5634 149.698 78.4977C149.698 79.4612 149.715 87.5525 149.718 87.2654ZM192.809 -213.05C192.333 -212.383 188.097 -206.147 186.42 -203.409C186.425 -203.512 190.954 -210.491 192.809 -213.05ZM139.62 -33.6349C139.704 -33.2949 138.505 -59.3033 138.674 -61.1192C138.548 -56.9606 139.656 -33.9133 139.62 -33.6349ZM148.639 32.416C148.622 31.7635 147.173 22.964 147.162 23.2266C147.987 27.5147 149.003 35.332 148.639 32.416ZM136.713 161.342C136.38 161.708 140.361 156.319 131.371 169.351C130.032 171.253 134.763 164.424 134.268 165.091C133.298 166.519 132.514 167.64 131.88 168.54C136.176 162.528 139.964 155.913 140.293 155.256C142.024 152.259 136.917 161.21 136.713 161.342ZM90.7075 212.737C89.5606 213.758 82.7362 220.895 81.3882 222.724C81.1529 223.032 82.1388 221.654 79.3893 225.178C77.2691 228.078 80.3887 223.709 76.4001 229.464C72.6204 235.459 77.624 227.42 77.3497 227.98C76.6804 228.533 71.3417 238.136 71.6501 237.917C71.5143 237.56 77.3685 227.322 79.3599 225.182C81.6508 222.267 78.7739 225.717 82.7433 220.968C85.3103 218.052 83.9355 219.713 84.4812 219.102C84.8368 218.476 94.4473 208.992 90.6924 212.751C90.6974 212.746 90.7025 212.742 90.7075 212.737ZM130.726 170.17C131.049 169.716 131.427 169.184 131.88 168.54C131.496 169.087 131.111 169.632 130.726 170.17ZM277.45 -284.697C273.991 -283.11 284.218 -287.93 288.313 -289.247C288.352 -289.364 277.959 -285.058 277.45 -284.697ZM126.711 175.73C120.054 184.505 125.019 178.08 130.726 170.17C128.925 172.689 128.918 172.77 126.711 175.73ZM152.786 -128.534C152.636 -128.093 152.538 -127.814 152.516 -127.782C152.908 -128.943 152.95 -129.045 152.786 -128.534ZM145.291 -103.861C142.941 -95.3315 147.791 -112.626 147.788 -112.514C147.749 -112.465 145.37 -104.199 145.291 -103.861ZM149.638 103.2C149.646 102.393 149.69 114.93 149.698 96.7284C149.639 106.442 149.677 96.1935 149.667 96.3452C149.639 96.7406 149.588 113.06 149.578 116.674C149.615 119.504 149.611 105.864 149.638 103.221C149.638 103.214 149.638 103.207 149.638 103.2ZM137.548 270.633C135.341 270.795 128.405 271.391 123.654 271.774C125.838 271.583 132.894 270.953 137.548 270.633ZM80.5957 848.09C64.5475 844.883 56.0408 841.068 54.6907 840.586C53.4211 839.926 59.2362 842.93 73.7603 846.549C74.3538 846.746 82.5259 848.489 80.5957 848.09ZM80.4304 640.373C83.0966 638.862 74.3455 643.988 68.708 647.523C67.4271 648.314 62.6929 651.257 68.068 647.85C67.9171 647.994 76.2959 642.832 80.4304 640.373ZM122.991 180.716C121.192 183.328 114.643 190.597 110.842 194.125C113.157 191.966 120.341 184.41 122.991 180.716ZM2.82519 782.845C2.084 779.452 1.73863 777.138 1.81764 777.731C2.15507 780.394 3.69203 786.706 2.82519 782.845ZM140.799 154.519C141.174 154.209 134.445 165.294 133.769 165.943C135.432 163.702 140.734 154.844 140.799 154.519ZM128.674 271.327C126.62 271.497 137.175 270.55 140.273 270.434C140.068 270.411 130.015 271.203 128.674 271.327ZM6.41281 727.89C7.28361 724.917 10.0045 717.699 10.3528 716.917C10.6547 715.895 6.69352 726.496 6.41281 727.89ZM483.444 794.526C483.762 794.499 475.724 795.329 470 796.005C468.822 796.141 467.741 796.268 466.849 796.37C462.291 796.903 465.334 796.518 469.996 795.97C475.478 795.317 483.218 794.542 483.444 794.526ZM16.3126 812.592C22.4058 820.301 15.593 811.788 15.8869 812.091C19.4947 817.739 31.8974 828.618 23.601 820.93C21.9976 819.413 18.1216 815.109 16.3126 812.592ZM11.3528 805.026C10.7337 804.09 7.56385 797.917 10.3238 803.28C11.6655 805.802 14.1261 809.656 11.3528 805.026ZM410.808 804.275C402.259 805.554 441.412 799.453 442.562 799.451C443.158 799.371 443.549 799.321 443.772 799.293C445.211 799.076 452.629 798.085 453.493 798.009C451.267 798.29 445.196 799.11 444.491 799.207C444.187 799.247 443.96 799.277 443.804 799.297C441.179 799.598 412.432 803.936 410.808 804.275ZM346.265 816.326C355.938 814.256 357.679 814.024 356.843 814.191C346.298 816.381 353.166 814.91 352.841 814.972C352.102 815.113 344.619 816.703 346.295 816.32C346.285 816.322 346.275 816.324 346.265 816.326ZM397.535 806.503C397.934 806.426 406.12 805.032 406.458 804.983C413.172 803.869 390.01 807.821 397.535 806.503ZM67.9546 259.29C70.7135 265.249 67.1445 259.589 67.2559 255.176C67.2504 255.009 67.255 254.643 67.27 255.001C67.3273 255.334 67.1693 256.519 67.9546 259.29ZM9.08868 800.779C8.94534 800.47 7.88494 798.372 6.62038 795.177C2.04768 785.516 0.528318 765.264 0.8175 766.915C0.627912 768.818 2.39615 785.928 6.59308 795.188C8.80424 800.683 10.5309 803.578 9.08868 800.779ZM145.932 607.247C140.233 609.771 146.422 606.965 149.482 605.66C150.615 605.174 147.369 606.612 145.932 607.247ZM147.441 138.51C148.932 132.354 148.765 133.657 147.345 138.969C147.284 139.176 147.376 138.75 147.441 138.51ZM101.074 628.877C120.19 619.02 115.549 621.135 90.9669 634.466C91.7267 634.034 92.4896 633.602 93.2526 633.173C65.2096 649.163 91.2339 634.086 98.2451 630.428C100.889 629.005 98.6575 630.171 101.055 628.887C101.062 628.884 101.068 628.881 101.074 628.877ZM176.165 594.602C195.449 587.094 158.66 601.495 148.356 606.244C158.41 601.81 171.632 596.343 153.681 603.85C179.908 592.832 169.036 597.532 170.07 597.06C171.316 596.556 175.343 594.923 176.165 594.602ZM126.083 616.336C124.998 616.841 116.874 620.756 113.979 622.233C117.999 620.109 133.252 612.906 126.083 616.336ZM279.161 831.569C279.945 831.357 281.546 830.976 288.623 829.329C286.442 829.857 282.078 830.887 279.161 831.569ZM304.09 -293.475C305.796 -293.791 308.121 -294.144 310.278 -294.355C314.139 -294.745 317.429 -295.636 315.564 -295.217C315.415 -295.19 312.901 -294.631 310.276 -294.375C307.232 -294.081 304.097 -293.486 304.09 -293.475ZM17.8826 701.28C17.9042 700.059 33.2199 677.659 27.8759 685.357C25.7862 687.375 13.5606 708.836 17.8826 701.28ZM33.1788 828.934C31.2088 827.71 24.1975 821.645 24.1259 821.417C23.5463 821.132 32.2105 828.523 33.1788 828.934ZM328.096 -298.534C328.575 -298.939 341.265 -301.272 342.198 -300.846C342.254 -300.848 342.257 -300.849 342.198 -300.849C342.177 -300.849 342.149 -300.849 342.112 -300.848C338.779 -301.291 325.879 -298.055 328.096 -298.534ZM86.059 271.398C87.3461 271.638 88.9604 271.892 89.4168 271.948C90.4559 272.676 113.523 272.6 104.709 272.685C103.989 272.644 95.3055 273.068 86.2717 271.495C81.7654 270.696 77.2143 269.261 73.9105 267.001C70.5587 264.795 68.9865 261.86 68.5466 260.806C68.2353 259.902 69.3268 263.373 72.5277 265.938C75.6185 268.563 80.0236 269.972 81.72 270.441C82.2962 270.582 82.7316 270.758 86.0485 271.396C86.052 271.397 86.0555 271.397 86.059 271.398ZM315.142 823.131C316.108 822.832 342.347 817.05 342.059 817.193C333.071 819.102 324.099 821.084 315.142 823.131ZM301.845 826.21C296.26 827.506 309.327 824.418 313.19 823.555C313.233 823.557 302.657 826.014 301.845 826.21ZM4.09315 787.302C3.30862 784.677 5.6931 792.76 5.15171 790.954C4.70973 789.825 3.0865 783.917 2.73607 781.994C2.57907 781.461 3.96546 787.553 4.56757 789.265C5.34736 791.713 4.6005 789.337 5.49276 791.992C5.86637 793.068 6.25806 794.123 6.66752 795.158C9.65116 802.65 13.3235 808.925 18.1786 814.908C18.6716 815.524 14.8492 810.749 19.0886 815.969C19.7529 816.737 23.761 821.627 30.0815 826.588C44.3104 837.191 56.5656 842.569 78.3612 847.476C77.5093 847.501 61.3225 843.102 60.4784 842.555C42.2825 837.875 13.6484 816.549 7.48065 796.97C7.14847 796.189 6.90747 795.591 6.72568 795.135C5.84894 792.879 6.33558 794.201 5.71336 792.493C5.1747 790.859 5.75099 792.824 4.09315 787.302ZM301.511 -292.936C302.902 -293.218 306.486 -293.945 310.282 -294.317C312.632 -294.549 315.041 -295.021 317.005 -295.483C316.087 -295.291 313.384 -294.648 310.279 -294.339C307.277 -294.046 303.932 -293.464 301.511 -292.936ZM183.226 848.903C180.627 849.226 172.521 850.059 171.854 850.121C170.993 850.245 182.687 849.022 183.226 848.903ZM182.58 319.831C182.617 320.083 184.899 326.044 185.045 326.247C187.076 331.574 180.271 313.697 182.58 319.831ZM311.438 371.584C316.227 371.563 321.051 371.459 322.658 371.46C319.613 371.529 310.877 371.62 311.438 371.584ZM487.783 372.757C487.839 371.77 488.469 386.073 488.412 388.8C488.456 387.792 487.9 373.467 487.783 372.757ZM278.108 831.68C286.679 829.709 284.895 830.052 290.316 828.81C291.132 828.62 294.204 828.038 284.622 830.23C282.925 830.613 289.573 829.05 278.108 831.68ZM86.9994 636.7C85.0598 637.825 78.9982 641.329 74.9524 643.789C75.8417 643.204 84.0588 638.346 86.9994 636.7ZM355.173 -300.938C359.301 -300.951 378.363 -300.921 373.646 -300.958C372.976 -300.975 357.849 -300.97 355.173 -300.938ZM108.003 196.983C102.287 202.31 114.24 191.385 117.492 187.488C116.03 189.26 108.43 196.661 108.003 196.983ZM464.857 347.721C465.212 347.579 472.952 344.566 473.302 344.456C479.66 342.039 457.744 350.501 464.857 347.721ZM261.874 368.579C264.378 368.819 278.608 370.146 285.722 370.71C287.087 370.823 288.192 370.902 288.902 370.952C288.273 370.916 287.154 370.845 285.72 370.733C277.472 370.131 258.715 368.31 261.874 368.579ZM242.705 839.301C248.823 838.088 254.712 836.87 260.335 835.67C259.129 835.98 243.372 839.215 242.705 839.301ZM485.252 353.689C485.353 354.112 485.446 354.533 485.536 354.952C485.442 354.514 485.348 354.093 485.252 353.689ZM102.869 851.053C97.6159 850.54 98.7173 850.658 99.0337 850.702C102.955 851.145 108.857 851.569 102.869 851.053ZM307.516 -293.951C308.008 -294.009 309.003 -294.139 310.287 -294.265C313.707 -294.53 319.206 -295.91 322.778 -296.961C321.61 -296.656 314.906 -294.664 310.285 -294.283C309.223 -294.177 308.269 -294.056 307.516 -293.951ZM196.851 586.659C203.038 584.332 177.925 593.953 172.691 596.13C172.269 596.204 195.923 586.937 196.851 586.659ZM124.327 179.239C124.693 178.848 131.35 169.784 129.915 171.694C129.041 172.925 124.132 179.484 124.327 179.239ZM160.171 601.255C157.841 602.234 152.414 604.526 154.315 603.696C156.754 602.628 160.773 601 160.171 601.255ZM1.91744 748.636C1.84798 747.484 4.9485 732.838 3.61348 738.876C2.68916 743.071 2.66384 743.765 2.48169 744.754C1.90522 745.821 -0.151276 769.812 1.91744 748.636ZM338.585 536.088C333.352 538.072 327.002 540.407 321.495 542.41C323.738 541.591 336.355 536.922 338.585 536.088ZM93.888 209.947C94.9811 209.027 122.035 183.93 106.717 198.236C105.848 199.063 90.7878 212.687 93.888 209.947ZM278.108 831.68C276.99 831.936 275.751 832.217 274.331 832.536C275.741 832.218 276.982 831.937 278.108 831.68ZM179.695 849.239C181.712 849.007 171.544 850.096 168.539 850.349C167.618 850.483 179.422 849.303 179.695 849.239ZM321.086 542.587C317.92 543.752 312.15 545.818 308.214 547.22C308.876 546.972 319.713 543.076 321.086 542.587ZM488.516 399.405C488.473 403.846 488.35 409.039 488.298 411.984C488.273 413.43 488.186 414.354 488.193 414.394C488.179 414.529 488.15 414.844 488.092 415.368C488.151 415.905 486.909 422.837 485.807 425.725C483.012 432.695 487.933 423.291 488.279 411.983C488.686 395.04 488.604 375.511 488.446 406.829C488.482 404.347 488.507 401.866 488.516 399.405ZM235.37 365.687C231.588 365.232 220.997 363.959 223.743 364.307C225.654 364.568 239.154 366.16 235.37 365.687ZM381.65 371.661C380.506 371.649 370.094 371.282 369.828 371.281C375.801 371.559 386.845 371.816 381.65 371.661ZM207.021 357.976C205.007 356.56 202.706 354.436 202.917 354.633C204.614 356.483 210.414 360.342 207.021 357.976ZM260.282 835.527C256.804 836.279 245.689 838.607 243.29 839.096C242.837 839.181 241.621 839.416 239.359 839.847C239.366 839.846 239.373 839.845 239.38 839.844C236.6 841.452 145.645 853.983 206.621 845.603C208.519 845.306 205.936 845.706 213.682 844.465C214.192 844.382 214.451 844.362 216.02 844.102C219.698 843.555 238.917 840.048 242.823 839.2C242.857 839.198 243.109 839.152 243.641 839.049C248.31 838.182 262.981 834.968 260.282 835.527ZM402.379 371.366C400.273 371.55 393.605 371.767 392.916 371.769C396.22 371.842 407.27 371.032 402.379 371.366ZM94.784 209.217C97.9375 206.307 105.957 199.072 103.519 201.244C102.02 202.555 91.1344 212.539 94.784 209.217ZM335.94 371.045C360.381 370.655 341.774 370.934 345.517 370.844C342.326 370.894 339.134 370.966 335.94 371.045ZM370.833 811.232C367.004 811.968 371.491 811.037 375.716 810.266C377.041 810.025 372.976 810.82 370.833 811.232ZM545.417 789.504C542.091 789.706 558.32 788.523 551.998 789.029C551.704 789.054 545.655 789.49 545.417 789.504ZM423.074 802.095C420.464 802.535 418.76 802.791 411.399 803.981C422.294 802.216 412.181 803.796 423.074 802.095ZM488.203 414.324C488.198 414.365 488.194 414.401 488.193 414.394C488.198 414.347 488.201 414.327 488.203 414.324ZM192.022 340.177C190.43 337.507 186.718 329.702 187.806 332.035C187.868 332.279 191.308 339.113 192.022 340.177ZM243.29 839.096C243.691 839.022 243.489 839.065 242.823 839.2C242.792 839.203 242.963 839.165 243.29 839.096ZM229.243 364.916C228.934 364.912 241.922 366.431 242.445 366.473C249.908 367.265 234.601 365.582 229.243 364.916ZM146.647 141.908C146.867 141.28 145.438 145.319 144.377 147.728C143.586 149.606 145.928 144.293 146.647 141.908ZM448.128 798.464C452.225 797.911 457.999 797.179 459.067 797.073C456.318 797.404 448.044 798.488 448.128 798.464ZM539.062 789.927C534.185 790.307 523.042 791.085 515.932 791.607C515.796 791.567 534.482 790.261 539.062 789.927ZM271.28 833.123C270.903 833.216 260.818 835.421 262.19 835.143C264.207 834.755 274.151 832.497 271.28 833.123ZM138.038 159.822C135.631 163.75 141.33 154.793 143.238 150.332C144.401 148.133 138.607 159.243 138.038 159.822ZM181.3 315.415C179.452 309.536 183.971 324.14 185.104 326.028C183.934 323.415 181.915 317.515 181.3 315.415ZM364.445 370.984C345.205 370.445 355.684 370.845 359.093 370.879C359.575 370.88 364.916 370.997 364.445 370.984ZM403.069 -300.571C405.504 -300.554 397.681 -300.673 395.015 -300.677C394.688 -300.678 394.439 -300.678 394.295 -300.676C394.098 -300.674 394.408 -300.667 395.015 -300.659C396.917 -300.635 401.743 -300.584 403.069 -300.571ZM437.129 489.542C437.784 489.069 438.434 488.592 439.07 488.119C438.594 488.475 437.962 488.942 437.129 489.542ZM154.644 271.087C161.025 272.871 163.193 275.071 164.346 275.877C165.446 276.779 165.404 276.751 165.819 277.135C167.686 278.738 171.083 283.452 172.874 287.841C170.718 282.909 167.707 278.284 163.4 275.194C165.348 276.068 172.292 283.871 175.015 293.645C178.041 303.158 180.326 312.61 180.545 312.956C180.842 314.052 177.676 302.566 177.594 302.239C177.466 301.761 177.038 299.955 176.734 298.9C176.392 298.103 174.579 289.795 170.124 282.482C165.846 274.803 156.967 271.481 154.644 271.087ZM324.157 371.241C327.261 371.186 328.144 371.192 329.584 371.153C330.075 371.14 330.154 371.111 331.83 371.066C329.273 371.126 326.716 371.187 324.157 371.241ZM130.751 270.86C127.05 271.132 142.866 269.807 144.437 270.017C144.504 270.017 144.55 270.017 144.571 270.018C145.207 270.026 145.075 270.029 144.437 270.031C142.23 269.957 133.21 270.657 130.751 270.86ZM222.767 364.099C222.737 364.095 222.678 364.087 222.593 364.077C221.718 363.983 218.222 363.448 215.127 362.266C212.017 361.14 209.406 359.499 209.449 359.54C211.257 360.915 218.748 363.896 222.591 364.093C224.793 364.365 225.543 364.453 222.767 364.099ZM333.9 371.018C338.55 370.905 347.331 370.8 346.323 370.78C346.316 370.781 346.309 370.781 346.302 370.781C342.17 370.832 338.036 370.922 333.9 371.018ZM129.24 172.938C134.302 165.999 131.921 169.293 127.375 175.4C126.019 177.266 128.403 174.073 129.24 172.938ZM143.652 149.69C144.172 148.63 146.923 142.482 148.266 136.7C149.699 130.941 149.888 125.758 149.751 127.614C150.031 128.988 146.873 142.65 146.306 143.162C145.941 144.071 147.549 139.897 144.837 146.868C145.039 146.477 143.325 150.433 143.652 149.69ZM133.397 167.174C138.216 160.142 139.032 158.402 135.612 163.81C134.241 165.905 132.698 168.168 133.397 167.174ZM111.418 194.083C113.646 191.976 119.367 186.135 122.732 181.654C118.123 187.57 112.774 192.896 107.235 198.021C106.608 198.625 109.495 195.953 111.433 194.069C111.428 194.074 111.423 194.079 111.418 194.083ZM590.355 785.3C583.581 786.024 599.178 784.279 599.833 784.162C601.793 783.946 593.385 784.994 590.355 785.3ZM455.925 -294.862C457.764 -294.413 458.969 -294.126 462.981 -292.999C458.962 -294.192 454.885 -295.184 450.773 -296.005C447.562 -296.561 453.919 -295.378 455.925 -294.862ZM471.19 -290.104C470.753 -290.262 472.511 -289.565 469.829 -290.546C469.089 -290.811 468.018 -291.194 466.454 -291.713C464.857 -292.226 466.624 -291.728 469.847 -290.598C476.633 -288.447 488.973 -281.973 491.837 -280.103C487.07 -283.049 476.035 -288.499 471.19 -290.104ZM513.627 -265.575C513.887 -265.386 505.018 -271.306 503.986 -271.98C498.599 -275.578 512.19 -266.586 513.627 -265.575ZM484.829 -283.585C489.234 -281.244 479.464 -286.412 476.389 -287.606C476.132 -287.813 484.182 -284.017 484.829 -283.585ZM521.552 789.673C516.149 790.004 511.329 790.49 519.634 789.855C520.03 789.825 521.782 789.66 521.552 789.673ZM504.902 -271.284C500.746 -274.059 509.975 -267.945 512.716 -266.097C512.961 -265.91 505.537 -270.868 504.902 -271.284ZM517.741 789.808C510.567 790.294 513.103 790.253 513.999 790.191C517.692 789.933 530.344 788.977 532.928 788.781C513.987 790.147 521.118 789.587 517.741 789.808ZM484.694 792.626C478.054 793.276 495.031 791.687 498.273 791.412C494.968 791.682 486.582 792.431 484.694 792.626ZM444.476 797.346C440.92 797.814 430.359 799.331 428.594 799.63C432.464 799.032 442.978 797.563 444.476 797.346ZM436.424 798.407C430.87 799.18 429.552 799.465 435.947 798.508C436.195 798.471 436.628 798.379 436.424 798.407ZM405.273 803.233C401.639 803.808 397.515 804.605 403.392 803.604C405.138 803.309 405.657 803.173 405.273 803.233ZM508.754 790.327C503.501 790.717 496.741 791.323 507.953 790.442C504.015 790.756 500.078 791.083 496.143 791.429C510.827 790.243 509.745 790.291 513.962 789.967C519.856 789.536 519.396 789.644 518.214 789.752C523.043 789.342 543.575 787.934 555.426 787.004C545.008 787.8 528.084 788.925 517.793 789.669C514.854 789.88 512.005 790.112 509.5 790.302C505.484 790.608 509.049 790.305 508.775 790.325C508.768 790.326 508.761 790.326 508.754 790.327ZM364.513 810.682C353.902 812.753 360.622 811.492 366.613 810.302C366.869 810.25 364.777 810.631 364.513 810.682ZM516.693 -263.129C504.572 -270.969 513.764 -265.968 487.971 -281.48C498.931 -275.19 488.609 -281.189 490.75 -279.964C492.485 -279.012 498.781 -275.075 495.131 -277.379C500 -274.486 520.445 -260.614 521.463 -260.133C521.454 -260.138 521.445 -260.144 521.437 -260.149C521.998 -259.794 520.545 -260.593 516.693 -263.129ZM444.394 797.128C440.807 797.517 439.427 797.867 432.399 798.805C423.069 800.246 458.219 795.141 462.52 794.865C424.25 799.68 487.825 791.859 461.083 794.986C465.079 794.506 467.866 794.189 469.766 793.972C478.348 793.018 468.914 794.022 471.698 793.692C475.335 793.232 487.828 792.029 487.191 792.064C487.184 792.065 487.177 792.066 487.17 792.066C481.36 792.613 475.554 793.212 469.756 793.882C467.928 794.093 466.101 794.309 464.274 794.529C471.743 793.722 456.167 795.549 450.888 796.203C448.722 796.506 446.558 796.814 444.394 797.128ZM487.543 792.162C486.787 792.191 470.182 793.928 471.259 793.862C473.468 793.538 497.052 791.289 487.543 792.162ZM560.746 786.533C554.78 787.017 545.545 787.679 542.293 787.943C548.267 787.518 557.501 786.832 560.746 786.533ZM256.547 834.536C249.118 836.16 272.049 831.219 265.417 832.621C265.156 832.684 256.832 834.481 256.547 834.536ZM427.199 799.621C419.517 800.762 423.16 800.3 428.845 799.417C429.174 799.366 427.554 799.568 427.199 799.621ZM506.938 -269.599C506.538 -269.95 488.972 -281.281 485.568 -282.755C487.605 -282.111 507.511 -269.405 506.938 -269.599ZM571.235 785.554C559.368 786.53 543.25 787.777 541.481 787.904C539.722 788.028 542.477 787.79 542.077 787.818C541.164 787.886 522.431 789.213 521.524 789.286C520.875 789.335 524.269 789.146 520.404 789.442C527.948 788.879 562.184 786.436 563.949 786.207C565.323 786.082 554.959 786.911 571.215 785.556C571.221 785.555 571.228 785.554 571.235 785.554ZM537.06 788.208C541.741 787.899 528.619 788.832 525.442 789.05C518.383 789.533 536.46 788.247 537.06 788.208ZM505.494 790.493C503.994 790.589 490.473 791.727 489.328 791.878C495.726 791.306 508.894 790.235 505.494 790.493ZM356.169 812.168C352.715 812.863 343.225 814.821 342.688 814.964C346.136 814.224 355.63 812.295 356.169 812.168ZM441.873 -296.265C447.635 -295.447 434.279 -297.302 430.336 -297.503C430.133 -297.6 441.394 -296.416 441.873 -296.265ZM425.866 799.604C423.776 799.752 381.804 806.871 375.97 808.158C381.682 806.926 423.277 799.879 425.194 799.738C425.747 799.651 426.129 799.565 425.866 799.604ZM517.35 789.438C521.239 789.12 523.781 788.98 524.272 788.945C529.084 788.606 539.06 787.893 536.875 788.08C528.385 788.66 509.609 790.069 517.35 789.438ZM353.174 812.624C339.018 815.539 366.224 810.016 362.653 810.728C362.422 810.767 354.637 812.318 353.174 812.624ZM430.568 798.888C432.801 798.509 454.737 795.376 469.736 793.709C475.847 793.007 480.8 792.52 482.77 792.325C478.369 792.796 474.583 793.183 469.738 793.732C467.879 793.944 465.863 794.178 463.597 794.452C461.393 794.719 461.984 794.669 461.748 794.698C457.933 795.168 460.785 794.792 458.433 795.084C456.934 795.171 426.125 799.517 430.568 798.888ZM519.57 789.253C521.943 789.054 548.443 787.177 549.506 787.082C557.483 786.554 521.633 789.109 519.57 789.253ZM426.698 799.424C431.21 798.64 452.165 795.76 437.833 797.797C436.465 797.992 430.668 798.806 426.698 799.424ZM354.676 812.262C353.975 812.385 339.224 815.453 338.966 815.543C341.09 815.059 362.608 810.658 354.676 812.262ZM362.323 810.661C361.967 810.734 365.438 810.075 358.509 811.455C357.933 811.575 356.844 811.733 348.149 813.546C346.385 813.915 343.658 814.515 343.855 814.476C352.906 812.572 380.224 807.132 362.323 810.661ZM520.053 789.186C518.623 789.273 522.065 788.973 525.173 788.776C526.506 788.693 524.023 788.898 520.053 789.186ZM307.988 822.426C312.96 821.26 305.925 822.863 298.935 824.517C294.114 825.659 288.967 826.873 288.458 826.995C288.855 826.913 294.196 825.663 298.941 824.542C303.363 823.498 307.585 822.521 307.988 822.426ZM428.295 -297.446C428.302 -297.445 428.309 -297.445 428.315 -297.444C421.001 -297.942 425.533 -297.66 425.191 -297.689C409.583 -298.517 413.711 -298.129 411.269 -298.234C406.02 -298.33 406.87 -298.396 398.004 -298.454C412.656 -298.338 399.321 -298.473 398.905 -298.495C397.267 -298.629 418.411 -298.266 425.666 -297.681C426.681 -297.637 419.198 -298.076 421.796 -297.946C430.279 -297.776 456.237 -294.496 428.295 -297.446ZM527.57 788.602C530.978 788.342 556.816 786.495 549.968 787.016C548.87 787.12 522.565 789 527.57 788.602ZM490.158 416.899C489.501 420.883 490.488 416.553 490.578 412.027C490.631 409.533 490.689 406.888 490.699 405.921C490.71 405.067 490.619 408.677 490.541 412.026C490.503 413.995 490.291 415.902 490.158 416.899ZM457.252 347.806C450.179 350.487 443.36 354.414 451.668 350.244C452.536 349.771 458.047 347.48 457.252 347.806ZM166.885 600.984C174.043 598.098 173.595 598.213 168.347 600.35C166.496 601.109 166.66 601.075 166.885 600.984ZM439.866 490.322C440.537 489.92 447.581 484.298 447.28 484.444C444.802 486.694 435.791 493.293 439.866 490.322ZM164.624 601.928C168.85 600.172 161.542 603.113 156.419 605.357C159.028 604.237 164.189 602.106 164.624 601.928ZM410.888 801.756C407.102 802.396 396.389 804.204 390.25 805.32C389.578 805.382 406.484 802.453 410.888 801.756ZM485.654 346.986C484.09 343.63 485.106 345.545 486.081 348.179C487.052 350.822 487.768 354.195 487.637 353.512C487.686 353.322 485.916 347.264 485.654 346.986ZM3.25102 765.214C2.98878 760.195 3.81158 776.135 3.60694 771.745C3.53976 771.529 3.21047 765.495 3.25102 765.214ZM32.6609 825.529C29.3092 823.578 18.2795 811.671 22.5481 816.31C23.018 817.23 32.2661 825.549 32.6609 825.529ZM410.834 -298.217C412.912 -298.15 400.853 -298.368 399.121 -298.368C398.443 -298.382 408.129 -298.348 410.834 -298.217ZM213.664 582.947C217.412 581.564 227.17 578.068 228.883 577.441C224.275 579.076 212.414 583.353 213.664 582.947ZM490.526 378.871C490.391 372.746 489.272 362.287 489.479 364.883C490.521 376.42 489.636 363.442 490.526 378.871ZM141.034 612.156C143.955 610.844 146.178 609.809 145.846 609.952C142.663 611.329 138.128 613.447 141.034 612.156ZM366.251 527.828C366.436 527.792 375.95 523.87 374.672 524.374C374.258 524.552 366.109 527.876 366.251 527.828ZM279.097 829.047C274.477 830.093 288.571 826.818 292.616 825.873C294.586 825.45 279.693 828.926 279.097 829.047ZM62.9989 654.143C62.9309 654.196 63.3123 653.946 63.9528 653.535C66.8705 651.633 75.1621 646.481 70.7674 649.181C69.7351 649.811 65.7826 652.312 63.9416 653.518C63.3895 653.877 63.0297 654.12 62.9989 654.143ZM6.29491 786.231C5.17397 781.713 6.30068 787.593 8.93042 794.262C12.1691 802.982 18.845 811.953 15.1796 806.525C14.8822 806.114 11.1588 800.043 8.96367 794.249C7.36554 790.232 6.3999 786.599 6.29491 786.231ZM54.0054 837.542C52.3371 836.788 53.1293 837.222 60.2922 839.869C61.2296 840.218 56.8309 838.65 57.5926 838.929C57.963 839.34 73.7929 844.155 74.6218 844.12C75.4283 844.309 74.4875 844.049 75.3066 844.238C76.2315 844.514 86.2663 846.626 91.5312 847.294C101.612 848.654 102.639 848.531 103.484 848.647C105.915 848.866 109.93 849.211 114.837 849.443C139.537 850.978 177.388 847.545 196.79 844.689C179.479 847.065 162.907 848.778 145.548 849.513C150.633 849.409 120.01 850.094 137.925 849.729C133.806 849.821 113.877 850.294 94.4288 847.722C74.884 845.504 56.7669 838.897 54.0243 837.55C54.018 837.547 54.0117 837.545 54.0054 837.542ZM431.053 361.014C434.773 359.208 417.59 367.744 412.865 367.761C412.456 367.835 412.159 367.887 412.001 367.916C412.221 367.881 412.514 367.833 412.867 367.772C417.406 367.535 430.665 361.422 431.053 361.014ZM491.01 393.981C491.005 396.141 491.145 398.226 490.866 409.609C490.865 409.62 490.865 409.63 490.865 409.641C490.784 412.946 490.845 409.187 490.826 409.788C490.824 409.847 490.796 410.936 490.769 412.03C490.673 414.635 490.419 417.732 490.734 412.03C490.735 411.942 490.737 411.851 490.739 411.755C490.997 398.627 490.829 410.534 490.957 403.51C491.012 402.631 490.997 389.391 490.955 390.145C490.959 390.218 490.992 394.222 490.983 394.887C490.966 397.358 490.943 396.168 490.942 396.514C490.951 397.19 490.883 405.239 490.722 412.029C490.648 416.642 489.699 420.648 489.406 421.835C489.269 422.187 490.565 417.927 490.693 412.029C490.974 402.105 490.908 387.739 490.844 386.895C490.831 386.046 490.903 386.403 490.89 385.52C490.954 385.07 490.321 371.183 490.066 369.381C490.024 368.857 489.99 368.458 489.965 368.166C490.221 370.267 488.768 357.716 488.702 358.089C488.832 358.328 489.919 366.937 489.887 367.262C489.899 367.399 489.91 367.518 489.92 367.629C490.162 365.83 491.242 395.118 491.004 388.806C491.1 397.296 490.956 387.605 491.01 393.981ZM485.107 434.36C485.47 433.548 485.819 432.731 486.155 431.909C480.59 445.306 470.67 458.608 460.462 471.366C460.02 471.92 459.569 472.472 459.108 473.019C456.218 476.334 459.63 472.606 455.721 476.842C452.548 480.195 448.669 483.503 450.529 481.834C451.011 481.476 457.565 475.214 460.457 471.362C460.512 471.293 460.565 471.226 460.618 471.159C469.105 460.402 466.874 463.044 467.382 462.426C467.932 461.734 473.124 454.811 475.705 450.831C481.93 440.744 485.648 436.276 489.804 420.247C487.425 429.474 489.122 424.593 485.107 434.36ZM19.1998 704.248C18.9006 704.721 14.6181 713.321 13.3602 716.578C13.4893 716.037 17.4803 707.293 19.1998 704.248ZM142.419 -33.1061C142.342 -34.6602 142.544 -29.3376 142.537 -24.6949C142.535 -20.5119 142.859 -16.9131 142.69 -19.6886C142.664 -20.2491 142.559 -22.3124 142.564 -24.6949C142.571 -27.8421 142.471 -31.52 142.419 -33.1061ZM152.473 66.3224C152.492 69.308 152.483 57.2861 152.446 57.3081C152.441 57.3258 152.475 65.938 152.473 66.3224ZM331.863 541.293C331.336 541.495 323.622 544.319 323.378 544.402C318.262 546.256 343.631 536.907 331.863 541.293ZM125.444 181.968C127.472 179.274 126.86 180.074 125.298 182.129C122.115 186.606 113.465 195.417 118.009 190.719C118.377 190.452 124.428 183.505 125.313 182.14C125.379 182.053 125.424 181.994 125.444 181.968ZM94.531 212.823C96.2968 211.097 104.526 203.709 104.628 203.596C104.774 203.439 95.3734 211.911 94.531 212.823ZM139.124 613.174C140.222 612.695 126.976 618.76 122.443 621.02C121.331 621.484 134.495 615.229 139.124 613.174ZM224.626 579.214C166.97 600.572 179.574 595.599 228.069 577.96C228.147 577.961 228.281 577.902 224.626 579.214ZM151.303 607.8C153.339 606.882 159.756 604.147 164.116 602.349C163.335 602.68 154.414 606.428 151.303 607.8ZM141.53 -59.6189C141.519 -55.794 142.26 -38.7345 142.11 -41.763C142.028 -42.4843 141.388 -61.0374 141.53 -59.6189ZM327.034 543.112C328.4 542.674 311.007 548.961 309.665 549.408C304.282 551.304 325.64 543.668 327.034 543.112ZM62.6119 654.628C59.9005 656.384 52.6149 661.926 48.3585 666.021C50.2388 664.087 58.3817 657.292 62.6119 654.628ZM99.511 632.799C99.1773 632.964 91.9033 636.956 91.5894 637.147C85.6207 640.393 106.191 629.119 99.511 632.799ZM438.366 -296.175C438.096 -296.231 431.877 -296.872 431.658 -296.871C426.109 -297.472 444.768 -295.503 438.366 -296.175Z" fill="var(--Cladonia-3, #97CFFF)"/>
</svg>
