<svg width="782" height="648" viewBox="0 0 782 648" fill="none" xmlns="http://www.w3.org/2000/svg">
<path d="M697.791 -701.299C727.065 -690.859 749.112 -673.337 775.446 -656.603L892.2 900.493C827.673 908.548 762.484 910.002 697.791 917.456C612.274 927.309 526.978 943.66 443.252 963.499L442.013 963.792C333.522 989.501 62.541 1053.72 8.594 917.456C-20.5092 843.947 28.6079 745.839 91.3731 705.284C242.587 607.579 422.732 572.193 585.89 499.305C618.256 484.846 659.596 462.238 682.151 433.876C700.779 410.453 726.328 377.518 726.911 346.638C727.288 326.695 729.911 248.473 712.351 241.09C710.961 240.506 687.569 250.161 685.387 250.783C660.976 257.748 638.206 278.22 613.124 282.555C584.65 287.476 552.007 283.632 523.065 283.632C490.073 283.632 456.193 285.991 423.298 283.363C392.025 280.865 360.263 277.548 329.194 273.67C300.222 270.054 285.752 243.107 275.267 219.55C257.543 179.728 263.76 133.389 212.441 133.389C181.636 133.389 89.4728 152.167 100.022 104.765C110.39 58.1735 154.702 38.8707 182.241 2.53113C202.997 -24.8568 222.148 -51.051 222.148 -85.7842C222.148 -124.188 222.705 -162.627 222.148 -201.025C221.636 -236.291 207.587 -269.16 207.587 -304.688C207.587 -335.817 202.44 -371.945 210.284 -402.158C228.416 -471.995 256.053 -552.399 304.657 -607.868C339.809 -647.984 404.696 -699.549 459.969 -705.068C476.295 -706.699 490.185 -714.488 507.426 -714.762C533.271 -715.171 559.198 -714.97 585.048 -714.77L586.16 -714.762C623.848 -714.47 662.018 -714.057 697.791 -701.299Z" fill="var(--Cladonia-5, #4C9CFF)"/>
</svg>
