<svg width="895" height="648" viewBox="0 0 895 648" fill="none" xmlns="http://www.w3.org/2000/svg">
<path d="M478.507 -710.09C476.123 -709.35 466.501 -706.997 462.222 -706.741C462.209 -706.74 462.196 -706.738 462.183 -706.737C462.196 -706.738 462.209 -706.74 462.222 -706.741C467.142 -706.722 487.13 -712.559 478.507 -710.09ZM211.251 -387.07C211.701 -390.625 212.28 -394.16 213.024 -397.656C210.77 -387.738 209.826 -373.993 209.76 -364.503C209.74 -362.949 209.758 -366.981 209.716 -363.303C209.699 -359.627 209.723 -360.336 209.795 -354.983C209.737 -348.986 211.174 -321.444 211.307 -311.836C211.355 -309.525 211.384 -307.2 211.384 -304.888C211.304 -271.545 224.339 -239.386 225.828 -205.469C222.818 -236.748 225.609 -215.139 225.904 -201.245C225.941 -198.69 225.97 -196.407 225.99 -194.784C225.98 -192.489 226.232 -192.853 226.206 -155.743C226.128 -132.163 226.108 -153.939 225.978 -114.599C226.205 -144.849 226.014 -115.099 225.974 -91.3928C225.974 -90.5888 225.971 -88.6657 225.97 -85.9842C226.78 -74.7403 220.727 -51.1813 214.848 -40.8294C212.652 -36.2911 208.908 -29.582 205.284 -23.993C202.795 -20.1436 200.846 -17.2759 196.897 -11.7536C193.26 -6.68774 189.525 -1.73175 185.788 3.20062C170.35 23.6044 149.741 38.5045 132.167 56.5132C145.001 43.4107 122.012 66.7346 121.668 68.3395C119.389 71.2801 123.306 66.0234 127.224 61.6946C131.121 57.353 134.743 53.7339 130.093 58.5399C117.634 71.5842 107.504 87.1928 103.737 104.857C103.609 105.433 103.497 105.998 103.4 106.551C103.513 105.907 103.631 105.341 103.739 104.858C104.432 101.903 104.311 102.443 103.761 104.863C103.088 107.845 102.213 113.793 104.254 118.864C106.175 124.039 110.814 127.198 112.621 128.269C110.892 128.26 130.519 136.696 154.243 135.452C177.619 135.164 203.02 132.007 209.876 131.961C211.986 131.893 202.243 132.17 214.841 131.803C219.202 131.951 226.511 131.548 237.065 135.717C241.397 137.686 239.762 137.001 241.936 138.201C243.235 138.838 251.214 144.035 255.966 152.539C256.875 154.037 254.369 150.023 254.873 150.873C255.139 151.74 260.301 157.096 266.615 180.43C264.025 169.242 269.083 194.959 278.94 218.783C285.796 235.052 295.476 249.86 299.884 254.325C297.844 252 295.947 249.542 294.17 246.995C303.267 259.393 306.257 260.375 308.783 262.626C314.688 267.222 323.059 271.103 331.765 272.102C339.244 273.043 346.526 273.917 352.51 274.606C367.83 276.341 367.886 276.311 385.765 278.156C381.522 277.72 377.281 277.271 373.042 276.81C385.385 278.121 397.74 279.328 410.105 280.419C381.472 277.881 416.278 281.011 418.576 281.149C422.235 281.45 416.976 281.045 423.096 281.544C423.517 281.578 423.254 281.546 425.812 281.742C427.092 281.838 429.083 281.991 432.233 282.183C451.926 283.154 448.826 282.834 457.111 282.984C457.871 282.966 455.207 283.027 469.534 282.923C515.1 282.079 469.302 283.033 467.561 282.963C465.273 282.839 480.859 283.457 442.219 282.748C455.184 283.154 456.498 283.07 457.957 283.108C459.249 283.195 481.758 282.926 483.002 282.852C494.075 282.601 484.331 282.779 486.489 282.727C488.249 282.689 515.409 282.087 521.793 282.038C523.709 282.041 524.899 282.052 525.465 282.06C526.006 282.069 525.976 282.076 525.465 282.082C522.881 282.08 508.011 282.225 492.51 282.627C489.329 282.709 513.26 282.204 514.525 282.229C519.177 282.169 522.743 282.152 525.465 282.149C540.844 282.286 529.349 282.101 535.094 282.16C538.652 282.202 551.23 282.696 539.614 282.243C567.634 283.241 550.639 282.674 552.449 282.737C555.18 282.856 564.965 283.191 566.189 283.217C567.985 283.271 561.738 283.116 568.822 283.322C570 283.357 581.41 283.568 566.698 283.21C586.356 283.663 584.721 283.359 591.375 283.295C604.843 282.521 601.15 282.784 606.435 282.311C611.181 281.784 613.833 281.311 615.299 281.052C618.125 280.506 616.544 280.749 617.02 280.657C622.612 281.578 657.221 263.126 665.818 258.291C662.317 260.027 638.553 273.522 632.846 275.512C623.508 279.244 630.183 276.891 637.257 273.563C644.319 270.216 651.792 266.018 645.325 269.577C650.777 266.661 656.156 263.567 661.627 260.587C671.965 255.674 656.7 261.537 685.435 249.954C687.872 249.196 682.552 250.7 677.552 252.841C672.533 254.939 667.776 257.421 670.175 256.193C672.281 255.053 682.206 250.612 687.419 249.294C688.814 248.822 689.977 248.34 690.017 248.329C690.136 248.271 688.884 248.785 687.415 249.281C683.063 250.426 675.898 253.469 677.587 252.752C678.767 252.257 682.551 250.641 687.407 249.25C702.607 243.253 728.333 233.927 695.918 246.033C703.763 243.206 707.653 240.752 715.249 239.705C718.668 241.216 720.731 244.329 722.434 247.818C724.005 251.156 720.514 243.44 718.951 242.299C716.985 241.013 725.473 244.299 728.806 273.981C729.323 275.191 724.78 250.596 723.529 250.078C723.217 249.214 724.709 253.552 724.89 254.357C728.279 256.762 732.037 317.159 730.88 329.819C730.932 327.617 730.849 335.978 730.607 346.462C730.649 360.667 723.277 377.165 721.953 379.911C721.352 381.262 723.645 376.236 723.003 377.679C719.536 387.007 705.194 409.444 697.561 419.057C689.256 429.98 690.248 428.564 689.799 429.181C686.057 433.92 689.036 430.116 686.741 433.013C686.468 433.358 686.069 433.86 685.57 434.487C680.307 442.763 654.887 463.708 653.15 464.323C652.689 464.652 657.811 461.015 651.001 465.908C649.719 466.593 650.887 466.734 629.651 479.534C603.742 494.346 647.564 469.104 636.839 475.328C620.376 485.172 620.758 484.584 616.212 487.102C614.626 487.953 602.746 494.153 589.467 500.07C598.977 495.796 608.372 491.221 617.574 486.292C610.446 490.149 597.734 496.396 588.834 500.321C586.475 501.374 584.394 502.293 582.773 503.004C579.002 504.649 582.099 503.267 573.896 506.818C572.142 507.542 565.315 510.721 586.737 501.263C588.465 500.542 578.266 505.031 573.516 507.069C572.797 507.378 569.994 508.662 563.896 511.19C562.4 511.715 578.373 505.208 537.192 522.049C535.863 522.584 540.498 520.759 539.199 521.283C538.315 521.65 527.747 525.813 526.575 526.263C525.381 526.734 530.499 524.758 529.078 525.32C521.792 528.198 512.165 531.807 527.226 525.974C522.194 527.927 517.152 529.857 512.101 531.766C517.527 529.778 504.189 534.81 497.184 537.404C452.256 553.905 482.36 542.906 474.642 545.761C462.203 550.28 471.679 546.767 453.185 553.388C451.467 553.978 473.894 546.18 430.14 561.519C436.599 559.261 443.056 556.993 449.507 554.711C445.767 555.969 426.195 562.902 424.686 563.422C407.497 569.415 419.112 565.35 393.59 574.248C391.31 575.043 386.339 576.75 381.467 578.455C361.272 585.518 408.14 569.208 409.434 568.796C410.042 568.594 359.632 586.105 357.917 586.747C350.566 589.289 380.742 578.737 374.98 580.719C372.832 581.328 301.188 606.811 287.045 612.526C270.604 618.799 263.233 621.704 263.165 621.834C258.514 623.574 254.475 625.29 252.39 626.139C227.239 636.513 227.202 636.565 205.92 646.11C201.232 648.243 197.276 650.05 195.628 650.826C194.67 651.279 196.476 650.464 191.782 652.686C185.145 655.541 146.509 675.211 143.798 676.966C140.938 678.448 159.931 668.322 156.521 670.123C142.719 677.353 129.66 684.638 116.2 692.677C110.614 696.031 113.473 694.289 111.064 695.748C110.284 696.198 99.5483 702.846 94.4768 706.173C92.7481 707.295 91.6812 708.033 91.8831 707.897C92.0937 707.758 93.0198 707.13 94.484 706.184C105.782 698.27 151.693 672.374 137.601 680.39C134.512 682.084 123.671 688.253 125.425 687.324C114.974 693.377 104.668 699.666 94.5108 706.226C53.0853 733.76 23.529 777.803 10.01 825.517C19.2421 791.235 39.8082 755.5 66.1832 729.271C69.6389 725.484 82.7806 714.363 81.2109 715.755C56.2362 735.279 32.6872 767.937 20.6322 795.817C20.2358 796.705 21.6624 793.433 20.1792 796.758C17.1142 802.87 10.0601 823.89 9.40186 827.576C9.15203 828.173 12.6737 816.066 11.5664 819.736C8.71184 829.159 8.28839 831.633 6.61869 839.921C3.92482 846.154 2.56878 890.34 7.12863 900.77C8.61355 906.378 6.30828 898.618 5.04385 889.583C3.67549 880.561 3.69858 870.353 3.72702 871.985C3.92418 887.287 6.63428 902.677 12.2281 916.768C17.4841 930.125 25.2194 942.057 34.6258 951.831C34.9735 952.18 32.0045 949.096 36.368 953.563C44.1971 961.135 46.6051 962.661 50.8718 965.85C55.2492 969.524 73.1281 979.13 75.7603 979.964C76.0824 980.12 72.319 978.445 71.7536 978.16C63.7743 974.299 61.2539 972.533 60.5172 972.144C57.906 970.601 55.403 969.027 53.1495 967.488C49.454 964.923 47.393 963.428 42.8497 959.611C39.7554 956.92 42.7026 959.568 39.7516 956.917C38.4656 956.125 27.9001 944.562 27.1607 943.257C26.6003 943.06 47.1782 969.33 79.3085 981.572C110.608 994.849 146.73 997.742 152.97 998.374C141.986 997.352 130.986 995.844 120.055 993.655C142.113 998.286 169.266 999.499 171.167 999.647C254.945 1002.87 338.105 986.866 419.657 968.204C433.204 965.056 427.241 966.51 445.393 962.208C446.816 961.871 448.387 961.499 450.128 961.088C448.548 961.455 446.968 961.822 445.389 962.191C441.069 963.2 435.988 964.39 431.627 965.401C434.203 964.799 439.587 963.53 445.382 962.16C466.16 957.183 500.371 949.677 507.226 948.258C508.374 948.02 509.947 947.596 523.637 944.763C535.788 942.272 537.754 941.941 544.261 940.662C549.726 939.593 555.865 938.407 557.489 938.101C558.735 937.866 559.233 937.796 562.231 937.235C571.702 935.479 564.013 936.833 573.432 935.181C571.142 935.603 568.854 936.029 566.566 936.458C577.995 934.335 593.642 931.613 576.79 934.647C573.894 935.177 576.377 934.7 574.217 935.094C489.796 951.374 557.146 938.044 586.826 932.844C594.432 931.41 637.246 924.49 638.689 924.392C640.673 924.107 633.337 925.229 642.963 923.822C644.958 923.312 702.46 915.825 681.757 918.544C677.476 919.038 649.927 922.769 643.304 923.806C658.899 921.47 695.561 916.738 699.701 916.348C699.832 916.333 699.958 916.319 700.081 916.305C705.237 915.722 703.432 915.935 700.083 916.328C693.874 917.064 682.354 918.461 700.089 916.378C701.589 916.206 703.299 916.013 705.239 915.799C734.134 912.783 706.999 915.541 718.112 914.383C724.353 913.653 757.114 910.979 756.221 911.024C767.469 910.153 760.889 910.698 762.277 910.594C763.635 910.479 785.752 908.854 792.933 908.37C793.804 908.31 791.065 908.543 791.965 908.482C793.718 908.367 815.044 906.836 815.899 906.76C816.444 906.718 811.359 907.057 813.448 906.896C815.884 906.724 836.394 905.162 837.521 905.04C839.12 904.923 813.801 906.873 818.017 906.506C829.694 905.67 848.696 904.087 856.382 903.326C854.499 903.517 843.196 904.507 839.269 904.816C841.117 904.652 865.378 902.463 857.088 903.257C862.356 902.742 858.757 903.067 861.723 902.764C862.501 902.689 869.985 901.949 871.425 901.785C871.613 901.77 863.89 902.521 865.435 902.354C868.239 902.116 890.9 899.625 892.744 899.341C897.958 898.733 879.507 900.957 877.962 901.106C877.747 901.159 893.456 899.388 893.691 899.333C894.618 899.295 877.139 901.29 879.139 901.081C883.465 900.615 887.788 900.123 892.108 899.603C875.467 901.784 844.525 904.519 836.54 905.157C861.362 903.221 887.239 900.272 887.193 900.344C887.182 900.401 876.514 901.621 876.927 901.576C878.508 901.471 893.31 899.709 893.85 899.617C894.301 899.564 894.506 899.54 894.506 899.543C894.515 899.616 873.406 902.044 872.344 902.115C870.567 902.323 879.981 901.4 879.967 901.409C879.643 901.471 864.59 903.043 869.673 902.549C874.819 902.079 887.982 900.591 888.441 900.523C890.962 900.29 867.931 902.847 867.238 902.87C866.878 902.925 879.259 901.667 879.618 901.621C879.928 901.603 870.526 902.631 866.818 903.017C864.056 903.316 872.109 902.524 870.694 902.669C869.687 902.818 847.882 904.852 846.806 904.911C845.209 905.055 850.322 904.639 849.578 904.709C848.524 904.814 841.477 905.402 842.394 905.333C843.089 905.336 870.399 902.912 870.22 902.891C869.916 903.003 840.999 905.645 867.911 903.232C868.099 903.218 874.64 902.534 874.822 902.511C878.861 902.105 857.901 904.405 883.533 901.624C835.834 906.634 877.609 902.359 870.557 903.152C867.836 903.491 849.322 905.218 849.234 905.205C851.037 905.084 856.935 904.527 858.942 904.352C860.048 904.277 843.479 905.782 847.211 905.472C849.143 905.343 866.728 903.705 867.451 903.608C874.408 902.929 865.882 903.812 867.411 903.673C868.429 903.594 879.029 902.482 879.304 902.443C879.753 902.416 865.363 903.961 862.36 904.24C860.08 904.474 868.644 903.658 867.053 903.816C857.469 904.821 837.039 906.502 856.725 904.863C857.927 904.765 865.365 904.051 865.584 904.026C870.183 903.609 856.489 904.943 854.038 905.17C849.834 905.601 869.524 903.765 853.15 905.299C865.438 904.204 872.284 903.551 886.628 901.898C846.885 906.226 832.818 907.379 876.998 903.105C862.955 904.58 864.515 904.434 860.323 904.846C857.718 905.126 837.317 906.816 846.68 906.151C847.856 906.079 860.239 904.936 856.363 905.322C826.63 907.916 855.737 905.427 855.766 905.404C855.406 905.808 782.681 911.065 770.198 911.938C755.707 913.004 742.847 914.137 739.702 914.411C729.354 915.309 737.938 914.53 735.624 914.719C733.268 914.838 703.886 917.817 702.432 918.069C701.353 918.188 700.687 918.262 700.311 918.301C699.675 918.368 699.87 918.337 700.308 918.279C700.976 918.191 702.209 918.041 701.92 918.073C701.495 918.12 700.952 918.18 700.305 918.254C690.216 919.301 654.862 923.975 644.548 925.576C644.888 925.525 666.969 922.41 653.188 924.395C637.148 926.747 636.222 926.834 635.8 926.881C571.992 936.558 508.686 949.399 445.884 964.279C436.675 966.462 426.759 968.808 417.484 970.945C417.985 970.87 432.69 967.454 445.89 964.307C456.527 961.78 466.199 959.561 466.68 959.454C469.043 958.935 459.399 961.127 445.896 964.332C423.379 969.77 389.469 977.367 383.201 978.608C390.802 977.005 398.089 975.417 405.698 973.717C392.95 976.701 364.639 982.658 346.029 986.096C340.003 987.229 351.578 985.095 351.315 985.137C344.612 986.453 333.674 988.398 341.808 986.886C325.387 989.877 327.676 989.417 315.04 991.489C314.38 991.59 319.867 990.755 309.773 992.36C305.096 993.178 279.885 996.667 276.479 997.016C275.092 997.212 287.928 995.696 289.476 995.371C316.905 991.514 298.234 994.096 308.852 992.517C310.475 992.213 306.797 993.074 333.476 988.46C328.359 989.566 297.665 994.376 292.292 995.008C281.414 996.657 326.31 990.098 334.514 988.309C330.73 989.043 337.596 987.807 347.651 985.922C358.496 983.865 353.732 984.79 359.673 983.633C375.691 980.431 369.135 981.706 382.303 978.997C369.413 981.605 404.977 974.145 415.251 971.723C398.47 975.584 381.669 979.262 364.769 982.656C365.732 982.471 366.691 982.285 367.648 982.099C363.261 982.986 358.735 983.881 354.282 984.739C354.986 984.596 355.685 984.453 356.414 984.304C333.475 988.762 327.834 989.508 325.926 989.866C301.713 994.009 273.625 997.882 248.861 1000.02C245.145 1000.25 247.719 1000.49 220.589 1001.96C211.925 1002.32 220.094 1001.97 210.295 1002.32C197.989 1002.74 198.223 1002.57 194.581 1002.6C184.076 1002.62 177.674 1002.38 176.72 1002.35C163.697 1001.98 144.82 1000.46 130.715 998.139C130.452 998.099 137.719 999.273 128.651 997.826C125.411 997.31 96.3455 992.449 73.133 981.537C79.0775 984.275 85.4499 986.751 91.6531 988.814C88.025 987.678 73.1122 982.339 61.854 975.848C50.4117 969.463 42.5037 962.667 47.7935 966.839C54.1811 972.119 72.0558 981.375 74.1772 982.117C63.0404 978.721 20.2018 951.408 9.77074 917.74C3.29779 901.396 2.18498 887.58 1.85315 884.963C1.71383 883.886 2.54829 890.517 2.37378 889.027C1.75358 887.923 0.699042 864.792 1.35779 861.745C1.40744 859.922 1.0744 870.118 1.15936 869.293C0.540413 868.527 3.46863 839.819 4.34788 838.301C2.67438 845.202 0.984622 865.047 1.89553 854.651C1.98744 853.305 2.88905 846.417 3.17952 844.806C5.11076 829.768 -0.778887 874.726 1.56907 881.791C-1.79225 853.256 9.00942 809.368 25.1285 780.688C31.3127 768.946 16.2344 798.241 23.0388 784.854C38.0245 757.553 26.9215 777.528 27.3464 776.662C30.715 769.643 45.9246 748.096 46.1002 748.204C53.1749 739.413 50.6632 742.053 61.4951 730.349C60.0302 731.86 58.5941 733.388 57.1829 734.934C65.6765 724.93 84.1162 709.328 93.1109 704.059C96.1683 702.105 97.8415 701.066 97.2309 701.456C96.1261 702.166 94.7153 703.072 93.1342 704.095C85.531 708.837 75.0812 717.491 74.1009 718.442C72.4518 720.249 66.3782 723.922 49.0487 744.622C45.662 748.975 52.184 740.511 58.3391 733.911C64.4887 727.306 69.7662 722.251 61.175 730.948C66.106 725.746 78.2701 713.729 93.1878 704.178C112.326 691.74 133.284 679.992 138.098 677.337C139.125 676.792 134.3 679.256 149.042 671.341C156.051 667.608 139.18 676.669 142.393 674.972C150.994 667.07 290.465 606.225 318.334 598.231C320.094 597.59 319.457 597.846 321.187 597.217C326.496 595.268 345.894 588.286 355.451 584.948C335.657 591.882 374.07 578.335 383.869 574.97C398.723 569.816 397.82 570.176 404.239 567.957C428.993 559.433 467.226 545.903 486.32 538.925C485.258 539.262 519.314 526.762 534.616 520.585C546.637 515.84 563.928 508.59 547.783 515.192C561.087 509.779 574.759 503.969 587.847 498.113C595.061 494.887 602.089 491.534 608.707 488.171C611.788 486.594 607.569 488.798 612.801 486.089C613.277 485.834 613.925 485.497 618.376 483.093C654.509 462.213 636.775 472.126 643.486 468.142C647.128 465.735 649.764 463.875 651.681 462.497C632.026 476.859 606.73 489.369 599.97 492.568C606.053 490.405 647.66 467.186 658.046 457.765C658.427 457.471 657.121 458.52 657.508 458.222C657.516 458.216 657.524 458.209 657.532 458.203C662.28 455.695 685.53 432.119 680.588 436.825C679.448 438.221 669.237 449.658 654.583 460.37C658.496 457.416 655.551 459.591 656.241 459.069C662.994 454.117 676.719 442.204 683.717 433.012C685.524 430.745 687.098 428.758 688.219 427.331C689.517 425.679 689.399 425.79 689.611 425.52C694.7 418.949 692.7 421.704 697.739 414.838C705.116 404.933 689.096 426.606 683.743 433.033C682.631 434.433 682.028 435.146 682.384 434.736C682.502 434.597 682.993 434.014 683.764 433.05C688.247 427.275 703.744 408.695 714.542 389.365C726.034 370.203 728.453 349.727 728.078 349.939C728.102 349.65 728.219 348.566 728.274 346.418C728.279 346.192 728.285 345.946 728.291 345.677C728.532 339.652 728.766 312.854 728.513 308.258C728.494 307.479 728.44 307.792 728.418 306.822C728.519 304.425 727.25 271.655 723.908 259.911C725.367 266.332 726.218 272.798 726.866 279.361C724.952 259.528 721.517 251.796 720.879 250.232C720.154 248.644 722.261 252.958 723.708 259.331C723.859 259.966 723.999 260.598 724.135 261.227C726.327 271.182 727.231 284.351 727.255 284.552C726.754 285.897 727.067 250.416 714.29 241.987C714.675 242.111 714.569 242.037 714.543 242.057C714.496 242.06 714.402 242.075 714.33 242.088C714.161 242.119 713.974 242.163 713.79 242.21C713.411 242.306 713.027 242.419 712.685 242.524C711.953 242.749 711.308 242.965 710.688 243.176C709.487 243.586 708.544 243.927 707.924 244.15C706.691 244.597 706.748 244.563 708.639 243.867C708.881 243.779 709.665 243.493 710.787 243.109C711.359 242.913 711.99 242.702 712.712 242.48C712.883 242.427 713.062 242.374 713.251 242.32C713.436 242.267 713.603 242.221 713.802 242.17C713.895 242.146 713.983 242.125 714.064 242.107C714.162 242.084 714.256 242.065 714.333 242.051C714.402 242.038 714.498 242.024 714.543 242.021C714.57 242.002 714.668 242.071 714.304 241.954C717.918 243.421 720.283 248.711 721.29 251.333C722.257 254.079 722.572 254.472 720.532 249.454C720.009 248.47 718.254 243.733 714.313 241.932C710.081 243.2 703.104 245.916 702.792 246.026C699.511 247.317 707.621 243.962 714.331 241.89C718.4 243.691 720.54 249.054 721.768 252.327C722.986 255.768 723.429 257.782 723.088 256.404C721.563 251.426 719.576 244.451 714.345 241.855C710.003 243.114 703.287 245.734 698.026 247.781C692.847 249.808 691.582 250.335 690.935 250.584C689.81 251.013 688.965 251.352 688.085 251.629C682.34 253.393 686.243 252.15 683.408 253.103C681.546 253.296 663.524 262.168 666.916 260.47C608.405 292.657 650.068 267.056 687.359 251.854C674.943 255.051 653.292 268.367 643.075 273.448C639.41 275.276 641.642 274.302 635.341 277.21C631.915 278.691 625.012 281.855 615.723 283.507C589.86 288.32 549.52 284.731 536.624 284.728C547.422 285.045 544.262 284.899 535.931 284.667C527.597 284.493 534.597 284.684 532.971 284.655C532.523 284.65 529.631 284.581 525.465 284.578C513.347 284.529 490.437 285.14 485.585 285.23C515.071 284.557 508.423 284.671 483.391 285.221C487.01 285.137 490.629 285.044 494.246 284.952C479.587 285.418 448.686 285.607 440.186 285.048C438.854 285 443.641 285.209 442.892 285.18C439.508 285.076 432.429 284.777 425.614 284.219C417.443 283.564 409.635 282.865 408.994 282.814C407.998 282.739 418.758 283.692 414.763 283.36C413.929 283.293 403.556 282.364 393.345 281.385C389.557 281.023 391.835 281.27 390.882 281.179C382.93 280.403 387.624 280.852 373.099 279.345C362.461 278.216 354.535 277.389 339.858 275.608C385.006 280.878 352.323 277.217 331.45 274.622C329.981 274.439 328.617 274.208 327.311 273.936C325.699 273.583 325.554 273.579 323.458 272.992C321.423 272.275 317.006 271.466 308.78 265.837C317.559 271.799 322.333 272.458 322.896 272.78C323.562 272.939 320.444 272.183 316.069 270.08C306.902 266.295 295.688 254.028 292.766 249.416C292.434 248.913 292.246 248.785 289.323 244.263C289.094 243.87 289.359 244.473 286.81 240.174C280.904 229.852 278.273 223.372 276.626 219.813C272.035 208.929 277.978 223.04 275.379 216.817C273.514 213.395 266.866 191.394 265.43 185.439C265.051 184.067 265.266 184.694 263.79 179.426C261.196 170.122 258.28 162.003 255.291 156.478C254.738 156.013 255.736 155.178 248.074 146.219C245.781 143.83 242.831 141.579 246.398 144.615C259.314 154.811 264.92 185.99 270.44 203.129C274.92 219.113 261.041 168.656 259.598 166.428C259.286 165.496 262.649 175.001 259.22 165.351C256.478 157.218 248.304 142.329 235.772 137.977C234.981 137.305 224.998 134.82 225.433 135.105C225.646 135.133 229.658 135.747 233.184 136.947C236.706 138.085 239.637 139.748 238.635 139.198C238.505 138.793 229.12 135.462 227.69 135.465C226.173 135.103 221.885 134.387 219.662 134.285C214.612 134.046 217.247 134.195 214.841 134.159C214.651 134.159 214.425 134.16 214.151 134.162C206.421 134.087 179.399 136.708 178.516 136.687C182.988 136.359 187.464 135.984 191.904 135.612C167.09 137.652 177.658 136.744 174.139 137.039C170.338 137.282 171.406 137.235 163.002 137.608C161.196 138.383 125.86 136.853 126.579 135.765C145.994 138.631 138.821 137.192 139.709 137.481C143.139 137.731 147.504 137.863 152.088 137.862C184.298 136.999 151.823 138.043 159.426 137.817C162.043 137.759 167.253 137.488 168.358 137.422C171.971 137.223 172.006 137.246 174.422 137.085C180.017 136.69 173.485 137.101 173.922 137.064C178.936 136.75 198.495 135.106 186.317 136.182C193.645 135.591 194.432 135.446 200.255 135.007C211.752 134.197 194.55 135.466 189.868 135.911C173.072 137.164 168.115 138.254 144.164 137.821C135.533 137.584 125.344 135.94 121.457 134.689C120.249 134.313 113.631 132.586 108.415 128.424C102.934 124.389 101.13 117.675 101.053 117.408C100.096 113.702 100.193 108.998 101.284 104.311C102.853 97.2378 105.616 90.0291 108.216 84.8213C112.174 77.1821 110.973 79.6375 111.325 78.9156C111.833 77.7863 117.611 69.1219 119.9 66.4522C122.486 63.2564 121.113 64.7787 125.408 59.8737C136.435 47.9982 136.506 48.689 137.636 47.4703C151.776 34.3994 145.572 40.1199 148.71 37.2238C150.566 35.2609 171.52 17.9347 183.684 1.60571C189.353 -5.84491 194.063 -12.2794 196.161 -15.277C193.428 -11.3981 190.613 -7.56921 187.768 -3.75818C192.932 -10.5255 198.054 -17.9279 198.184 -18.0308C199.192 -19.4324 208.746 -34.1032 210.956 -38.8703C211.903 -40.7039 211.822 -40.5654 212.954 -42.8868C218.034 -51.7455 223.455 -73.9255 223.131 -79.4681C223.381 -91.2571 223.988 -81.9949 221.791 -69.4589C219.75 -56.8356 212.551 -42.024 211.387 -39.9739C213.693 -44.1312 220.171 -58.7458 221.868 -70.2081C223.662 -81.5905 223.428 -88.8945 222.7 -76.5869C222.37 -72.7861 221.122 -66.1356 220.559 -64.0683C216.609 -50.1102 219.733 -61.0853 219.425 -59.9887C218.988 -58.1013 215.75 -49.1026 214.62 -46.8326C214.19 -46.1017 216.731 -50.908 210.529 -38.4895C212.022 -41.3354 216.814 -50.6519 219.648 -60.8687C222.656 -71.0485 223.237 -81.9104 223.164 -85.9842C223.164 -86.4697 223.163 -86.8615 223.163 -87.1481C223.175 -88.9902 223.03 -77.4423 223.22 -111.183C223.211 -110.792 223.202 -110.4 223.193 -110.009C223.268 -128.795 223.393 -147.577 223.373 -166.353C223.392 -164.313 223.426 -153.77 223.415 -167.048C223.399 -174.692 223.371 -169.036 223.369 -169.734C223.355 -171.796 223.365 -184.213 223.124 -201.204C223.182 -232.505 207.273 -277.968 208.566 -304.888C208.559 -311.609 208.355 -316.978 208.237 -320.339C207.928 -328.314 206.907 -350.647 206.972 -352.366C206.395 -361.473 207.576 -391.714 211.289 -402.72C211.615 -403.976 211.881 -404.995 212.07 -405.716C213.214 -410.068 212.091 -405.941 213.124 -409.827C214.086 -413.422 213.119 -409.689 213.406 -410.756C215.172 -419.786 235.932 -486.47 243.11 -501.518C238.782 -492.308 222.717 -444.36 223.358 -445.228C223.405 -445.44 227.123 -457.159 227.925 -459.554C229.228 -463.537 233.802 -477.163 236.571 -484.481C236.903 -485.301 235.634 -482.055 240.661 -495.078C242.406 -499.558 247.048 -511.272 252.361 -522.787C257.369 -535.49 284.479 -586.302 306.064 -608.938C313.004 -616.844 318.346 -622.163 319.507 -623.373C319.61 -623.548 310.178 -613.717 316.539 -620.392C325.109 -629.114 317.35 -621.314 327.573 -631.242C328.815 -633.106 358.971 -658.751 360.316 -659.168C369.761 -666.569 342.471 -645.279 343.049 -645.324C343.797 -646.325 366.375 -664.14 367.494 -664.608C368.389 -665.27 349.482 -651.378 372.287 -667.956C369.632 -666.114 367.007 -664.238 364.401 -662.323C375.109 -670.151 376.295 -670.663 378.949 -672.473C387.305 -677.933 396.427 -683.817 410.869 -690.801C414.696 -692.618 408.37 -689.54 408.85 -689.754C413.427 -691.989 419.287 -694.825 426.462 -697.533C427.058 -697.531 410.151 -691.863 439.656 -701.976C437.604 -701.382 435.525 -700.732 433.507 -700.057C436.282 -701.108 451.209 -705.653 462.243 -706.534C467.29 -707.045 471.296 -708.045 472.603 -708.341C484.439 -711.414 474.115 -708.6 486.024 -711.975C480.051 -710.225 500.513 -716.734 509.805 -716.228C512.398 -716.263 513.942 -716.274 513.452 -716.257C518.715 -716.453 550.726 -716.523 565.766 -716.379C571.656 -716.345 581.345 -716.282 588.57 -716.232C592.986 -716.203 596.485 -716.173 597.629 -716.16C601.305 -716.114 600.187 -716.096 606.825 -715.981C608.712 -715.923 628.504 -715.773 645.823 -714.048C649.18 -713.739 656.205 -712.845 649.977 -713.531C639.318 -714.791 619.071 -715.638 619.33 -715.546C619.632 -715.634 646.893 -714.204 654.176 -713.01C687.749 -707.867 668.331 -710.653 669.216 -710.654C671.48 -710.421 689.551 -706.125 690.243 -705.702C693.338 -704.849 680.636 -708.297 680.414 -708.22C680.223 -708.429 697.418 -703.481 693.497 -704.564C687.982 -706.48 671.942 -710.113 670.893 -710.178C657.534 -712.506 675.852 -709.332 680.794 -707.94C682.305 -707.582 676.272 -708.956 677.526 -708.661C696.589 -703.901 681.62 -707.945 694.179 -704.305C705.26 -700.645 690.994 -705.326 691.392 -705.105C691.71 -705.012 696.279 -703.642 700.421 -702.146C703.481 -701.056 706.297 -699.918 707.156 -699.56C707.455 -699.428 704.593 -700.63 700.409 -702.111C690.83 -705.736 673.909 -709.415 674.927 -709.099C683.55 -707.307 692.073 -704.988 700.38 -702.031C702.976 -701.108 705.535 -700.122 708.076 -699.07C708.503 -698.863 704.569 -700.524 700.374 -702.013C696.505 -703.406 692.427 -704.654 691.633 -704.886C688.321 -705.888 697.538 -703.027 697.125 -703.091C696.924 -703.2 686.098 -706.519 695.857 -703.449C696.95 -703.09 698.427 -702.6 700.341 -701.921C704.279 -700.516 710.058 -698.33 717.803 -694.536C709.458 -698.579 703.798 -700.645 700.329 -701.888C692.231 -704.638 695.963 -703.38 700.314 -701.847C703.105 -700.851 706.095 -699.648 706.474 -699.487C707.104 -699.24 701.846 -701.286 700.296 -701.795C699.81 -701.964 699.705 -701.997 700.293 -701.786C701.346 -701.381 704.682 -700.302 711.825 -697.166C712.799 -696.597 711.346 -697.471 704.526 -700.154C698.389 -702.456 707.076 -699.193 700.263 -701.704C697.724 -702.589 693.062 -704.292 684.481 -706.542C685.446 -706.278 693.231 -704.223 700.253 -701.675C706.349 -699.514 711.833 -697.036 712.427 -696.768C713.531 -696.285 708.152 -698.612 710.065 -697.771C732.386 -687.178 717.057 -694.453 723.442 -691.234C724.102 -691.105 744.239 -679.296 728.876 -688.228C717.014 -694.92 707.494 -698.911 700.196 -701.516C690.116 -705.062 684.362 -706.337 681.292 -707.035C687.486 -705.525 693.954 -703.63 700.16 -701.414C717.317 -695.364 731.96 -686.412 736.52 -683.681C746.001 -677.831 736.174 -683.882 737.334 -683.147C737.755 -682.923 745.873 -677.796 745.967 -677.705C751.043 -674.314 719.172 -695.595 700.159 -701.411C697.733 -702.277 695.588 -702.981 693.867 -703.521C695.974 -702.848 698.067 -702.138 700.15 -701.387C702.009 -700.716 703.849 -700.013 705.673 -699.279C703.846 -700.007 702.004 -700.702 700.143 -701.366C696.653 -702.61 693.126 -703.741 689.569 -704.768C695.546 -703.023 698.742 -701.841 700.137 -701.35C701.367 -700.905 701.175 -700.972 700.134 -701.342C697.269 -702.432 687.688 -705.366 683.962 -706.198C682.5 -706.58 699.66 -702.064 680.059 -707.119C693.422 -703.718 690.501 -704.422 700.095 -701.23C700.885 -700.95 701.755 -700.634 702.717 -700.274C702.656 -700.29 701.705 -700.647 700.09 -701.218C692.793 -704.157 671.115 -709.457 661.308 -710.595C695.277 -704.358 685.671 -705.559 700.08 -701.189C703.296 -700.033 707.697 -698.379 713.837 -695.546C720.043 -692.786 704.084 -699.913 705.339 -699.231C710.114 -697.404 721.126 -692.574 733.599 -685.204C735.621 -683.99 727.119 -689.215 739.733 -681.538C741.134 -680.698 749.021 -675.565 748.902 -675.621C747.855 -676.298 740.015 -681.324 739.67 -681.495C739.372 -681.701 748.131 -676.113 748.145 -676.071C748.402 -675.88 740.851 -680.753 741.94 -680.032C744.307 -678.5 775.673 -658.21 734.595 -684.463C768.754 -662.71 739.346 -682.318 725.422 -689.732C721.877 -691.626 720.982 -692.108 715.822 -694.589C710.468 -697.149 704.208 -699.688 700.064 -701.145C699.069 -701.5 698.201 -701.799 697.502 -702.036C695.985 -702.544 698.432 -701.72 700.057 -701.126C701.344 -700.656 702.121 -700.365 700.051 -701.108C698.034 -701.79 693.378 -703.572 683.604 -706.104C688.323 -704.888 694.028 -703.235 700.043 -701.086C715.258 -695.826 731.781 -686.382 741.904 -679.861C770.403 -661.305 722.07 -692.915 715.999 -694.316C714.56 -695.01 719.368 -692.649 718.408 -693.109C717.582 -693.524 708.848 -697.857 699.997 -700.958C692.285 -703.735 684.603 -705.691 683.144 -706.043C680.043 -706.888 694.697 -702.909 695.601 -702.42C696.46 -702.972 657.994 -711.61 678.829 -706.997C684.731 -705.653 692.608 -703.515 699.969 -700.879C710.516 -697.171 719.861 -692.331 722.215 -691.05C715.022 -694.807 707.6 -698.128 699.958 -700.848C687.237 -705.385 674.004 -708.4 660.634 -710.356C672.345 -708.611 683.945 -706.057 695.182 -702.374C672.055 -709.761 650.964 -712.125 627.941 -713.294C683.232 -709.057 609.995 -714.754 609.118 -713.832C608.852 -713.9 630.685 -713.133 634.179 -712.77C623.579 -713.542 601.023 -713.912 588.552 -713.937C578.761 -713.996 575.204 -713.999 588.551 -713.859C589.143 -713.853 589.767 -713.846 590.426 -713.839C589.867 -713.846 589.236 -713.852 588.551 -713.858C581.584 -713.922 569.043 -713.969 569.225 -713.963C570.261 -713.936 580.327 -713.862 588.551 -713.794C595.591 -713.74 601.276 -713.668 598.792 -713.68C595.871 -713.693 592.401 -713.724 588.551 -713.761C584.174 -713.803 579.306 -713.856 574.197 -713.89C533.526 -714.096 535.628 -713.919 509.847 -713.588C504.504 -713.518 497.963 -712.57 489.694 -710.294C490.639 -710.542 491.583 -710.783 492.528 -711.013C482.724 -708.55 472.96 -704.909 462.507 -703.883C419.449 -698.583 381.576 -673.336 348.325 -646.17C339.422 -638.736 322.728 -623.847 308.142 -607.118C296.344 -593.697 286.25 -578.927 279.824 -568.553C276.675 -564.016 263.624 -540.293 262.885 -538.375C261.103 -535.038 270.744 -553.471 266.347 -545.163C264.903 -543.665 245.85 -501.938 247.517 -504.788C249.423 -509.564 255.949 -524.265 257.135 -526.619C262.045 -544.594 213.396 -411.737 214.578 -403.959C215.381 -406.989 216.199 -410.019 217.028 -413.043C216.032 -409.368 215.049 -405.664 214.093 -401.992C212.82 -397.102 211.904 -392.102 211.251 -387.07ZM442.998 -703.055C446.782 -704.12 454.917 -705.974 462.231 -706.655C464.853 -706.915 467.33 -707.337 469.407 -707.762C479.908 -710.097 497.997 -715.657 490.213 -713.315C480.793 -710.817 471.679 -707.578 462.231 -706.651C455.721 -705.996 449.296 -704.737 442.998 -703.055ZM267.13 -552.546C272.454 -562.002 268.313 -554.676 264.12 -546.828C263.675 -545.945 260.147 -539.624 267.13 -552.546ZM337.99 -640.917C337.628 -640.633 330.68 -634.322 330.458 -634.078C324.214 -628.442 345.18 -647.425 337.99 -640.917ZM223.342 -129.421C223.393 -141.34 223.286 -132.709 223.278 -125.298C223.278 -124.832 223.338 -128.637 223.342 -129.421ZM223.382 -137.899C223.491 -147.155 223.391 -165.795 223.377 -150.977C223.377 -149.539 223.379 -137.471 223.382 -137.899ZM287.549 -585.42C286.831 -584.433 280.532 -575.149 278.038 -571.072C278.053 -571.219 284.788 -581.612 287.549 -585.42ZM208.341 -318.244C208.456 -317.749 206.669 -356.527 206.933 -359.217C206.74 -353.038 208.402 -318.671 208.341 -318.244ZM221.774 -219.794C221.747 -220.773 219.582 -233.93 219.574 -233.537C220.818 -227.133 222.326 -215.432 221.774 -219.794ZM203.889 -27.0592C203.391 -26.5161 209.296 -34.5966 195.886 -15.095C193.888 -12.2498 200.97 -22.4493 200.232 -21.452C198.786 -19.3138 197.614 -17.6382 196.668 -16.2925C203.091 -25.274 208.767 -35.181 209.258 -36.1673C211.837 -40.662 204.194 -27.2542 203.889 -27.0592ZM135.146 49.6905C133.431 51.2068 123.29 61.8184 121.294 64.5327C120.946 64.9913 122.425 62.9599 118.345 68.1874C115.199 72.4877 119.807 65.997 113.896 74.5318C108.297 83.4188 115.726 71.5133 115.32 72.3438C114.328 73.1668 106.412 87.3852 106.881 87.0655C106.688 86.5431 115.351 71.3767 118.309 68.1996C121.71 63.8774 117.453 69.0061 123.341 61.956C127.151 57.6259 125.089 60.0728 125.899 59.164C126.422 58.2376 140.73 44.1402 135.124 49.712C135.131 49.7048 135.139 49.6976 135.146 49.6905ZM194.942 -13.8572C195.425 -14.535 195.99 -15.3304 196.668 -16.2925C196.094 -15.475 195.517 -14.6615 194.942 -13.8572ZM413.508 -692.072C408.369 -689.705 423.58 -696.861 429.658 -698.828C429.715 -699.012 414.266 -692.612 413.508 -692.072ZM188.927 -5.56824C178.999 7.52917 186.411 -2.04492 194.942 -13.8572C192.247 -10.0978 192.22 -9.9892 188.927 -5.56824ZM227.925 -459.554C227.705 -458.895 227.562 -458.479 227.534 -458.429C228.113 -460.161 228.172 -460.314 227.925 -459.554ZM216.765 -422.78C213.246 -410.071 220.475 -435.849 220.483 -435.678C220.43 -435.603 216.883 -423.283 216.765 -422.78ZM223.266 -114.133C223.275 -115.336 223.291 -96.6392 223.34 -123.785C223.259 -109.297 223.321 -124.582 223.311 -124.356C223.28 -123.766 223.193 -99.4282 223.183 -94.0378C223.216 -89.8177 223.23 -110.16 223.266 -114.102C223.266 -114.112 223.266 -114.122 223.266 -114.133ZM204.522 134.942C201.222 135.171 190.872 136.065 183.791 136.637C187.047 136.365 197.567 135.421 204.522 134.942ZM119.75 996.214C95.8727 991.436 83.232 985.776 81.221 985.067C79.3315 984.096 87.9663 988.567 109.575 993.94C110.458 994.233 122.621 996.812 119.75 996.214ZM119.698 687.591C123.66 685.318 110.616 692.954 102.22 698.23C100.312 699.411 93.27 703.816 101.282 698.744C101.042 698.934 113.523 691.233 119.698 687.591ZM183.363 1.8653C180.652 5.77112 170.855 16.6606 165.177 21.9339C168.644 18.7186 179.393 7.40692 183.363 1.8653ZM4.2357 899.404C3.13391 894.369 2.6411 890.93 2.76003 891.811C3.26842 895.762 5.53323 905.131 4.2357 899.404ZM209.975 -37.2922C210.526 -37.7581 200.45 -21.1758 199.46 -20.1953C201.943 -23.5433 209.882 -36.8011 209.975 -37.2922ZM191.278 135.985C188.214 136.244 203.957 134.839 208.598 134.661C208.283 134.616 193.273 135.797 191.278 135.985ZM9.57927 817.762C10.8723 813.34 14.9182 802.605 15.4437 801.446C15.9021 799.93 10.0086 815.693 9.57927 817.762ZM720.402 916.354C720.877 916.31 708.88 917.53 700.338 918.536C698.58 918.74 696.967 918.928 695.637 919.083C688.837 919.883 693.377 919.315 700.334 918.501C708.516 917.532 720.065 916.379 720.402 916.354ZM24.234 943.54C33.2858 954.96 23.167 942.347 23.6192 942.784C28.9681 951.157 47.3675 967.295 35.0465 955.904C32.6652 953.657 26.9178 947.271 24.234 943.54ZM16.8719 932.32C15.959 930.928 11.276 921.764 15.3681 929.719C17.357 933.459 20.9873 939.188 16.8719 932.32ZM612.026 930.89C599.275 932.817 657.686 923.704 659.402 923.698C660.292 923.578 660.875 923.501 661.207 923.458C663.355 923.14 674.423 921.663 675.71 921.535C672.389 921.956 663.33 923.177 662.279 923.323C661.826 923.384 661.487 923.429 661.254 923.46C657.336 923.896 614.449 930.381 612.026 930.89ZM515.739 948.888C530.176 945.825 532.763 945.435 531.516 945.682C515.781 948.931 526.034 946.77 525.55 946.863C524.448 947.077 513.281 949.433 515.784 948.878C515.769 948.881 515.754 948.884 515.739 948.888ZM592.226 934.222C592.821 934.108 605.034 932.026 605.538 931.953C615.553 930.276 580.996 936.176 592.226 934.222ZM101.344 118.49C105.339 127.105 100.193 118.938 100.344 112.513C100.336 112.27 100.338 111.736 100.356 112.257C100.435 112.743 100.204 114.477 101.344 118.49ZM13.5173 926.018C13.3039 925.561 11.7298 922.45 9.85225 917.708C3.06433 903.38 0.80411 873.304 1.25268 875.755C0.969258 878.583 3.60022 903.984 9.82495 917.719C13.1047 925.872 15.6631 930.167 13.5173 926.018ZM217.312 638.188C208.817 641.95 218.053 637.788 222.611 635.835C224.299 635.109 219.455 637.24 217.312 638.188ZM219.913 -61.3079C222.165 -70.5453 221.871 -68.5991 219.754 -60.6234C219.664 -60.3122 219.815 -60.9474 219.913 -61.3079ZM150.454 670.441C178.953 655.761 172 658.847 135.374 678.739C136.508 678.098 137.647 677.458 138.785 676.822C96.9964 700.662 135.779 678.187 146.231 672.739C150.172 670.619 146.852 672.367 150.427 670.456C150.436 670.451 150.445 670.446 150.454 670.441ZM262.385 619.335C291.116 608.09 236.278 629.594 220.916 636.667C235.912 630.077 255.624 621.924 228.871 633.136C267.971 616.715 251.756 623.701 253.296 622.997C255.154 622.243 261.16 619.814 262.385 619.335ZM187.725 651.735C186.107 652.486 174.001 658.331 169.685 660.531C175.685 657.382 198.415 646.631 187.725 651.735ZM415.642 971.612C416.814 971.309 419.203 970.753 429.756 968.291C426.501 969.072 419.992 970.601 415.642 971.612ZM453.069 -705.175C455.601 -705.645 459.049 -706.169 462.248 -706.482C468.064 -707.071 472.995 -708.407 470.199 -707.768C469.975 -707.727 466.202 -706.887 462.246 -706.502C457.732 -706.068 453.079 -705.186 453.069 -705.175ZM26.6103 778.171C26.641 776.354 49.4241 743.031 41.4871 754.49C38.3825 757.495 20.1947 789.418 26.6103 778.171ZM49.2503 967.794C46.3249 965.975 35.9225 956.974 35.8191 956.633C34.9668 956.201 47.8179 967.173 49.2503 967.794ZM488.917 -712.745C489.647 -713.353 508.441 -716.804 509.806 -716.168C509.89 -716.17 509.893 -716.171 509.806 -716.17C509.775 -716.17 509.733 -716.169 509.679 -716.169C504.776 -716.815 485.635 -712.032 488.917 -712.745ZM127.874 136.169C129.781 136.525 132.177 136.886 132.854 136.97C134.375 138.049 168.693 137.943 155.58 138.05C154.51 137.987 141.577 138.615 128.194 136.285C121.519 135.103 114.808 132.978 109.985 129.678C105.093 126.454 102.833 122.216 102.193 120.689C101.736 119.386 103.303 124.401 107.962 128.135C112.461 131.959 118.954 134.043 121.461 134.734C122.312 134.943 122.947 135.219 127.859 136.166C127.864 136.167 127.869 136.168 127.874 136.169ZM469.31 959.042C470.754 958.609 509.9 949.991 509.467 950.19C496.059 953.035 482.673 955.989 469.31 959.042ZM449.474 963.637C441.145 965.58 460.64 960.976 466.401 959.685C466.463 959.679 450.686 963.343 449.474 963.637ZM6.04771 906.038C4.88619 902.14 8.4448 914.133 7.64462 911.452C6.99093 909.775 4.57421 901.007 4.05981 898.15C3.82872 897.359 5.90466 906.398 6.79732 908.939C7.95358 912.572 6.83141 909.05 8.1556 912.99C8.71008 914.588 9.2915 916.153 9.89939 917.69C14.3295 928.808 19.7837 938.112 26.9857 946.987C27.717 947.9 22.0383 940.824 28.3279 948.568C29.314 949.707 35.2699 956.951 44.6492 964.315C65.746 980.094 83.9816 988.056 116.41 995.373C115.139 995.415 91.0531 988.881 89.7992 988.067C62.7209 981.102 20.2316 949.446 11.0776 920.391C10.5845 919.231 10.227 918.344 9.95755 917.667C8.65818 914.316 9.38713 916.276 8.46378 913.741C7.66443 911.314 8.50253 914.238 6.04771 906.038ZM449.237 -704.385C451.302 -704.814 456.622 -705.894 462.252 -706.444C465.791 -706.793 469.411 -707.5 472.355 -708.194C470.981 -707.897 466.925 -706.932 462.25 -706.466C457.797 -706.033 452.832 -705.171 449.237 -704.385ZM272.626 997.486C268.753 997.966 256.672 999.214 255.677 999.301C254.393 999.478 271.821 997.651 272.626 997.486ZM272.272 208.776C272.328 209.152 275.718 218.008 275.935 218.307C278.966 226.213 268.855 199.658 272.272 208.776ZM463.916 285.575C471.054 285.547 478.246 285.397 480.643 285.383C476.101 285.488 463.08 285.618 463.916 285.575ZM727.509 287.863C727.572 286.391 728.526 307.752 728.443 311.822C728.517 310.318 727.697 288.925 727.509 287.863ZM414.085 971.839C426.866 968.898 424.212 969.438 432.294 967.573C433.51 967.288 438.076 966.359 423.793 969.651C421.263 970.225 431.18 967.909 414.085 971.839ZM129.461 682.07C126.564 683.735 117.531 688.961 111.502 692.628C112.833 691.764 125.078 684.523 129.461 682.07ZM529.152 -716.326C535.307 -716.363 563.732 -716.305 556.698 -716.348C555.698 -716.372 533.141 -716.374 529.152 -716.326ZM160.896 26.1622C152.351 34.1059 170.195 17.7903 175.078 11.9641C172.886 14.6169 161.532 25.684 160.896 26.1622ZM692.534 250.034C693.061 249.824 704.61 245.326 705.135 245.161C714.616 241.54 681.919 254.168 692.534 250.034ZM390.049 281.12C393.783 281.488 415 283.461 425.608 284.293C427.641 284.459 429.287 284.575 430.344 284.649C429.407 284.592 427.742 284.484 425.606 284.316C413.309 283.411 385.34 280.706 390.049 281.12ZM361.297 983.193C370.419 981.385 379.198 979.565 387.58 977.772C385.781 978.224 362.29 983.058 361.297 983.193ZM723.708 259.331C723.859 259.966 723.999 260.598 724.135 261.227C723.994 260.57 723.851 259.938 723.708 259.331ZM152.894 1000.72C145.07 999.959 146.713 1000.12 147.184 1000.18C153.023 1000.84 161.812 1001.48 152.894 1000.72ZM458.147 -705.918C458.877 -706.009 460.353 -706.205 462.257 -706.393C467.406 -706.795 475.656 -708.86 480.985 -710.431C479.249 -709.967 469.218 -706.985 462.255 -706.411C460.68 -706.253 459.264 -706.074 458.147 -705.918ZM293.215 607.46C302.434 603.972 264.98 618.299 257.182 621.555C256.556 621.676 291.832 607.877 293.215 607.46ZM185.289 -0.39093C185.823 -0.980347 195.774 -14.5035 193.637 -11.6486C192.334 -9.80695 185.004 -0.0205078 185.289 -0.39093ZM238.519 629.203C235.043 630.659 226.957 634.088 229.794 632.858C233.435 631.275 239.416 628.823 238.519 629.203ZM2.80635 848.588C2.70096 846.876 7.32486 825.098 5.35247 834.079C3.98705 840.319 3.93103 841.347 3.66011 842.818C2.80288 844.407 -0.231097 880.07 2.80635 848.588ZM504.603 532.024C496.795 534.978 487.323 538.467 479.108 541.455C482.457 540.241 501.28 533.277 504.603 532.024ZM139.824 45.4768C141.427 44.1234 181.828 6.63885 158.961 28.0177C157.656 29.2608 135.213 49.5742 139.824 45.4768ZM414.085 971.839C412.419 972.22 410.571 972.64 408.454 973.117C410.556 972.642 412.407 972.222 414.085 971.839ZM267.367 998.019C270.375 997.682 255.219 999.308 250.741 999.68C249.366 999.868 266.961 998.112 267.367 998.019ZM478.494 541.707C473.768 543.44 465.164 546.526 459.291 548.618C460.282 548.257 476.448 542.445 478.494 541.707ZM728.556 327.652C728.496 334.28 728.312 342.029 728.232 346.417C728.191 348.595 728.059 349.984 728.066 350.044C728.045 350.247 728.004 350.721 727.918 351.51C728.009 352.32 726.137 362.735 724.488 367.066C720.305 377.514 727.688 363.445 728.212 346.417C728.819 321.145 728.686 291.989 728.433 338.729C728.493 335.027 728.537 331.325 728.556 327.652ZM350.526 276.833C344.886 276.167 329.094 274.253 333.19 274.767C336.039 275.153 356.17 277.526 350.526 276.833ZM568.652 285.748C566.948 285.732 551.424 285.175 551.027 285.167C559.938 285.575 576.394 285.967 568.652 285.748ZM308.483 265.44C305.505 263.35 302.114 260.192 302.428 260.482C304.944 263.215 313.501 268.925 308.483 265.44ZM387.518 977.631C382.333 978.759 365.757 982.214 362.178 982.93C361.502 983.058 359.689 983.413 356.319 984.06C356.329 984.058 356.339 984.056 356.349 984.054C352.201 986.459 216.614 1005.15 307.508 992.625C310.337 992.182 306.489 992.791 318.036 990.938C318.796 990.814 319.18 990.774 321.52 990.387C327.002 989.57 355.655 984.336 361.481 983.08C361.531 983.074 361.905 983.003 362.698 982.849C369.656 981.542 391.54 976.793 387.518 977.631ZM599.518 285.31C596.386 285.588 586.46 285.908 585.433 285.901C590.355 286.006 606.793 284.805 599.518 285.31ZM141.134 44.3625C145.824 40.0238 157.799 29.2391 154.166 32.4852C151.929 34.4483 135.701 49.3191 141.134 44.3625ZM500.452 284.826C536.918 284.233 509.155 284.661 514.74 284.54C509.979 284.611 505.216 284.713 500.452 284.826ZM552.405 941.359C546.694 942.46 553.393 941.098 559.692 939.934C561.669 939.568 555.601 940.743 552.405 941.359ZM812.855 908.952C807.896 909.277 832.098 907.499 822.669 908.238C822.231 908.275 813.21 908.931 812.855 908.952ZM630.343 927.747C626.447 928.387 623.904 928.767 612.924 930.546C629.178 927.917 614.093 930.288 630.343 927.747ZM728.078 349.939C728.071 350.001 728.066 350.054 728.066 350.044C728.073 349.974 728.076 349.944 728.078 349.939ZM286.261 239.053C283.885 235.095 278.36 223.477 279.992 226.944C280.086 227.308 285.21 237.47 286.261 239.053ZM362.178 982.93C362.775 982.816 362.473 982.88 361.481 983.08C361.433 983.085 361.69 983.031 362.178 982.93ZM341.387 275.706C340.928 275.69 360.295 277.951 361.075 278.014C372.201 279.212 349.377 276.7 341.387 275.706ZM218.611 -56.2459C218.941 -57.186 216.823 -51.1232 215.225 -47.5188C214.033 -44.7098 217.529 -52.6717 218.611 -56.2459ZM667.721 922.336C673.833 921.51 682.448 920.418 684.041 920.248C679.938 920.743 667.596 922.363 667.721 922.336ZM803.378 909.601C796.103 910.152 779.484 911.314 768.878 912.095C768.678 912.054 796.548 910.094 803.378 909.601ZM403.915 974.04C403.352 974.179 388.317 977.473 390.359 977.045C393.364 976.449 408.195 973.099 403.915 974.04ZM205.735 -29.4183C202.128 -23.5504 210.626 -36.955 213.502 -43.6261C215.252 -46.9124 206.585 -30.2811 205.735 -29.4183ZM270.297 202.231C267.554 193.48 274.292 215.207 275.96 218.008C274.222 214.13 271.211 205.358 270.297 202.231ZM542.994 284.773C514.273 284.007 529.916 284.534 535.007 284.591C535.727 284.593 543.698 284.792 542.994 284.773ZM600.578 -715.856C604.209 -715.826 592.545 -715.987 588.568 -715.998C588.081 -716.001 587.708 -716.001 587.494 -716C587.2 -715.999 587.662 -715.991 588.568 -715.981C591.405 -715.95 598.601 -715.878 600.578 -715.856ZM651.681 462.497C652.661 461.79 653.633 461.078 654.583 460.37C653.871 460.902 652.927 461.6 651.681 462.497ZM230.174 135.831C239.796 138.49 243.095 141.819 244.833 143.039C246.494 144.406 246.422 144.372 247.049 144.951C249.872 147.374 255.004 154.479 257.686 161.063C254.459 153.662 249.928 146.675 243.412 141.993C246.367 143.312 256.859 155.131 260.924 169.748C265.457 183.986 268.858 198.05 269.181 198.568C269.612 200.207 264.898 183.088 264.772 182.594C264.58 181.881 263.906 179.194 263.451 177.618C262.937 176.427 260.241 164.026 253.538 153.017C247.099 141.449 233.661 136.41 230.174 135.831ZM482.879 285.15C487.508 285.063 488.824 285.059 490.972 285.004C491.704 284.986 491.823 284.956 494.322 284.892C490.509 284.981 486.694 285.07 482.879 285.15ZM194.387 135.431C188.865 135.852 212.462 133.87 214.841 134.18C214.942 134.18 215.01 134.181 215.042 134.181C215.997 134.191 215.798 134.193 214.841 134.194C211.519 134.076 198.052 135.118 194.387 135.431ZM331.729 274.498C331.684 274.493 331.596 274.482 331.47 274.466C330.177 274.328 325.013 273.539 320.444 271.793C315.852 270.132 311.996 267.706 312.061 267.764C314.736 269.792 325.79 274.188 331.468 274.482C334.751 274.889 335.869 275.022 331.729 274.498ZM497.409 284.821C504.344 284.651 517.447 284.482 515.943 284.472C515.932 284.472 515.922 284.472 515.912 284.472C509.747 284.548 503.579 284.68 497.409 284.821ZM192.555 -9.84515C200.087 -20.2254 196.564 -15.2816 189.785 -6.15863C187.751 -3.38269 191.309 -8.14825 192.555 -9.84515ZM214.076 -44.6093C214.852 -46.1971 218.97 -55.4008 220.986 -64.0643C223.137 -72.6946 223.427 -80.4644 223.23 -77.6805C223.654 -75.6184 218.907 -55.1442 218.058 -54.3807C217.514 -53.0179 219.94 -59.2644 215.874 -48.8239C216.171 -49.4111 213.587 -43.4961 214.076 -44.6093ZM198.746 -18.4645C205.925 -28.9838 207.185 -31.563 202.072 -23.4789C200.023 -20.3488 197.704 -16.9775 198.746 -18.4645ZM165.911 21.74C169.236 18.5898 177.781 9.85577 182.83 3.15771C175.934 12.0132 167.937 19.9745 159.67 27.6271C158.727 28.5222 163.04 24.5357 165.933 21.7186C165.926 21.7257 165.918 21.7328 165.911 21.74ZM879.874 902.814C869.775 903.906 893.031 901.309 894.007 901.132C896.928 900.799 884.391 902.352 879.874 902.814ZM679.397 -707.746C682.14 -707.082 683.941 -706.669 689.92 -704.981C683.924 -706.748 677.843 -708.214 671.711 -709.427C666.929 -710.282 676.406 -708.51 679.397 -707.746ZM702.189 -700.748C701.537 -700.984 704.168 -699.97 700.166 -701.431C699.063 -701.825 697.464 -702.394 695.13 -703.163C692.745 -703.922 695.379 -703.173 700.185 -701.483C710.302 -698.265 728.704 -688.606 732.982 -685.828C725.877 -690.23 709.413 -698.349 702.189 -700.748ZM765.587 -664.318C765.977 -664.038 752.752 -672.873 751.21 -673.876C743.167 -679.233 763.435 -665.809 765.587 -664.318ZM722.614 -691.182C729.194 -687.695 714.611 -695.415 710.017 -697.193C709.63 -697.496 721.648 -691.826 722.614 -691.182ZM777.315 909.956C769.259 910.478 762.066 911.139 774.453 910.205C775.044 910.161 777.658 909.934 777.315 909.956ZM752.597 -672.869C746.394 -677.002 760.159 -667.875 764.248 -665.124C764.618 -664.852 753.546 -672.249 752.597 -672.869ZM771.636 910.226C760.939 910.971 764.716 910.84 766.053 910.745C771.558 910.348 790.43 908.95 794.285 908.665C766.034 910.692 776.673 909.885 771.636 910.226ZM722.351 914.386C712.448 915.348 737.763 912.964 742.599 912.574C737.671 912.975 725.166 914.097 722.351 914.386ZM662.38 921.446C657.077 922.147 641.329 924.416 638.695 924.85C644.467 923.96 660.145 921.76 662.38 921.446ZM650.377 923.062C642.097 924.229 640.126 924.611 649.663 923.197C650.034 923.142 650.681 923.02 650.377 923.062ZM603.926 930.274C598.51 931.149 592.354 932.295 601.117 930.802C603.72 930.362 604.499 930.182 603.926 930.274ZM758.24 911.075C750.407 911.665 740.324 912.537 757.042 911.221C751.17 911.684 745.299 912.167 739.43 912.678C761.326 910.892 759.717 911.006 766.005 910.521C774.794 909.876 774.106 910.003 772.343 910.152C779.545 909.562 810.168 907.463 827.848 906.079C812.308 907.275 787.066 908.969 771.719 910.084C767.337 910.401 763.086 910.738 759.351 911.022C753.362 911.48 758.679 911.042 758.27 911.072C758.26 911.073 758.25 911.074 758.24 911.075ZM543.144 941.383C527.323 944.491 537.336 942.568 546.272 940.801C546.654 940.724 543.537 941.306 543.144 941.383ZM770.254 -660.814C752.166 -672.493 765.884 -665.002 727.39 -688.194C743.746 -678.777 728.334 -687.743 731.526 -685.905C734.114 -684.476 743.517 -678.604 738.059 -682.03C745.343 -677.723 775.829 -657.03 777.345 -656.318C777.332 -656.327 777.318 -656.335 777.305 -656.343C778.143 -655.815 776 -657.04 770.254 -660.814ZM662.273 921.232C656.931 921.864 654.863 922.305 644.388 923.745C630.466 925.833 682.889 918.281 689.296 917.818C632.23 925.005 727.025 913.284 687.158 918.025C693.115 917.305 697.27 916.828 700.104 916.503C712.898 915.075 698.836 916.598 702.988 916.115C708.411 915.44 727.036 913.634 726.089 913.706C726.079 913.707 726.068 913.708 726.058 913.709C717.395 914.524 708.739 915.415 700.093 916.413C697.368 916.728 694.643 917.049 691.919 917.377C703.052 916.133 679.827 918.869 671.959 919.879C668.729 920.321 665.501 920.772 662.273 921.232ZM726.609 913.788C725.48 913.833 700.721 916.417 702.326 916.31C705.619 915.822 740.786 912.474 726.609 913.788ZM835.785 905.402C826.885 906.125 813.111 907.12 808.259 907.498C817.17 906.864 830.942 905.832 835.785 905.402ZM382.127 976.993C371.042 979.404 405.248 972.029 395.359 974.136C394.97 974.231 382.552 976.913 382.127 976.993ZM636.631 924.942C625.178 926.66 630.603 925.921 639.082 924.617C639.573 924.542 637.16 924.863 636.631 924.942ZM755.71 -670.468C755.124 -670.999 728.898 -687.907 723.808 -690.112C726.852 -689.136 756.562 -670.164 755.71 -670.468ZM851.436 903.988C833.735 905.488 809.689 907.298 807.051 907.488C804.428 907.674 808.539 907.339 807.941 907.38C806.579 907.483 778.64 909.461 777.287 909.568C776.32 909.64 781.379 909.331 775.613 909.764C786.865 908.94 837.931 905.287 840.565 904.948C842.615 904.763 827.157 906.028 851.405 903.991C851.416 903.99 851.426 903.989 851.436 903.988ZM800.458 907.947C807.438 907.475 787.867 908.865 783.129 909.194C772.602 909.924 799.563 908.007 800.458 907.947ZM753.381 911.365C751.145 911.511 730.984 913.21 729.275 913.423C738.814 912.554 758.452 910.975 753.381 911.365ZM530.717 943.685C525.566 944.719 511.417 947.649 510.614 947.851C515.757 946.748 529.911 943.862 530.717 943.685ZM658.524 -710.396C667.134 -709.182 647.179 -711.957 641.292 -712.254C640.986 -712.391 657.807 -710.62 658.524 -710.396ZM634.659 925.022C631.544 925.245 568.957 935.853 560.256 937.767C568.773 935.921 630.797 925.413 633.656 925.206C634.479 925.078 635.051 924.963 634.659 925.022ZM771.068 909.869C776.869 909.411 780.658 909.182 781.39 909.13C788.567 908.622 803.447 907.563 800.186 907.825C787.524 908.696 759.521 910.777 771.068 909.869ZM526.267 944.437C505.156 948.777 545.722 940.525 540.4 941.604C540.055 941.663 528.448 943.981 526.267 944.437ZM641.671 923.959C645.003 923.403 677.709 918.728 700.073 916.241C709.184 915.193 716.568 914.465 719.505 914.175C712.942 914.86 707.298 915.442 700.076 916.263C697.304 916.58 694.298 916.931 690.919 917.339C687.634 917.737 688.513 917.653 688.16 917.695C682.472 918.396 686.726 917.847 683.219 918.283C680.985 918.412 635.044 924.878 641.671 923.959ZM774.379 909.604C777.918 909.317 817.443 906.521 819.029 906.377C830.927 905.571 777.454 909.386 774.379 909.604ZM635.903 924.779C642.637 923.639 673.878 919.326 652.507 922.349C650.466 922.639 641.825 923.864 635.903 924.779ZM528.511 943.923C527.467 944.108 505.471 948.688 505.085 948.814C508.25 948.089 540.337 941.523 528.511 943.923ZM539.92 941.567C539.389 941.675 544.562 940.674 534.229 942.735C533.37 942.914 531.75 943.169 518.784 945.865C516.154 946.414 512.084 947.297 512.379 947.237C525.868 944.368 566.614 936.314 539.92 941.567ZM775.1 909.52C772.969 909.657 778.103 909.234 782.738 908.93C784.725 908.799 781.022 909.091 775.1 909.52ZM458.894 959.087C466.309 957.358 455.819 959.751 445.396 962.221C438.206 963.925 430.528 965.735 429.768 965.915C430.36 965.788 438.326 963.919 445.402 962.245C451.996 960.686 458.292 959.228 458.894 959.087ZM638.251 -712.274C638.261 -712.273 638.271 -712.272 638.282 -712.271C627.356 -713.012 634.125 -712.578 633.614 -712.62C610.307 -713.84 616.474 -713.288 612.828 -713.448C604.995 -713.598 606.261 -713.664 593.035 -713.763C614.894 -713.569 594.999 -713.78 594.379 -713.801C591.933 -713.95 623.483 -713.483 634.322 -712.599C635.837 -712.531 624.663 -713.17 628.542 -712.972C641.202 -712.704 680.004 -707.879 638.251 -712.274ZM786.312 908.671C791.395 908.298 829.936 905.529 819.72 906.293C818.081 906.448 778.847 909.243 786.312 908.671ZM729.91 353.662C728.931 359.555 730.382 353.143 730.511 346.46C730.59 342.737 730.677 338.796 730.694 337.355C730.714 336.081 730.587 341.461 730.474 346.46C730.422 349.368 730.108 352.188 729.91 353.662ZM681.613 251.273C671.133 255.242 660.953 261.041 673.311 254.849C674.603 254.144 682.791 250.783 681.613 251.273ZM248.095 627.744C258.769 623.421 258.113 623.625 250.282 626.813C247.52 627.945 247.76 627.881 248.095 627.744ZM655.114 462.77C656.113 462.171 666.59 453.811 666.145 454.036C662.466 457.383 649.057 467.197 655.114 462.77ZM244.719 629.148C251.027 626.533 240.134 630.946 232.479 634.272C236.373 632.601 244.071 629.413 244.719 629.148ZM612.343 928.333C606.695 929.272 590.723 931.973 581.568 933.634C580.569 933.744 605.776 929.368 612.343 928.333ZM723.2 249.694C720.912 244.771 722.403 247.565 723.842 251.445C725.275 255.339 726.338 260.344 726.135 259.333C726.205 259.046 723.581 250.092 723.2 249.694ZM3.6622 873.254C3.2806 865.737 4.52802 889.61 4.20192 883.038C4.10047 882.713 3.60084 873.675 3.6622 873.254ZM47.7675 963.675C42.743 960.755 26.201 942.896 32.6111 949.846C33.3179 951.226 47.183 963.697 47.7675 963.675ZM612.18 -713.436C615.28 -713.355 597.284 -713.675 594.702 -713.673C593.69 -713.693 608.141 -713.607 612.18 -713.436ZM317.885 600.831C323.478 598.771 338.032 593.55 340.591 592.625C333.717 595.062 316.027 601.456 317.885 600.831ZM730.421 297.047C730.199 287.922 728.536 272.364 728.871 276.224C730.42 293.392 729.081 274.075 730.421 297.047ZM209.51 644.391C213.867 642.431 217.196 640.91 216.701 641.124C211.956 643.19 205.176 646.326 209.51 644.391ZM545.444 518.628C545.717 518.563 559.902 512.72 557.999 513.479C557.383 513.746 545.236 518.707 545.444 518.628ZM415.818 969.035C408.928 970.605 429.957 965.729 435.987 964.308C438.921 963.661 416.708 968.854 415.818 969.035ZM93.0373 707.067C92.9337 707.144 93.5037 706.767 94.4622 706.151C98.8144 703.306 111.196 695.622 104.642 699.662C103.102 700.605 97.2012 704.336 94.451 706.133C93.6236 706.671 93.0841 707.033 93.0373 707.067ZM8.19105 904.756C6.51882 897.98 8.21523 906.793 12.1623 916.794C17.0227 929.867 27.0374 943.328 21.5265 935.193C21.0794 934.577 15.4898 925.469 12.1955 916.781C9.7969 910.755 8.34781 905.308 8.19105 904.756ZM79.7251 981.694C77.2262 980.568 78.3927 981.27 89.1218 985.21C90.5257 985.731 83.9473 983.37 85.0886 983.785C85.6464 984.398 109.33 991.595 110.566 991.543C111.772 991.826 110.361 991.455 111.586 991.74C112.969 992.155 127.975 995.297 135.843 996.294C150.907 998.327 152.44 998.157 153.702 998.331C157.335 998.659 163.333 999.163 170.662 999.51C207.558 1001.8 264.061 996.688 293.01 992.395C267.178 995.954 242.44 998.498 216.523 999.591C224.118 999.466 178.392 1000.44 205.143 999.925C198.991 1000.06 169.237 1000.76 140.175 996.918C110.973 993.603 83.8619 983.721 79.7533 981.706C79.7439 981.702 79.7345 981.698 79.7251 981.694ZM642.614 270.957C648.196 268.264 622.463 281.053 615.303 281.078C614.69 281.187 614.244 281.263 614.008 281.305C614.337 281.252 614.776 281.18 615.305 281.089C622.167 280.721 642.043 271.559 642.614 270.957ZM731.06 319.557C731.05 322.778 731.222 325.88 730.824 342.851C730.824 342.867 730.823 342.882 730.823 342.898C730.707 347.828 730.808 342.221 730.782 343.117C730.78 343.206 730.74 344.83 730.703 346.464C730.566 350.304 730.201 354.877 730.668 346.463C730.67 346.333 730.672 346.196 730.675 346.053C731.065 326.475 730.782 344.229 730.973 333.759C731.054 332.447 731.052 312.719 730.994 313.842C731 313.951 731.045 319.917 731.034 320.909C731.015 324.59 730.993 322.816 730.991 323.333C731.006 324.341 730.898 336.33 730.656 346.463C730.545 353.266 729.145 359.191 728.717 360.948C728.517 361.471 730.437 355.164 730.626 346.463C731.051 331.657 730.956 310.258 730.859 309C730.838 307.735 730.914 308.268 730.892 306.952C730.985 306.281 730.055 285.601 729.673 282.922C729.609 282.143 729.557 281.55 729.52 281.116C729.91 284.237 727.749 265.575 727.641 266.138C727.829 266.488 729.447 279.285 729.4 279.771C729.419 279.974 729.435 280.151 729.45 280.317C729.798 277.63 731.408 321.247 731.035 311.848C731.169 324.497 730.989 310.059 731.06 319.557ZM722.301 379.488C722.841 378.286 723.363 377.076 723.864 375.858C715.605 395.721 700.865 415.527 685.646 434.546C684.992 435.369 684.322 436.186 683.639 436.998C679.353 441.914 684.399 436.37 678.605 442.658C673.9 447.635 668.15 452.566 670.916 450.089C671.634 449.556 681.356 440.249 685.641 434.543C685.723 434.44 685.803 434.339 685.882 434.24C698.534 418.209 695.219 422.162 695.978 421.24C696.797 420.209 704.519 409.894 708.358 403.975C717.617 388.981 723.151 382.316 729.285 358.596C725.754 372.244 728.247 365.007 722.301 379.488ZM27.4636 781.999C27.0062 782.702 20.6086 795.571 18.725 800.444C18.9286 799.638 24.89 786.553 27.4636 781.999ZM211.149 -317.411C211.045 -319.727 211.352 -311.795 211.341 -304.888C211.34 -298.618 211.823 -293.228 211.562 -297.385C211.521 -298.225 211.363 -301.316 211.368 -304.888C211.378 -309.57 211.228 -315.048 211.149 -317.411ZM226.155 -169.137C226.179 -164.685 226.153 -182.611 226.111 -182.578C226.109 -182.552 226.159 -169.71 226.155 -169.137ZM494.143 538.625C493.357 538.926 481.857 543.14 481.493 543.264C473.871 546.048 511.694 532.097 494.143 538.625ZM185.96 2.9259C188.988 -1.08838 188.078 0.10614 185.751 3.17206C181.034 9.81488 168.174 22.9136 174.922 15.9236C175.469 15.524 184.454 5.20618 185.766 3.18323C185.865 3.05243 185.931 2.96454 185.96 2.9259ZM139.929 48.8585C142.572 46.2759 154.846 35.2486 155 35.0866C155.226 34.8556 141.203 47.502 139.929 48.8585ZM206.63 645.846C208.262 645.113 188.499 654.18 181.731 657.55C180.081 658.261 199.721 648.912 206.63 645.846ZM334.202 595.16C248.179 627.01 267.001 619.63 339.341 593.3C339.454 593.289 339.654 593.204 334.202 595.16ZM224.801 637.815C227.845 636.457 237.42 632.373 243.925 629.688C242.756 630.174 229.445 635.77 224.801 637.815ZM209.795 -356.968C209.762 -351.245 210.889 -325.793 210.672 -330.314C210.551 -331.382 209.593 -359.082 209.795 -356.968ZM486.936 541.321C488.967 540.648 463.035 550.03 461.035 550.702C453.014 553.546 484.858 542.146 486.936 541.321ZM92.4054 707.715C88.3328 710.333 77.4242 718.642 71.053 724.773C73.8767 721.888 86.0657 711.709 92.4054 707.715ZM147.492 675.112C146.994 675.357 136.136 681.318 135.668 681.604C126.766 686.463 157.47 669.63 147.492 675.112ZM653.317 -710.526C652.913 -710.609 643.616 -711.566 643.288 -711.564C634.992 -712.448 662.887 -709.507 653.317 -710.526Z" fill="var(--Cladonia-5, #4C9CFF)"/>
</svg>
