<svg width="30" height="26" viewBox="0 0 30 26" fill="none" xmlns="http://www.w3.org/2000/svg">
<path d="M23.1892 0.476601L23.0618 0.462446C22.3446 0.394028 21.0163 0.394028 20.3251 0.462446C18.0272 0.688932 15.9818 2.01718 14.4105 4.30091L0.361295 24.2222C0.0380807 24.6611 -0.0680846 25.0315 0.0451584 25.3264C0.108858 25.4915 0.278722 25.7086 0.71518 25.7959C1.21298 25.8926 2.31474 25.9138 2.98712 25.7959C3.35044 25.7322 3.90958 25.4538 4.28941 24.8781L17.3595 6.35344C18.0296 5.37908 19.1502 4.18767 20.6813 4.03668C21.1579 3.98949 22.2266 3.98949 22.7244 4.03668C23.4511 4.1051 25.8221 4.55099 25.8221 7.41745V24.3921C25.8221 25.3641 26.1194 25.7723 26.9569 25.9468C27.1079 25.9799 27.3391 25.994 27.575 25.994C27.8109 25.994 28.0445 25.9775 28.2026 25.9468C28.7877 25.8289 29.4128 25.6048 29.4128 24.3898V7.4151C29.4128 3.66156 26.9191 0.887107 23.1916 0.476601H23.1892Z" fill="white"/>
</svg>
