<svg width="29" height="27" viewBox="0 0 29 27" fill="none" xmlns="http://www.w3.org/2000/svg">
<path d="M27.1289 0.929001C26.7844 0.865302 26.1026 0.851146 25.7723 0.929001C25.0268 1.10594 24.7107 1.44331 24.47 2.31623L19.7657 19.6967C19.4284 20.9423 18.3832 22.3107 16.4581 22.4145C15.7126 22.4546 14.0823 22.4475 13.2259 22.4145C11.1545 22.3296 10.2793 20.8692 9.9065 19.6589L4.54397 2.14165C4.28445 1.37254 3.92585 1.12954 3.31481 0.93372C2.96565 0.822836 2.26495 0.87002 1.97241 0.929001C1.45102 1.03045 1.11601 1.23098 0.950867 1.54004C0.764488 1.88213 0.79516 2.34218 1.03344 2.93199L6.47854 20.7111C7.4529 23.8985 9.92302 25.8755 13.0844 26.0029C13.5727 26.0218 14.3041 26.0336 14.9977 26.0336C15.4766 26.0336 16.1514 26.0288 16.6515 26.0005C19.8129 25.8307 22.3963 23.7239 23.2338 20.6333L28.1103 2.60641C28.2448 2.12513 28.2212 1.73586 28.0443 1.45039C27.8768 1.18144 27.5677 1.0045 27.1312 0.924283L27.1289 0.929001Z" fill="white"/>
</svg>
