<svg width="26" height="26" viewBox="0 0 26 26" fill="none" xmlns="http://www.w3.org/2000/svg">
<path d="M25.8526 3.31226C25.9257 3.02444 25.9115 2.42991 25.8526 2.13029C25.678 1.2267 25.2746 0.922363 24.2483 0.922363H10.8314C4.89789 0.922363 1.22692 4.56973 1.00752 10.6849C0.96269 11.9376 0.950894 14.3865 1.00752 15.6676C1.26939 21.6789 5.03236 25.4135 10.8314 25.4135H24.2483C25.1259 25.4135 25.6709 25.2154 25.8526 24.2032C25.9045 23.9154 25.9163 23.3256 25.8526 23.0283C25.6803 22.2168 25.1566 21.8228 24.2483 21.8228H10.8314C5.90292 21.8228 4.71859 18.3901 4.59355 15.5095C4.54164 14.3393 4.55108 11.9801 4.59355 10.8099C4.69735 7.93635 5.86281 4.51311 10.8314 4.51311H24.2483C25.3477 4.51311 25.6497 4.10968 25.8502 3.31226H25.8526Z" fill="white"/>
</svg>
