<svg width="24" height="26" viewBox="0 0 24 26" fill="none" xmlns="http://www.w3.org/2000/svg">
<path d="M23.9839 7.97426C23.9839 3.6262 21.1929 0.927246 16.7009 0.927246H2.51724C1.73397 0.927246 1.1772 1.37786 1.03092 2.13517C0.976662 2.42064 0.976662 3.0128 1.03092 3.30771C1.16776 4.02963 1.76464 4.51563 2.51724 4.51563H16.6986C19.1522 4.51563 20.3955 5.67873 20.3955 7.97426C20.3955 10.2698 19.1852 11.4353 16.6986 11.4353L2.65878 11.44C1.72925 11.44 1.18899 11.834 0.957789 12.6786C0.717147 13.5562 1.02621 14.2026 1.99349 14.8396L17.555 25.0103C18.1401 25.409 18.8148 25.5317 19.5131 25.6307C19.8812 25.6826 20.4073 25.7086 20.931 25.7086C21.4548 25.7086 21.9785 25.6826 22.3348 25.6307C22.7783 25.567 23.0992 25.317 23.1723 24.9843C23.2407 24.6682 23.0708 24.3402 22.7146 24.1114L8.43183 15.0284H17.0572L17.0501 15.0213C21.3392 14.8844 23.9862 12.2114 23.9862 7.97662L23.9839 7.97426Z" fill="white"/>
</svg>
