<svg width="25" height="26" viewBox="0 0 25 26" fill="none" xmlns="http://www.w3.org/2000/svg">
<path d="M14.4493 0.974607L14.4564 0.967529L2.21201 1.03359C1.24 1.03359 0.650196 1.46769 0.553467 2.25331C0.518079 2.54113 0.503922 3.12387 0.562903 3.41877C0.742204 4.2964 1.19518 4.62198 2.23088 4.62198L14.1214 4.55828C18.007 4.55828 20.5031 6.96941 20.6352 10.8527C20.6753 12.0252 20.6753 14.4458 20.6352 15.6537C20.5055 19.5936 18.0873 21.9458 14.1615 21.9458H2.22144C1.35089 21.9458 0.697378 22.42 0.558183 23.1537C0.503921 23.4486 0.503921 24.0408 0.558183 24.3263C0.713892 25.1166 1.28719 25.5342 2.22144 25.5342H14.1615C20.0784 25.5342 24.0278 21.7004 24.2213 15.7693C24.2637 14.4788 24.2637 11.9851 24.2213 10.7324C24.0278 5.00653 20.1186 1.12324 14.4493 0.974607Z" fill="white"/>
</svg>
