<svg width="26" height="26" viewBox="0 0 26 26" fill="none" xmlns="http://www.w3.org/2000/svg">
<path d="M16.0921 0.472146L15.96 0.45799C14.5374 0.368339 11.8361 0.39665 10.6022 0.45799C4.50358 0.750534 0.863281 4.43801 0.863281 10.3266L0.931701 24.2768C0.931701 25.1049 1.33985 25.5909 2.14906 25.7206C2.43689 25.7654 3.0149 25.7631 3.31452 25.7135C4.07184 25.5885 4.52245 25.0459 4.52245 24.2626L4.45167 10.3219C4.45167 6.35842 6.57734 4.24927 10.772 4.04874C12.0649 3.9874 14.5633 3.97324 15.7312 4.04874C19.7065 4.29882 22.0798 6.63209 22.0798 10.2865V24.2744C22.0798 25.0459 22.5092 25.5578 23.2854 25.7206C23.4364 25.7513 23.6582 25.7678 23.8799 25.7678C24.1017 25.7678 24.3235 25.7513 24.465 25.7206C25.2412 25.5484 25.6682 25.0341 25.6682 24.2744V10.2865C25.6682 4.82021 21.825 0.894448 16.0897 0.476864L16.0921 0.472146Z" fill="white"/>
</svg>
