<svg width="25" height="26" viewBox="0 0 25 26" fill="none" xmlns="http://www.w3.org/2000/svg">
<path d="M23.1496 0.925284C22.8618 0.880459 22.2814 0.894614 21.9912 0.925284L21.7789 0.946516L21.786 0.958313C21.1136 1.08807 20.7739 1.49386 20.7739 2.16624L20.8399 15.6162C20.8399 19.693 18.6529 21.9531 14.5172 22.1513C13.255 22.2103 11.2308 22.2268 10.03 22.1513C6.11363 21.9036 3.68126 19.4146 3.68126 15.654V2.28892C3.68126 1.46083 3.30614 1.04089 2.4639 0.927644C2.19023 0.892255 1.61221 0.882818 1.30551 0.927644C0.522246 1.03853 0.0905151 1.52217 0.0905151 2.28892V15.654C0.0905151 21.2288 4.08469 25.374 9.80346 25.7326C10.398 25.7703 11.1883 25.7892 12.0896 25.7892C12.9908 25.7892 13.9321 25.768 14.6894 25.7349C20.696 25.4471 24.4283 21.5662 24.4283 15.6068L24.3623 2.15444C24.3623 1.42544 23.9989 1.05976 23.1496 0.925284Z" fill="white"/>
</svg>
