<svg width="26" height="25" viewBox="0 0 26 25" fill="none" xmlns="http://www.w3.org/2000/svg">
<path d="M24.1787 0.0448402H1.93348C1.00394 0.0448402 0.727914 0.448267 0.520302 1.24333C0.440088 1.55003 0.451884 2.12096 0.520302 2.43002C0.676011 3.15431 0.975633 3.63559 1.93584 3.63559H11.2642V23.1205C11.2642 23.958 11.4671 24.5124 12.4745 24.6823C12.609 24.7059 12.8001 24.7153 12.9959 24.7153C13.2342 24.7153 13.4796 24.7011 13.6353 24.6846C14.4893 24.5879 14.855 24.1208 14.855 23.1205V3.63323H24.1834C25.1153 3.63323 25.4078 3.19205 25.5966 2.43238C25.6697 2.13748 25.6579 1.53351 25.5966 1.24805C25.4432 0.523764 25.1436 0.0424805 24.181 0.0424805L24.1787 0.0448402Z" fill="white"/>
</svg>
