<svg width="54" height="48" viewBox="0 0 54 48" fill="none" xmlns="http://www.w3.org/2000/svg">
<path d="M32.7725 0C32.8597 0 32.944 0.0351652 33.0068 0.0966797C33.0697 0.158472 33.1063 0.242703 33.1104 0.330078C33.1478 1.16782 33.1831 2.00601 33.2168 2.84375C33.3144 5.26706 33.3946 7.69089 33.4609 10.1143C39.7424 7.40178 46.0527 4.75543 52.3916 2.1748C53.0387 1.88995 53.565 2.70695 53.042 3.18262C51.543 4.4707 50.0393 5.75402 48.5322 7.0332C47.6895 7.74852 46.8453 8.46325 46 9.17578C45.9327 9.23243 45.8452 9.26191 45.7568 9.25684C45.6687 9.2516 45.5861 9.21259 45.5273 9.14746C45.4685 9.08218 45.4375 8.99562 45.4414 8.90723C45.4454 8.81893 45.4847 8.73593 45.5479 8.6748C46.3428 7.90662 47.139 7.13943 47.9365 6.37402C48.4752 5.85705 49.0149 5.3409 49.5547 4.8252C44.2282 7.27971 38.8793 9.68307 33.5107 12.041C33.6179 16.517 33.6728 20.9929 33.6729 25.4688C33.6729 28.5411 33.6471 31.6142 33.5967 34.6865C33.5987 34.8193 33.498 35.095 33.417 35.2002C30.5721 38.6475 27.6851 42.0617 24.7568 45.4424C24.2078 46.0762 23.6574 46.7093 23.1055 47.3408C23.0479 47.4066 22.9675 47.4498 22.8799 47.459C22.7922 47.468 22.7041 47.4422 22.6357 47.3877C22.5677 47.3331 22.5232 47.2533 22.5127 47.166C22.5023 47.0787 22.5268 46.9906 22.5781 46.9199C23.0715 46.2416 23.5662 45.5637 24.0625 44.8877C26.6497 41.3638 29.2766 37.8715 31.9434 34.4111C31.8959 31.4305 31.873 28.4494 31.873 25.4688C31.8731 21.211 31.9229 16.9532 32.0195 12.6953C31.7058 12.8325 31.393 12.9725 31.0791 13.1094C28.7097 14.1423 26.3356 15.1646 23.958 16.1787C24.0757 17.8793 24.1513 19.5797 24.1826 21.2803C25.1519 19.808 26.1621 18.3601 27.2109 16.9355C27.4218 16.6492 27.6346 16.3635 27.8486 16.0791C27.9 16.0111 27.9734 15.9599 28.0576 15.9404C28.1418 15.921 28.23 15.9351 28.3027 15.9785C28.3751 16.022 28.4284 16.0928 28.4512 16.1758C28.4738 16.2592 28.4634 16.3484 28.4277 16.4258C28.278 16.7487 28.1266 17.0716 27.9736 17.3926C26.7708 19.9176 25.4682 22.3832 24.0664 24.7891C23.5574 25.6306 22.4032 25.3144 22.4072 24.3311C22.4024 23.9293 22.4004 23.5267 22.4004 23.125C22.4004 21.0428 22.465 18.9601 22.5947 16.8779C22.1789 17.0315 21.762 17.1838 21.3438 17.332C21.16 17.3972 20.9753 17.4595 20.791 17.5234C15.0673 19.9411 9.32002 22.3055 3.54883 24.6143C2.52249 25.0249 1.49463 25.4337 0.466797 25.8408C0.385001 25.8731 0.29306 25.8737 0.210938 25.8408C0.128974 25.8079 0.0634407 25.7445 0.0283203 25.6641C-0.00680277 25.5835 -0.0093315 25.4917 0.0224609 25.4092C0.0542954 25.3266 0.117893 25.2596 0.197266 25.2217C1.19504 24.7458 2.19409 24.2722 3.19336 23.7998C12.1882 19.5474 21.2441 15.434 30.3604 11.46C30.9291 11.2121 31.4982 10.9646 32.0674 10.7178C32.1362 8.09322 32.2224 5.46825 32.3281 2.84375C32.3619 2.00599 32.3981 1.16784 32.4355 0.330078C32.4396 0.242697 32.4753 0.158475 32.5381 0.0966797C32.6008 0.0349523 32.6852 0.000145062 32.7725 0ZM22.0488 9.51367C22.6331 9.42191 23.1869 9.44699 23.709 9.58691C24.1595 9.7077 24.6084 9.83759 25.0537 9.97754C25.7878 10.1456 25.9556 10.8813 25.4434 11.4336C24.3926 12.3992 23.2757 13.2993 22.0938 14.1338C21.9818 14.2128 21.8689 14.2913 21.7559 14.3691C21.6875 14.4159 21.6057 14.4451 21.5215 14.4424C21.4373 14.4396 21.3576 14.4063 21.2998 14.3486C21.2422 14.2909 21.2088 14.2111 21.2061 14.127C21.2034 14.0428 21.2326 13.9609 21.2793 13.8926C21.3571 13.7793 21.4356 13.6658 21.5146 13.5537C22.059 12.7817 22.6312 12.0374 23.2314 11.3213C22.7138 11.1806 22.226 10.9265 21.7695 10.5576C21.6547 10.4648 21.5407 10.3642 21.4297 10.2568C21.3741 10.2023 21.3232 10.1411 21.292 10.0723C21.2609 10.0034 21.2516 9.93111 21.2695 9.86426C21.2875 9.79751 21.3313 9.73934 21.3926 9.69531C21.4542 9.65126 21.5299 9.62389 21.6055 9.60449C21.7551 9.56715 21.903 9.53658 22.0488 9.51367Z" fill="#E5ECF0"/>
</svg>
