<svg width="25" height="26" viewBox="0 0 25 26" fill="none" xmlns="http://www.w3.org/2000/svg">
<path d="M24.9339 23.1577C24.8254 22.3508 24.3842 21.9427 23.6222 21.9427H9.91739C4.9866 21.9427 3.80463 18.51 3.67959 15.6294C3.62769 14.4616 3.63712 12.0056 3.67959 10.8118C3.7834 7.93831 4.94886 4.51506 9.91739 4.51506H23.6245C24.396 4.51506 24.8112 4.13051 24.9362 3.30242C24.9834 3.00044 24.974 2.42007 24.9362 2.14168C24.8372 1.36785 24.3582 0.924316 23.6222 0.924316H9.91503C3.98157 0.924316 0.310618 4.57169 0.0912099 10.6845C0.0463845 11.9419 0.0345884 14.4993 0.0912099 15.7851C0.353084 21.7964 4.1184 25.5311 9.91503 25.5311H23.6198C24.3842 25.5311 24.7404 25.2055 24.9315 24.3279C24.9976 24.0283 24.9763 23.4455 24.9315 23.1577H24.9339Z" fill="white"/>
</svg>
