<svg width="90" height="52" viewBox="0 0 90 52" fill="none" xmlns="http://www.w3.org/2000/svg">
<path d="M87.9967 0.231446C87.4423 -0.129516 86.9398 -0.054021 86.5245 0.358844L86.2391 0.639592C86.2391 0.639592 73.9145 12.8109 61.6653 24.9066C56.6496 17.4302 52.2803 10.9211 50.9709 8.96767C50.7468 8.63738 50.2136 8.3354 49.6521 8.46988C49.1638 8.58548 48.8288 8.70816 48.3899 8.9606C47.9511 9.21303 47.6751 9.61882 47.7081 10.1426C47.7246 10.4092 47.7341 10.4186 47.7341 10.4186C48.18 15.7387 48.0455 21.1531 47.2316 26.4543L1.30917 26.6218C0.59196 26.6218 0.122468 26.9544 0.0210209 27.7188C-0.00964905 27.9382 -0.00492598 28.3841 0.025744 28.6035C0.143705 29.4647 0.669811 29.6935 1.32096 29.6935C1.32096 29.6935 26.0764 29.6015 46.6819 29.526C45.7382 34.1123 44.2637 38.5807 42.1922 42.792C41.6496 43.8701 40.9371 44.8917 40.1633 45.9793C39.8024 46.4865 39.8071 46.9961 40.2364 47.4986C40.4417 47.7393 40.8994 48.1498 41.225 48.2842C41.7228 48.4848 42.2937 48.355 42.6546 47.9988C44.7261 45.9462 52.1694 38.602 58.997 31.8616L74.9572 50.5302C75.3111 50.9855 76.0779 51.3772 76.663 51.1224C77.1725 50.8983 77.4651 50.6765 77.7388 50.2683C78.0927 49.7375 77.9676 49.2091 77.6397 48.7231C76.0189 46.3072 70.5478 38.1537 64.7182 29.4623C65.5533 29.4576 68.5779 29.4434 70.1468 29.4434C70.8309 29.4434 71.114 29.0282 71.2367 28.3511C71.2815 28.101 71.2721 27.582 71.2367 27.3296C71.1447 26.7138 70.9489 26.3127 70.2718 26.2136L65.4212 25.5224C76.9083 14.1792 88.2916 2.93748 88.2916 2.93748L88.6549 2.57652C89.0466 2.20376 89.1504 1.63519 88.8295 1.08077C88.6809 0.823612 88.2444 0.398951 87.9967 0.238523V0.231446ZM51.0464 14.5874L57.6311 24.4018L56.6402 24.2602C56.166 24.1989 55.8286 24.3616 55.6351 24.7533L54.7198 26.4189L49.8786 26.4378C50.6194 22.5332 51.0158 18.5627 51.0464 14.5874ZM45.4291 40.9376C47.0169 37.2478 48.2909 33.4211 49.2204 29.5118C52.5729 29.5 54.4437 29.493 56.9705 29.4835L56.9964 29.5142C51.5914 34.8484 47.9252 38.4722 45.4291 40.94V40.9376Z" fill="white"/>
</svg>
