<svg width="272" height="48" viewBox="0 0 272 48" fill="none" xmlns="http://www.w3.org/2000/svg">
<g clip-path="url(#clip0_1_745)">
<path fill-rule="evenodd" clip-rule="evenodd" d="M73.0481 18.0197C73.0481 18.0197 74.513 18.9678 75.1862 20.7251H79.593C79.593 20.7251 79.2564 18.9672 78.3476 17.5027C78.3476 17.5027 77.439 16.0354 76.1093 14.9845C76.1093 14.9845 74.7822 13.9346 73.0655 13.3488C73.0655 13.3488 71.347 12.7649 69.3946 12.7649C69.3946 12.7649 66.9056 12.766 64.8354 13.6964C64.8354 13.6964 62.7632 14.6236 61.282 16.2948C61.282 16.2948 59.7989 17.9714 58.9742 20.2972C58.9742 20.2972 58.1511 22.6184 58.1511 25.4094C58.1511 25.4094 58.1489 28.1667 58.9567 30.4236C58.9567 30.4236 59.7661 32.6812 61.2472 34.2834C61.2472 34.2834 62.7303 35.8828 64.8006 36.7615C64.8006 36.7615 66.8699 37.644 69.3946 37.644C69.3946 37.644 71.4463 37.6415 73.2135 37.0557C73.2135 37.0557 74.98 36.4703 76.3097 35.4021C76.3097 35.4021 77.6422 34.3338 78.5175 32.8349C78.5175 32.8349 79.389 31.3395 79.6583 29.4788H75.4257C75.0084 31.1514 73.2153 33.334 69.7299 33.334C69.7299 33.334 68.081 33.3365 66.7514 32.768C66.7514 32.768 65.4208 32.2011 64.4783 31.1501C64.4783 31.1501 63.5376 30.0958 63.0326 28.6141C63.0326 28.6141 62.5274 27.1365 62.5274 25.2758C62.5274 25.2758 62.5277 23.4141 63.0326 21.9151C63.0326 21.9151 63.5346 20.4155 64.4434 19.33C64.4434 19.33 65.3553 18.2445 66.6512 17.6587C66.6512 17.6587 67.9474 17.0704 69.5296 17.0704C69.5296 17.0704 71.5838 17.0721 73.0481 18.0197Z" fill="#00164D"/>
<path fill-rule="evenodd" clip-rule="evenodd" d="M92.2805 37.0913H87.9738V12.7649H92.2805V32.7858H105.927L104.347 37.0913H92.2805Z" fill="#00164D"/>
<path fill-rule="evenodd" clip-rule="evenodd" d="M234.945 37.0913H239.251V12.7649H234.945V37.0913Z" fill="#00164D"/>
<path fill-rule="evenodd" clip-rule="evenodd" d="M117.501 37.0914H112.978L122.253 12.7649H126.821L136.096 37.0914H131.571L124.537 18.641L117.501 37.0914Z" fill="#00164D"/>
<path fill-rule="evenodd" clip-rule="evenodd" d="M253.399 37.0914H248.874L258.149 12.7649H262.717L271.992 37.0914H267.469L260.433 18.641L253.399 37.0914Z" fill="#00164D"/>
<path fill-rule="evenodd" clip-rule="evenodd" d="M195.338 25.1331C195.338 27.8897 194.498 30.2008 194.498 30.2008C193.656 32.5094 192.143 34.1631 192.143 34.1631C190.627 35.817 188.885 36.7482 188.885 36.7482C186.798 37.6785 183.96 37.6797 183.96 37.6797C181.435 37.6797 179.331 36.7482 179.331 36.7482C177.228 35.8177 175.677 34.1452 175.677 34.1452C174.129 32.4741 173.274 30.1651 173.274 30.1651C172.415 27.8565 172.411 25.1331 172.411 25.1331C172.411 22.4454 173.274 20.1724 173.274 20.1724C174.132 17.8983 175.677 16.2459 175.677 16.2459C177.226 14.5919 179.331 13.6786 179.331 13.6786C181.435 12.7655 183.96 12.7649 183.96 12.7649C186.485 12.7649 188.571 13.6786 188.571 13.6786C190.659 14.5917 192.155 16.228 192.155 16.228C193.654 17.8647 194.498 20.1368 194.498 20.1368C195.339 22.411 195.338 25.1331 195.338 25.1331ZM190.723 25.2357C190.723 23.4438 190.217 21.9463 190.217 21.9463C189.712 20.4475 188.806 19.3612 188.806 19.3612C187.898 18.2759 186.633 17.6765 186.633 17.6765C185.372 17.0736 183.86 17.0704 183.86 17.0704C182.345 17.0704 181.099 17.6587 181.099 17.6587C179.854 18.2445 178.961 19.33 178.961 19.33C178.069 20.4155 177.58 21.8974 177.58 21.8974C177.093 23.3789 177.089 25.2045 177.089 25.2045C177.089 27.0307 177.58 28.5294 177.58 28.5294C178.069 30.0283 178.979 31.1144 178.979 31.1144C179.888 32.1999 181.147 32.7859 181.147 32.7859C182.409 33.3717 183.925 33.3697 183.925 33.3697C185.44 33.3697 186.686 32.7859 186.686 32.7859C187.931 32.2001 188.824 31.1144 188.824 31.1144C189.716 30.029 190.217 28.5294 190.217 28.5294C190.723 27.0305 190.723 25.2357 190.723 25.2357Z" fill="#00164D"/>
<path fill-rule="evenodd" clip-rule="evenodd" d="M224.495 36.7342L219.976 37.6346L207.512 19.5489V37.1799H203.205V13.2991L207.904 12.3186L220.188 30.3965V12.8535H224.495V36.7342Z" fill="#00164D"/>
<path fill-rule="evenodd" clip-rule="evenodd" d="M148.415 37.0914H144.147V12.7649H153.361C155.751 12.7649 158.073 13.6251 158.073 13.6251C160.042 14.4866 161.439 16.0185 161.439 16.0185C162.836 17.5518 163.591 19.6732 163.591 19.6732C164.347 21.7924 164.406 23.2997 164.439 24.9103V24.9861V24.9879C164.473 26.5751 164.509 28.2538 163.747 30.2364C162.973 32.2522 161.579 34.0606 161.579 34.0606C160.181 35.5078 158.23 36.298 158.23 36.298C156.277 37.0905 153.361 37.0914 153.361 37.0914H148.415ZM148.454 32.7502H153.196C153.196 32.7502 156.707 32.9288 158.356 31.061C160.006 29.1932 160.359 27.921 160.359 24.9103C160.359 21.8996 159.832 20.7591 158.199 18.9156C156.566 17.0721 153.196 17.0704 153.196 17.0704H148.454V32.7502Z" fill="#00164D"/>
<path d="M42.7795 17.5392L25.0411 3.35432C22.5919 1.3958 19.0553 1.84026 17.1418 4.34705L3.28307 22.5028C1.36957 25.0096 1.80381 28.6294 4.25298 30.588L21.9914 44.7728C24.4405 46.7313 27.9772 46.2868 29.8907 43.7801L43.7494 25.6243C45.6629 23.1175 45.2287 19.4977 42.7795 17.5392Z" fill="url(#paint0_linear_1_745)"/>
<path style="mix-blend-mode:soft-light" d="M42.9611 17.7313L25.2227 3.54645C22.7736 1.58794 19.237 2.0324 17.3235 4.53918L3.46471 22.6949C1.55121 25.2017 1.98545 28.8216 4.43462 30.7801L22.173 44.9649C24.6222 46.9234 28.1588 46.479 30.0723 43.9722L43.9311 25.8164C45.8445 23.3097 45.4103 19.6898 42.9611 17.7313Z" fill="url(#paint1_radial_1_745)"/>
<path d="M4.25299 30.588L21.4371 44.3295C21.4371 44.3295 17.4676 40.0151 19.1698 34.342L26.432 8.1121C26.9317 6.30723 26.3143 4.37235 24.87 3.2174C22.5154 1.33445 19.1152 1.76177 17.2755 4.17182L3.28308 22.5027C1.36959 25.0096 1.80383 28.6294 4.25299 30.588Z" fill="url(#paint2_linear_1_745)"/>
</g>
<defs>
<linearGradient id="paint0_linear_1_745" x1="26.5849" y1="47.3418" x2="47.8089" y2="21.4312" gradientUnits="userSpaceOnUse">
<stop stop-color="#A6D3FD"/>
<stop offset="1" stop-color="#CFE6FC"/>
</linearGradient>
<radialGradient id="paint1_radial_1_745" cx="0" cy="0" r="1" gradientTransform="matrix(-10.0275 -2.04075 5.38875 -27.739 26.4369 10.0052)" gradientUnits="userSpaceOnUse">
<stop stop-color="white" stop-opacity="0.54"/>
<stop offset="1" stop-color="white" stop-opacity="0"/>
</radialGradient>
<linearGradient id="paint2_linear_1_745" x1="19.9196" y1="-0.228707" x2="-0.68766" y2="25.2113" gradientUnits="userSpaceOnUse">
<stop stop-color="#5395FD"/>
<stop offset="1" stop-color="#9ECDFD"/>
</linearGradient>
<clipPath id="clip0_1_745">
<rect width="272" height="48" fill="white"/>
</clipPath>
</defs>
</svg>
