<svg width="19" height="20" viewBox="0 0 19 20" fill="none" xmlns="http://www.w3.org/2000/svg">
<path d="M15.6591 19.6265H0.473511L1.45886 11.022H16.6434L15.6591 19.6265ZM4.47839 17.3296H12.3387L12.4452 16.3794H4.58582L4.47839 17.3296ZM4.82214 14.3481H12.6815L12.8104 13.2925H4.95007L4.82214 14.3481ZM4.80066 1.91455H10.4979L10.1766 4.60791H7.34949L7.28406 5.13623H10.1542L9.87683 7.6167H8.46179L9.8114 10.4673H6.14929L5.24988 8.59424L3.9657 10.4946H0.0457764L2.31628 7.6167H0.110229L0.38855 5.13623H3.90027L3.9657 4.60791H3.3446L3.27917 4.73877H0.387573L2.20789 1.30713L1.65222 0.937988H5.33484L4.80066 1.91455ZM17.6493 10.3882H9.93933L10.9462 1.62451H18.6561L17.6493 10.3882ZM13.453 7.93408H14.9305L15.3368 4.21143H13.8593L13.453 7.93408Z" fill="#1068AF"/>
</svg>
