<svg width="20" height="20" viewBox="0 0 20 20" fill="none" xmlns="http://www.w3.org/2000/svg">
<path d="M7.78601 1.94214H8.79285L8.51453 4.44995H7.50769L7.40125 5.45288H8.3446L9.41589 1.94214H11.8573L10.787 5.45288H11.2792L10.9794 7.95972H6.28992L5.99011 8.69897H10.2733L9.995 11.2058L8.13074 13.2126L8.04578 13.8464L10.3583 13.4763L10.08 15.9841L7.76746 16.3533L7.57507 18.2C7.5179 18.693 7.32901 19.1073 7.00769 19.4412C6.68631 19.7748 6.31824 19.944 5.90417 19.9441H2.88367L3.86804 18.4919L3.88953 18.5447L4.0614 16.9607L0.741089 17.489L1.01941 14.9822L4.33972 14.4539L4.48914 13.2126H4.46765L6.31042 11.2058H4.96082L4.03992 13.4763H0.784058L3.03308 7.95972H1.40613L1.70593 5.45288H4.14636L4.25281 4.44995H2.62488L2.9032 1.94214H4.53113L4.59558 1.44019L4.25281 0.939209H7.91492L7.78601 1.94214ZM16.4608 0.938232L15.8827 2.94409H19.6747L19.3964 5.45093H18.7753L18.2186 10.4666L16.2059 14.1365L18.3485 19.9431H15.0927L14.2782 17.7273L13.0575 19.9431H9.39539L12.8221 13.7673L11.0663 8.96265H14.3221L14.7714 10.2302L15.0497 9.72827L15.5214 5.45093H15.1561L14.4286 7.95874H11.1727L13.0155 1.5437L12.6093 0.936279H16.4608V0.938232Z" fill="#1068AF"/>
</svg>
