<svg width="20" height="20" viewBox="0 0 20 20" fill="none" xmlns="http://www.w3.org/2000/svg">
<path d="M14.6366 3.94922H15.621L16.4989 0.939453H19.37L18.4921 3.94922H19.0262L18.7264 6.45605H16.6063L15.9208 8.96289H18.8553L18.577 11.4697H16.5428L17.5917 19.9434H14.1649L13.6307 15.7471L12.4745 19.9434H9.04773L11.3817 11.4697H9.62585L9.90417 8.96289H12.0878L12.7723 6.45605H10.5887L10.8885 3.94922H11.8094L11.66 1.57324L11.2313 0.939453H14.4872L14.6366 3.94922ZM10.4823 3.94727H10.0536L8.93933 13.8193L9.77429 13.7148L9.38855 16.9863L8.55457 17.0918L8.23328 19.9424H5.38367L5.66199 17.4346L0.736206 17.9902L1.10144 14.7158L1.70105 14.6631L2.92175 3.94727H2.34363L2.62195 1.44043H10.7596L10.4823 3.94727ZM4.59167 14.3223L6.04773 14.1641L6.24011 12.4746H4.80652L4.59167 14.3223ZM5.08386 9.96582H6.51843L6.75378 7.95996H5.31921L5.08386 9.96582ZM5.59753 5.45312H7.0321L7.20398 3.94922H5.76941L5.59753 5.45312Z" fill="#1068AF"/>
</svg>
