<svg width="20" height="19" viewBox="0 0 20 19" fill="none" xmlns="http://www.w3.org/2000/svg">
<path d="M17.438 16.3564H18.2935L18.0591 18.4414H0.196777L0.432129 16.3564H1.28857L1.8667 11.2881H18.0151L17.438 16.3564ZM4.93018 16.3564H5.89404L6.21631 13.5059H5.25146L4.93018 16.3564ZM8.95654 16.3564H9.94092L10.2622 13.5059H9.27783L8.95654 16.3564ZM13.0034 16.3564H14.0093L14.3306 13.5059H13.3247L13.0034 16.3564ZM18.5503 9.57324C18.5069 9.92568 18.3325 10.2337 18.0249 10.498C17.7172 10.7623 17.3571 10.8935 16.9429 10.8936H14.0737L14.9731 10.1553L15.23 7.91016H13.2397L12.896 10.8936H9.59814L10.7974 0.387695H19.6001L18.5503 9.57324ZM8.93311 9.94336H1.88623L2.91553 0.995117L2.61572 0.493164H10.0259L8.93311 9.94336ZM4.97119 7.67285H6.36377L6.53564 6.08789H5.14307L4.97119 7.67285ZM13.4106 6.27344H15.4038L15.5532 4.9541H13.561L13.4106 6.27344ZM5.33643 4.34766H6.729L6.92236 2.76367H5.52979L5.33643 4.34766ZM13.7544 3.31641H15.7466L15.896 2.02344H13.9038L13.7544 3.31641Z" fill="#1068AF"/>
</svg>
