<svg width="34" height="21" viewBox="0 0 34 21" fill="none" xmlns="http://www.w3.org/2000/svg">
<path opacity="0.56" fill-rule="evenodd" clip-rule="evenodd" d="M7.74146 4.55051C7.74146 3.79046 8.3576 3.17432 9.11765 3.17432L30.6975 3.17432C31.4575 3.17432 32.0737 3.79046 32.0737 4.55051V5.88445C32.0737 6.6445 31.4575 7.26064 30.6975 7.26064L9.11765 7.26064C8.3576 7.26064 7.74146 6.6445 7.74146 5.88445V4.55051Z" fill="#668299"/>
<path fill-rule="evenodd" clip-rule="evenodd" d="M6.32793 4.97466C6.32793 6.41081 5.12211 7.57505 3.63467 7.57505C2.14722 7.57505 0.941406 6.41081 0.941406 4.97466C0.941406 3.5385 2.14722 2.37427 3.63467 2.37427C5.12211 2.37427 6.32793 3.5385 6.32793 4.97466Z" fill="#7FBA00"/>
</svg>
