<svg width="34" height="21" viewBox="0 0 34 21" fill="none" xmlns="http://www.w3.org/2000/svg">
<path opacity="0.56" fill-rule="evenodd" clip-rule="evenodd" d="M7.74146 4.95041C7.74146 4.19036 8.3576 3.57422 9.11765 3.57422L30.6975 3.57422C31.4575 3.57422 32.0737 4.19036 32.0737 4.95041V6.28435C32.0737 7.0444 31.4575 7.66055 30.6975 7.66055L9.11765 7.66055C8.3576 7.66055 7.74146 7.0444 7.74146 6.28435V4.95041Z" fill="#668299"/>
<path fill-rule="evenodd" clip-rule="evenodd" d="M6.32793 5.3748C6.32793 6.81096 5.12211 7.97519 3.63467 7.97519C2.14722 7.97519 0.941406 6.81096 0.941406 5.3748C0.941406 3.93865 2.14722 2.77441 3.63467 2.77441C5.12211 2.77441 6.32793 3.93865 6.32793 5.3748Z" fill="#7FBA00"/>
</svg>
