<svg width="34" height="21" viewBox="0 0 34 21" fill="none" xmlns="http://www.w3.org/2000/svg">
<path opacity="0.56" fill-rule="evenodd" clip-rule="evenodd" d="M7.74146 4.75046C7.74146 3.99041 8.3576 3.37427 9.11765 3.37427L30.6975 3.37427C31.4575 3.37427 32.0737 3.99041 32.0737 4.75046V6.0844C32.0737 6.84445 31.4575 7.46059 30.6975 7.46059L9.11765 7.46059C8.3576 7.46059 7.74146 6.84445 7.74146 6.0844V4.75046Z" fill="#668299"/>
<path fill-rule="evenodd" clip-rule="evenodd" d="M6.32793 5.17461C6.32793 6.61076 5.12211 7.775 3.63467 7.775C2.14722 7.775 0.941406 6.61076 0.941406 5.17461C0.941406 3.73845 2.14722 2.57422 3.63467 2.57422C5.12211 2.57422 6.32793 3.73845 6.32793 5.17461Z" fill="#7FBA00"/>
</svg>
